<?xml version="1.0" encoding="utf-8"?>
<!-- Generator: Adobe Illustrator 20.1.0, SVG Export Plug-In . SVG Version: 6.00 Build 0)  -->
<svg version="1.1" id="Layer_1" xmlns="https://www.w3.org/2000/svg" xmlns:xlink="https://www.w3.org/1999/xlink" x="0px" y="0px"
	 viewBox="0 0 413.2001 95.8" style="enable-background:new 0 0 413.2001 95.8;" xml:space="preserve">
<style type="text/css">
	.st0{fill:#F0533C;}
	.st1{fill:#FFFFFF;}
	.st2{fill:#444653;}
</style>
<path class="st0" d="M38.5,0C17.2,0,0,17.3,0,38.5c0,21.3,38.5,57.3,38.5,57.3S77,59.8,77,38.5S59.8,0,38.5,0"/>
<path class="st1" d="M55.6,17.2c0-2.5-1.6-4.3-4.3-4.3c-2.6,0-5.5,4-6.8,7l0,0c-1.7-0.7-3.6-1-5.7-1c-8.3,0-14.5,6.2-14.5,14.6
	c0,4,1.6,8.2,4.1,10.4c0.3,0.3,0.8,0.6,1.5,1.1c-3.1,3.1-4.4,5.5-4.4,8.4c0,4.8,5.1,5.4,12.8,7.3c1.2,0.3,4.9,1.4,4.9,2.9v0.1
	c0,1.4-1.2,2.3-3.7,2.3s-5.4-0.9-8.4-2.8c-0.5-0.3-1.1-0.5-1.7-0.5c-2,0-3.5,1.5-3.5,3.5c0,1.4,0.8,2.4,1.7,3
	c3.8,2.4,7.8,3.5,11.7,3.5c6.7,0,11.8-3.1,11.8-10v-0.1c0-5.7-5-7.9-9.3-9.2C40.4,53,35,51.9,35,51.9c-1.7-0.4-2.5-0.9-2.5-2.1
	c0-0.8,0.2-1.3,1.5-2.8c2.2,0.7,3,0.9,4.8,0.9c8.1,0,14-6.5,14-15.4c0-4.1-1-6.6-3.8-9.6c-0.1-0.1-0.1-0.1-0.2-0.2
	c1-0.8,2.2-1.3,3.6-1.7C54.1,20.9,55.6,19.5,55.6,17.2 M38.7,40.2c-3.3,0-5.4-2.6-5.4-6.5s2.3-6.5,5.7-6.5c3.1,0,5.3,2.5,5.3,6
	C44.3,37.2,41.9,40.2,38.7,40.2"/>
<path class="st2" d="M145,41.6v-0.1c0-10.7,8.2-19.4,19.2-19.4c10.9,0,19.1,8.5,19.1,19.2v0.1c0,10.7-8.2,19.4-19.2,19.4
	C153.2,60.9,145,52.3,145,41.6z M173.4,41.6v-0.1c0-5.5-3.8-10.3-9.3-10.3c-5.7,0-9.2,4.7-9.2,10.1v0.1c0,5.5,3.8,10.3,9.3,10.3
	C170,51.8,173.4,47.1,173.4,41.6z"/>
<path class="st2" d="M187.5,41.6v-0.1c0-10.7,8.2-19.4,19.2-19.4c10.9,0,19.1,8.5,19.1,19.2v0.1c0,10.7-8.2,19.4-19.2,19.4
	C195.6,60.9,187.5,52.3,187.5,41.6z M215.9,41.6v-0.1c0-5.5-3.8-10.3-9.3-10.3c-5.7,0-9.2,4.7-9.2,10.1v0.1c0,5.5,3.8,10.3,9.3,10.3
	C212.4,51.8,215.9,47.1,215.9,41.6z"/>
<path class="st2" d="M267.2,55.2c0,2.9-2.2,5.3-5,5.3s-5-2.4-5-5.3v-0.5c-2.4,3.5-5.8,6-11,6c-8.2,0-16.1-6.8-16.1-19.2v-0.1
	c0-12.4,7.7-19.2,16.1-19.2c5.3,0,8.6,2.6,11,5.6V14.2c0-2.9,2.2-5.3,5-5.3s5,2.4,5,5.3V55.2z M240.1,41.4v0.1
	c0,6.2,4,10.3,8.6,10.3c4.7,0,8.6-4.1,8.6-10.3v-0.1c0-6.2-3.9-10.3-8.6-10.3C244.1,31.1,240.1,35.1,240.1,41.4z"/>
<path class="st2" d="M275.4,70.4c-1.5-0.6-3.2-1.8-3.2-4.4s1.9-4.3,4-4.3c0.8,0,1.3,0.1,1.6,0.3c0.9,0.3,1.4,0.4,2.1,0.4
	c1.8,0,2.6-0.3,3.6-2.2l0.3-0.8L271.7,30c-0.3-0.7-0.5-1.7-0.5-2.4c0-3,2.2-5.1,4.9-5.1c2.5,0,4,1.5,4.8,4l7.7,21.7l7.4-21.6
	c0.8-2.2,2.2-4,4.8-4s4.7,2.1,4.7,4.9c0,0.8-0.3,2-0.5,2.5l-12.3,31.2c-3,7.6-5.9,10.4-11.9,10.4C278.6,71.4,277.1,71,275.4,70.4z"
	/>
<path class="st2" d="M144.8,18.9c0-3.4-2.1-5.8-5.8-5.8c-3.6,0-7.6,5.5-9.3,9.6l0,0c-2.3-1-4.9-1.4-7.8-1.4
	c-11.4,0-19.8,8.5-19.8,20c0,5.5,2.2,11.3,5.6,14.2c0.4,0.4,1.1,0.9,2,1.6c-4.3,4.2-6,7.6-6,11.6c0,6.6,7,7.5,17.5,10.1
	c1.7,0.4,6.8,1.9,6.8,4V83c0,1.9-1.6,3.2-5.1,3.2c-3.4,0-7.4-1.3-11.5-3.8c-0.6-0.4-1.5-0.6-2.4-0.6c-2.7,0-4.7,2-4.7,4.7
	c0,1.9,1,3.3,2.3,4.1c5.1,3.3,10.7,4.8,16,4.8c9.2,0,16.2-4.3,16.2-13.7v-0.2c0-7.7-6.8-10.8-12.8-12.6c-1.9-0.5-9.3-2-9.3-2
	c-2.3-0.5-3.5-1.2-3.5-2.9c0-1.2,0.3-1.8,2-3.9c3,1,4.2,1.2,6.5,1.2c11.1,0,19.2-8.9,19.2-21.1c0-5.6-1.4-9-5.2-13.1
	c-0.1-0.1-0.2-0.2-0.3-0.3c1.4-1.1,3-1.8,4.9-2.3C142.8,24,144.8,22.1,144.8,18.9 M121.7,50.4c-4.5,0-7.4-3.5-7.4-8.8
	s3.1-8.9,7.8-8.9c4.3,0,7.3,3.4,7.3,8.2C129.3,46.3,126.1,50.4,121.7,50.4"/>
<g>
	<path class="st2" d="M326.1,40.3c-2.1,0-4.1-0.6-5.8-1.9l0.7-1c1.5,1.2,3.2,1.8,5.1,1.8c2.9,0,5-1.7,5-4.9v-1.8
		c-1.1,1.6-2.8,2.9-5.3,2.9c-3.1,0-6.1-2.3-6.1-6l0,0c0-3.6,3-6,6.1-6c2.5,0,4.2,1.3,5.3,2.8v-2.5h1.2v10.7
		C332.3,38.1,329.6,40.3,326.1,40.3z M331.1,29.3c0-2.9-2.6-4.8-5.2-4.8c-2.7,0-4.9,1.8-4.9,4.8l0,0c0,2.9,2.3,4.8,4.9,4.8
		C328.5,34.1,331.1,32.2,331.1,29.3L331.1,29.3z"/>
	<path class="st2" d="M343.2,24.7c-2.9,0-5.5,2.2-5.5,6.3v5.2h-1.2V23.6h1.2v3.6c1-2.3,3.1-3.9,5.6-3.8v1.3H343.2z"/>
	<path class="st2" d="M351.5,35.4c2,0,3.3-0.9,4.3-2l0.8,0.7c-1.3,1.4-2.8,2.4-5.2,2.4c-3.3,0-6.2-2.7-6.2-6.6l0,0
		c0-3.7,2.6-6.6,6-6.6c3.5,0,5.8,2.9,5.8,6.6l0,0c0,0.2,0,0.2,0,0.4h-10.5C346.7,33.6,349,35.4,351.5,35.4z M355.7,29.3
		c-0.2-2.6-1.6-4.9-4.5-4.9c-2.5,0-4.4,2.1-4.7,4.9H355.7z"/>
	<path class="st2" d="M368.9,36.2v-2.1c-0.9,1.2-2.4,2.4-4.8,2.4c-2.4,0-4.9-1.3-4.9-4l0,0c0-2.6,2.3-4.1,5.5-4.1
		c1.8,0,3,0.2,4.2,0.5v-0.5c0-2.6-1.6-3.9-4.2-3.9c-1.5,0-2.8,0.4-4,1l-0.4-1.1c1.4-0.6,2.8-1.1,4.5-1.1c3.2,0,5.3,1.7,5.3,5v7.9
		C370.1,36.2,368.9,36.2,368.9,36.2z M369,30.1c-1.1-0.3-2.5-0.6-4.3-0.6c-2.7,0-4.2,1.2-4.2,3l0,0c0,1.8,1.7,2.9,3.7,2.9
		c2.6,0,4.8-1.6,4.8-3.9V30.1z"/>
	<path class="st2" d="M378.4,36.5c-2,0-3.5-1.1-3.5-3.5v-8.3h-1.8v-1.1h1.8v-4h1.2v4h4.4v1.1h-4.4v8.2c0,1.8,1.1,2.5,2.5,2.5
		c0.6,0,1.1-0.1,1.9-0.4v1.1C379.8,36.3,379.2,36.5,378.4,36.5z"/>
</g>
<g>
	<path class="st2" d="M327.2,48.3c-2.9,0-5.5,2.2-5.5,6.3v5.2h-1.2V47.2h1.2v3.6c1-2.3,3.1-3.9,5.6-3.8v1.3H327.2z"/>
	<path class="st2" d="M335.2,59c2,0,3.3-0.9,4.3-2l0.8,0.7c-1.3,1.4-2.8,2.4-5.2,2.4c-3.3,0-6.2-2.7-6.2-6.6l0,0
		c0-3.7,2.6-6.6,6-6.6c3.5,0,5.8,2.9,5.8,6.6l0,0c0,0.2,0,0.2,0,0.4h-10.5C330.5,57.2,332.7,59,335.2,59z M339.5,52.9
		c-0.2-2.6-1.6-4.9-4.5-4.9c-2.5,0-4.4,2.1-4.7,4.9H339.5z"/>
	<path class="st2" d="M356.9,60h-1l-3.8-10.9L348.3,60h-1l-4.6-12.8h1.4l3.8,11.1l3.8-11.2h1l3.8,11.2l3.8-11.1h1.3L356.9,60z"/>
	<path class="st2" d="M373.3,59.9v-2.1c-0.9,1.2-2.4,2.4-4.8,2.4c-2.4,0-4.9-1.3-4.9-4l0,0c0-2.6,2.3-4.1,5.5-4.1
		c1.8,0,3,0.2,4.2,0.5v-0.5c0-2.6-1.6-3.9-4.2-3.9c-1.5,0-2.8,0.4-4,1l-0.4-1.1c1.4-0.6,2.8-1.1,4.5-1.1c3.2,0,5.3,1.7,5.3,5v7.9
		C374.5,59.9,373.3,59.9,373.3,59.9z M373.3,53.7c-1.1-0.3-2.5-0.6-4.3-0.6c-2.7,0-4.2,1.2-4.2,3l0,0c0,1.8,1.7,2.9,3.7,2.9
		c2.6,0,4.8-1.6,4.8-3.9V53.7z"/>
	<path class="st2" d="M385.6,48.3c-2.9,0-5.5,2.2-5.5,6.3v5.2h-1.2V47.2h1.2v3.6c1-2.3,3.1-3.9,5.6-3.8v1.3H385.6z"/>
	<path class="st2" d="M398.7,59.9v-2.8c-1.1,1.7-2.7,3.1-5.2,3.1c-3.1,0-6.2-2.5-6.2-6.6l0,0c0-4.1,3.1-6.6,6.2-6.6
		c2.5,0,4.2,1.4,5.2,3v-8.2h1.2v18.1H398.7z M398.8,53.5c0-3.2-2.5-5.4-5.2-5.4c-2.8,0-5,2-5,5.4l0,0c0,3.3,2.3,5.5,5,5.5
		S398.8,56.8,398.8,53.5L398.8,53.5z"/>
	<path class="st2" d="M408.7,60.1c-1.8,0-3.8-0.7-5.2-1.8l0.7-1c1.4,1.1,2.9,1.7,4.5,1.7c1.7,0,3.1-0.9,3.1-2.4l0,0
		c0-1.5-1.6-2-3.3-2.5c-2.1-0.6-4.3-1.2-4.3-3.5l0,0c0-2,1.7-3.5,4.2-3.5c1.5,0,3.2,0.5,4.5,1.4l-0.6,1c-1.2-0.8-2.6-1.3-3.9-1.3
		c-1.7,0-2.9,0.9-2.9,2.2l0,0c0,1.4,1.7,1.9,3.5,2.5c2,0.6,4.2,1.3,4.2,3.5l0,0C413,58.7,411.1,60.1,408.7,60.1z"/>
</g>
</svg>
