<?xml version="1.0" encoding="utf-8"?>
<!-- Generator: Adobe Illustrator 18.1.1, SVG Export Plug-In . SVG Version: 6.00 Build 0)  -->
<svg version="1.1" xmlns="https://www.w3.org/2000/svg" xmlns:xlink="https://www.w3.org/1999/xlink" x="0px" y="0px"
	 viewBox="0 0 1645.1 828" enable-background="new 0 0 1645.1 828" xml:space="preserve">
<g id="Layer_12">
	<rect x="0" y="0" fill="#FFFFFF" width="1645.1" height="828"/>
</g>
<g id="light">
</g>
<g id="Layer_10">
</g>
<g id="Layer_4_copy">
</g>
<g id="bulb">
</g>
<g id="circle">
</g>
<g id="Layer_13">
	<g>
		<path fill="#003973" d="M376,153.6c138.4,0,250.6,112.2,250.6,250.6S514.4,654.7,376,654.7S125.4,542.5,125.4,404.1
			S237.6,153.6,376,153.6 M376,143.6c-35.2,0-69.3,6.9-101.4,20.5c-31,13.1-58.9,31.9-82.8,55.8c-23.9,23.9-42.7,51.8-55.8,82.8
			c-13.6,32.1-20.5,66.3-20.5,101.4c0,35.2,6.9,69.3,20.5,101.4c13.1,31,31.9,58.9,55.8,82.8c23.9,23.9,51.8,42.7,82.8,55.8
			c32.1,13.6,66.3,20.5,101.4,20.5s69.3-6.9,101.4-20.5c31-13.1,58.9-31.9,82.8-55.8c23.9-23.9,42.7-51.8,55.8-82.8
			c13.6-32.1,20.5-66.3,20.5-101.4c0-35.2-6.9-69.3-20.5-101.4c-13.1-31-31.9-58.9-55.8-82.8c-23.9-23.9-51.8-42.7-82.8-55.8
			C445.3,150.5,411.2,143.6,376,143.6L376,143.6z"/>
	</g>
	<g>
		<defs>
			<circle id="SVGID_1_" cx="376" cy="404.1" r="250.6"/>
		</defs>
		<clipPath id="SVGID_2_">
			<use xlink:href="#SVGID_1_"  overflow="visible"/>
		</clipPath>
		<g clip-path="url(#SVGID_2_)">
			<g>
				<path fill="none" stroke="#003973" stroke-width="5" stroke-miterlimit="10" d="M357.6,719.8L149.5,591.5
					c15-21,57.5-32.1,70.5-33c8.6-0.6,11.7,2.6,18.5,2.5s81.1-17,87.5-32.9c6.4-16,0.4-29.7,0.4-29.7"/>
				<path fill="none" stroke="#003973" stroke-width="5" stroke-miterlimit="10" d="M449.1,539.8c-7.8-3.8-13.5-7.8-15.1-11.7
					c-6.4-16-1.2-29.7-1.2-29.7"/>
				<path fill="none" stroke="#003973" stroke-width="5" stroke-miterlimit="10" d="M402.4,719.8l208.1-128.3
					c-15-21-57.5-32.1-70.5-33c-2.1-0.1-3.9-0.1-5.5,0.2"/>
				<path fill="none" stroke="#003973" stroke-width="5" stroke-miterlimit="10" d="M450.4,471.4c0,0-3.8,20.6,7.2,22.1
					c8.7,1.2,7.3-6,8-21c1-22,12.8-31.2,23.5-46c4.2-5.8,10.8-24.2,2.5-33.5c-7.6-8.6-25.8-5.6-27,22.8
					c-0.8,17.6-6.3,41.2-14.7,56.9c-8.3,15.4-31.6,54.3-67.8,54.8h-3.9c-36.8,0-60.5-38.7-67.8-54.8c-7.4-16.2-14-39.4-14.7-56.9
					c-1.2-28.3-19.4-31.4-27-22.8c-8.2,9.3-1.7,27.7,2.5,33.5c10.8,14.8,22.5,24,23.5,46c0.7,15-0.7,22.2,8,21
					c11-1.5,7.2-22.1,7.2-22.1"/>
				<path fill="none" stroke="#003973" stroke-width="3" stroke-linecap="round" stroke-miterlimit="10" d="M406.8,477.3
					c0,0-10,2.5-15,2.3c-5-0.2-10.8,2-10.8,2s-5.8-2.2-10.8-2c-5,0.2-15-2.3-15-2.3"/>
				<path fill="none" stroke="#003973" stroke-width="2" stroke-linecap="round" stroke-miterlimit="10" d="M371.8,488.4
					c5.1,1.1,13.5,1.8,18.4,0"/>
				<path fill="none" stroke="#003973" stroke-width="6" stroke-miterlimit="10" d="M482,551.8c0,0,53.8-10,52,6.9
					c0,0-31.5,98.8-45.5,144.8"/>
				<path fill="none" stroke="#003973" stroke-width="6" stroke-miterlimit="10" d="M244.5,669.2c0,0-12,5.3,84-30.7
					s120.8-98.6,120.8-98.6s39.2-6.1,32.7,11.9c0,0-25.7,82.7-85.6,151.7"/>
				
					<path fill="none" stroke="#E8D300" stroke-width="6" stroke-linecap="round" stroke-linejoin="round" stroke-miterlimit="10" d="
					M334.5,362.3c-3-4.6-5-12.8-5-22.1c0-14.4,4.8-26.2,10.7-26.2c5.9,0,10.7,11.7,10.7,26.2c0,9.3-2,17.5-5,22.1l-0.1,0
					c-3-4.6-5-12.8-5-22.1c0-14.4,4.8-26.2,10.7-26.2c5.9,0,10.7,11.7,10.7,26.2c0,9.3-2,17.4-5,22.1l-0.1,0c-3-4.6-5-12.8-5-22.1
					c0-14.4,4.8-26.2,10.7-26.2c5.9,0,10.7,11.7,10.7,26.2c0,9.3-2,17.5-5,22.1l-0.2,0c-3-4.6-5-12.8-5-22.1
					c0-14.4,4.8-26.2,10.7-26.2c5.9,0,10.7,11.7,10.7,26.2c0,9.3-2,17.5-5,22.1l-0.1,0c-3-4.6-5-12.8-5-22.1
					c0-14.4,4.8-26.2,10.7-26.2c5.9,0,10.7,11.7,10.7,26.2c0,9.3-2,17.5-5,22.1l-0.1,0c-3-4.6-5-12.8-5-22.1
					c0-14.4,4.8-26.2,10.7-26.2s10.7,11.7,10.7,26.2c0,9.3-2,17.5-5,22.1l-0.1,0c-3-4.6-5-12.8-5-22.1c0-14.4,4.8-26.2,10.7-26.2
					c5.9,0,10.7,11.7,10.7,26.2c0,9.3-2,17.5-5,22.1l-0.2,0c-3-4.6-5-12.8-5-22.1c0-14.4,4.8-26.2,10.7-26.2
					c5.9,0,10.7,11.7,10.7,26.2c0,9.3-2,17.4-5,22.1"/>
				<path fill="none" stroke="#003973" stroke-width="6" stroke-linecap="round" stroke-miterlimit="10" d="M320.6,414.2
					c-2.3-4.3-5-8.4-8.3-12.1c-14.4-16.1-23.2-37.3-23.2-60.6c0-50.2,40.7-90.9,90.9-90.9s90.9,40.7,90.9,90.9
					c0,23.3-8.8,44.6-23.2,60.6c-3.3,3.6-6,7.7-8.3,12.1"/>
				
					<path fill="none" stroke="#003973" stroke-width="6" stroke-linecap="round" stroke-linejoin="round" stroke-miterlimit="10" d="
					M362.8,417.3c9.7,11.2,14.2,28.9,16.2,45h6.9"/>
			</g>
			<g>
				<g>
					
						<line fill="none" stroke="#E8D300" stroke-width="11" stroke-linecap="round" stroke-linejoin="round" stroke-miterlimit="10" x1="494.6" y1="366" x2="535.3" y2="373.2"/>
				</g>
				<g>
					
						<line fill="none" stroke="#E8D300" stroke-width="11" stroke-linecap="round" stroke-linejoin="round" stroke-miterlimit="10" x1="492.4" y1="315.7" x2="532.3" y2="305"/>
				</g>
				<g>
					
						<line fill="none" stroke="#E8D300" stroke-width="11" stroke-linecap="round" stroke-linejoin="round" stroke-miterlimit="10" x1="469.1" y1="271.1" x2="500.8" y2="244.5"/>
				</g>
				<g>
					
						<line fill="none" stroke="#E8D300" stroke-width="11" stroke-linecap="round" stroke-linejoin="round" stroke-miterlimit="10" x1="429.2" y1="240.4" x2="446.6" y2="202.9"/>
				</g>
				<g>
					
						<line fill="none" stroke="#E8D300" stroke-width="11" stroke-linecap="round" stroke-linejoin="round" stroke-miterlimit="10" x1="380" y1="229.5" x2="380" y2="188.2"/>
				</g>
				<g>
					
						<line fill="none" stroke="#E8D300" stroke-width="11" stroke-linecap="round" stroke-linejoin="round" stroke-miterlimit="10" x1="330.8" y1="240.4" x2="313.4" y2="202.9"/>
				</g>
				<g>
					
						<line fill="none" stroke="#E8D300" stroke-width="11" stroke-linecap="round" stroke-linejoin="round" stroke-miterlimit="10" x1="290.9" y1="271.1" x2="259.2" y2="244.5"/>
				</g>
				<g>
					
						<line fill="none" stroke="#E8D300" stroke-width="11" stroke-linecap="round" stroke-linejoin="round" stroke-miterlimit="10" x1="267.6" y1="315.7" x2="227.7" y2="305"/>
				</g>
				<g>
					
						<line fill="none" stroke="#E8D300" stroke-width="11" stroke-linecap="round" stroke-linejoin="round" stroke-miterlimit="10" x1="265.4" y1="366" x2="224.7" y2="373.2"/>
				</g>
			</g>
		</g>
	</g>
	<g>
		<g>
			<path fill="#003973" d="M689.8,329.1c0-2.7,1.9-4.8,4.6-4.8s4.8,1.9,4.8,4.8v13.4c6.3-10.2,15.1-19.7,32.6-19.7
				c17.1,0,27.6,9.8,33,21.1c6.3-10.9,16.9-21.1,35.3-21.1c23.2,0,37.6,16.3,37.6,40.8v55.2c0,2.9-1.9,4.8-4.6,4.8s-4.8-1.9-4.8-4.8
				v-54c0-21.1-10.9-33.4-28.9-33.4c-16.5,0-30.9,12.7-30.9,34.5v52.9c0,2.9-1.9,4.8-4.6,4.8c-2.7,0-4.8-1.9-4.8-4.8v-54.6
				c0-20.3-11.1-32.8-28.6-32.8s-31.2,15.3-31.2,35.1v52.3c0,2.9-1.9,4.8-4.6,4.8c-2.7,0-4.8-1.9-4.8-4.8V329.1z"/>
			<path fill="#003973" d="M865.4,374.3V374c0-27.4,21.3-51.2,50.4-51.2c28.9,0,50,23.4,50,50.8v0.4c0,27.4-21.3,51.2-50.4,51.2
				C886.5,425.1,865.4,401.7,865.4,374.3z M955.7,374.3V374c0-23.6-17.6-42.4-40.2-42.4c-23.2,0-39.9,19-39.9,42v0.4
				c0,23.6,17.6,42.4,40.2,42.4C939,416.3,955.7,397.3,955.7,374.3z"/>
			<path fill="#003973" d="M994.8,329.1c0-2.7,1.9-4.8,4.6-4.8c2.7,0,4.8,1.9,4.8,4.8v14.2c6.5-11.5,17.4-20.5,35.3-20.5
				c24.7,0,39.1,16.9,39.1,40.2v55.8c0,2.9-1.9,4.8-4.6,4.8c-2.7,0-4.8-1.9-4.8-4.8v-54c0-20.1-11.3-33.4-31-33.4
				c-19.2,0-33.9,14.6-33.9,34.9v52.5c0,2.9-1.9,4.8-4.6,4.8c-2.7,0-4.8-1.9-4.8-4.8V329.1z"/>
			<path fill="#003973" d="M1104.2,394.5v-0.4c0-20.3,17.4-31.8,42.7-31.8c13.6,0,23,1.7,32.4,4.2v-4.2c0-19.7-12.1-29.9-32.2-29.9
				c-10.7,0-19.7,2.7-27.8,6.5c-0.8,0.4-1.5,0.6-2.1,0.6c-2.3,0-4.4-2.1-4.4-4.4c0-2.3,1.7-3.8,2.7-4.2c10-4.4,19.7-7.3,32.2-7.3
				c13.2,0,23.8,3.6,30.9,10.7c6.5,6.5,10,15.5,10,27.6v56.9c0,2.9-1.9,4.8-4.6,4.8s-4.6-1.9-4.6-4.8v-12.3
				c-6.7,9.4-18.8,18.6-37.4,18.6C1123.7,425.1,1104.2,414.8,1104.2,394.5z M1179.5,386.2v-11.1c-8.2-2.1-19.2-4.4-33.2-4.4
				c-20.7,0-32.2,9.2-32.2,22.8v0.4c0,14.2,13.4,22.4,28.4,22.4C1162.5,416.3,1179.5,404,1179.5,386.2z"/>
			<path fill="#003973" d="M1222.3,286.9c0-2.7,1.9-4.8,4.6-4.8c2.7,0,4.8,2.1,4.8,4.8v100.8l60-62.1c1-1,1.9-1.3,3.3-1.3
				c2.5,0,4.4,1.9,4.4,4.4c0,1.3-0.4,2.1-1.5,3.3l-35.8,36.4l38.3,47.3c1,1.2,1.3,2.1,1.3,3.5c0,2.7-1.9,4.4-4.6,4.4
				c-1.7,0-2.7-0.6-4-2.1l-37.6-46.4l-23.8,24v19.7c0,2.9-1.9,4.8-4.6,4.8c-2.7,0-4.8-1.9-4.8-4.8V286.9z"/>
			<path fill="#003973" d="M1409.5,418.8c0,2.7-1.9,4.8-4.6,4.8c-2.7,0-4.8-1.9-4.8-4.8v-14.2c-6.5,11.5-17.4,20.5-35.3,20.5
				c-24.7,0-39.1-16.9-39.1-40.2v-55.8c0-2.9,1.9-4.8,4.6-4.8c2.7,0,4.8,1.9,4.8,4.8v54c0,20.1,11.3,33.3,31,33.3
				c19.2,0,33.9-14.6,33.9-34.9v-52.5c0-2.9,1.9-4.8,4.6-4.8c2.7,0,4.8,1.9,4.8,4.8V418.8z"/>
			<path fill="#003973" d="M1438.8,412.1c-0.8-0.6-1.7-2.1-1.7-3.6c0-2.5,2.1-4.6,4.6-4.6c1.2,0,2.3,0.4,3.1,1
				c10.2,7.3,20.9,11.1,32.6,11.1c13.2,0,23.6-7.3,23.6-18.6V397c0-11.5-12.3-15.7-25.9-19.5c-15.9-4.6-33.5-9.4-33.5-26.8v-0.4
				c0-15.7,13.2-27,32.2-27c10.5,0,22.2,3.5,31.6,8.8c1.2,0.8,2.5,2.1,2.5,4.2c0,2.5-2.1,4.6-4.6,4.6c-1.1,0-2.1-0.4-2.7-0.8
				c-8.4-5-17.8-8-27.2-8c-13.4,0-22.2,7.3-22.2,17.1v0.4c0,10.9,13.2,15,27.2,19c15.7,4.4,32.2,10.2,32.2,27.4v0.4
				c0,17.4-14.9,28.6-33.7,28.6C1463.6,424.7,1448.8,419.6,1438.8,412.1z"/>
		</g>
		<g>
			<path fill="#003973" d="M689.8,500.3v-0.1c0-8.6,6.8-16,15.6-16c5.3,0,8.8,2.3,11.5,4.9c0.2,0.2,0.4,0.7,0.4,1.1
				c0,0.8-0.7,1.5-1.5,1.5c-0.4,0-0.8-0.1-1-0.4c-2.5-2.3-5.3-4.3-9.5-4.3c-7,0-12.4,5.8-12.4,13.1v0.1c0,7.4,5.6,13.3,12.6,13.3
				c4,0,7.1-1.9,9.6-4.4c0.2-0.2,0.5-0.5,1-0.5c0.7,0,1.4,0.7,1.4,1.4c0,0.3-0.1,0.7-0.4,0.9c-3.1,3.1-6.6,5.3-11.8,5.3
				C696.6,516.2,689.8,508.9,689.8,500.3z"/>
			<path fill="#003973" d="M723.2,500.3v-0.1c0-8.6,6.7-16,15.8-16c9.1,0,15.7,7.3,15.7,15.9v0.1c0,8.6-6.7,16-15.8,16
				C729.8,516.2,723.2,508.9,723.2,500.3z M751.4,500.3v-0.1c0-7.4-5.5-13.3-12.6-13.3c-7.3,0-12.5,5.9-12.5,13.1v0.1
				c0,7.4,5.5,13.3,12.6,13.3C746.2,513.4,751.4,507.5,751.4,500.3z"/>
			<path fill="#003973" d="M763.7,486.1c0-0.8,0.6-1.5,1.4-1.5c0.8,0,1.5,0.6,1.5,1.5v4.4c2-3.6,5.5-6.4,11-6.4
				c7.7,0,12.2,5.3,12.2,12.6v17.5c0,0.9-0.6,1.5-1.4,1.5c-0.8,0-1.5-0.6-1.5-1.5v-16.9c0-6.3-3.5-10.4-9.7-10.4
				c-6,0-10.6,4.6-10.6,10.9v16.4c0,0.9-0.6,1.5-1.4,1.5c-0.8,0-1.5-0.6-1.5-1.5V486.1z"/>
			<path fill="#003973" d="M798.5,512.1c-0.2-0.2-0.5-0.7-0.5-1.1c0-0.8,0.7-1.4,1.4-1.4c0.4,0,0.7,0.1,1,0.3
				c3.2,2.3,6.5,3.5,10.2,3.5c4.1,0,7.4-2.3,7.4-5.8v-0.1c0-3.6-3.8-4.9-8.1-6.1c-5-1.4-10.5-2.9-10.5-8.4v-0.1
				c0-4.9,4.1-8.5,10.1-8.5c3.3,0,7,1.1,9.9,2.8c0.4,0.2,0.8,0.7,0.8,1.3c0,0.8-0.7,1.4-1.4,1.4c-0.4,0-0.7-0.1-0.8-0.2
				c-2.6-1.6-5.6-2.5-8.5-2.5c-4.2,0-7,2.3-7,5.3v0.1c0,3.4,4.1,4.7,8.5,5.9c4.9,1.4,10.1,3.2,10.1,8.6v0.1c0,5.5-4.7,8.9-10.6,8.9
				C806.2,516.1,801.6,514.4,798.5,512.1z"/>
			<path fill="#003973" d="M855.9,514.2c0,0.8-0.6,1.5-1.4,1.5c-0.8,0-1.5-0.6-1.5-1.5v-4.4c-2,3.6-5.5,6.4-11,6.4
				c-7.7,0-12.2-5.3-12.2-12.6v-17.5c0-0.9,0.6-1.5,1.4-1.5c0.8,0,1.5,0.6,1.5,1.5V503c0,6.3,3.5,10.4,9.7,10.4
				c6,0,10.6-4.6,10.6-10.9v-16.4c0-0.9,0.6-1.5,1.4-1.5c0.8,0,1.5,0.6,1.5,1.5V514.2z"/>
			<path fill="#003973" d="M867.5,472.9c0-0.8,0.6-1.5,1.4-1.5c0.8,0,1.5,0.7,1.5,1.5v41.3c0,0.9-0.6,1.5-1.4,1.5
				c-0.8,0-1.5-0.6-1.5-1.5V472.9z"/>
			<path fill="#003973" d="M883.6,507.6v-20h-3.3c-0.7,0-1.4-0.7-1.4-1.4c0-0.7,0.7-1.3,1.4-1.3h3.3v-8.5c0-0.8,0.6-1.5,1.4-1.5
				c0.8,0,1.5,0.7,1.5,1.5v8.5h9.6c0.7,0,1.4,0.7,1.4,1.4c0,0.7-0.7,1.3-1.4,1.3h-9.6v19.7c0,4.4,2.6,5.9,6.1,5.9
				c2.1,0,3.1-0.6,3.5-0.6c0.7,0,1.3,0.6,1.3,1.3c0,0.6-0.4,1-1,1.3c-1.2,0.4-2.6,0.8-4.3,0.8C887.5,516,883.6,513.4,883.6,507.6z"
				/>
			<path fill="#003973" d="M906.1,474.4c0-1,0.8-1.8,1.8-1.8c1,0,1.9,0.8,1.9,1.8v1c0,1-0.8,1.8-1.9,1.8c-1,0-1.8-0.8-1.8-1.8V474.4
				z M906.4,486.1c0-0.8,0.6-1.5,1.4-1.5c0.8,0,1.5,0.6,1.5,1.5v28.1c0,0.9-0.6,1.5-1.4,1.5c-0.8,0-1.5-0.6-1.5-1.5V486.1z"/>
			<path fill="#003973" d="M920.9,486.1c0-0.8,0.6-1.5,1.4-1.5c0.8,0,1.5,0.6,1.5,1.5v4.4c2-3.6,5.5-6.4,11-6.4
				c7.7,0,12.2,5.3,12.2,12.6v17.5c0,0.9-0.6,1.5-1.4,1.5c-0.8,0-1.5-0.6-1.5-1.5v-16.9c0-6.3-3.5-10.4-9.7-10.4
				c-6,0-10.6,4.6-10.6,10.9v16.4c0,0.9-0.6,1.5-1.4,1.5c-0.8,0-1.5-0.6-1.5-1.5V486.1z"/>
			<path fill="#003973" d="M957.8,521c-0.4-0.3-0.7-0.8-0.7-1.3c0-0.7,0.7-1.4,1.5-1.4c0.4,0,0.6,0.1,0.8,0.2
				c3.5,2.6,7.5,3.9,11.8,3.9c7,0,12-4,12-11.9v-4.4c-2.6,3.8-6.7,7.1-12.8,7.1c-7.4,0-14.7-5.6-14.7-14.4v-0.1
				c0-8.8,7.3-14.5,14.7-14.5c6.1,0,10.3,3.2,12.8,6.8v-4.9c0-0.8,0.6-1.5,1.4-1.5c0.8,0,1.5,0.7,1.5,1.5v24.6
				c0,4.4-1.4,7.9-3.9,10.4c-2.6,2.6-6.6,4.1-11.1,4.1C966.3,525.2,961.7,523.7,957.8,521z M983.4,498.7v-0.1
				c0-7.1-6.3-11.6-12.7-11.6c-6.4,0-11.8,4.4-11.8,11.6v0.1c0,6.9,5.5,11.7,11.8,11.7C977.1,510.4,983.4,505.7,983.4,498.7z"/>
		</g>
		<g>
			<path fill="#003973" d="M1282.7,512.7c-0.2-0.2-0.5-0.6-0.5-1c0-0.7,0.6-1.2,1.2-1.2c0.3,0,0.6,0.1,0.8,0.2
				c2.7,1.9,5.5,2.9,8.5,2.9c3.5,0,6.2-1.9,6.2-4.9v-0.1c0-3-3.2-4.1-6.8-5.1c-4.2-1.2-8.8-2.5-8.8-7v-0.1c0-4.1,3.5-7.1,8.4-7.1
				c2.8,0,5.8,0.9,8.3,2.3c0.3,0.2,0.6,0.5,0.6,1.1c0,0.7-0.5,1.2-1.2,1.2c-0.3,0-0.5-0.1-0.7-0.2c-2.2-1.3-4.7-2.1-7.1-2.1
				c-3.5,0-5.8,1.9-5.8,4.5v0.1c0,2.9,3.5,3.9,7.1,5c4.1,1.2,8.4,2.7,8.4,7.2v0.1c0,4.5-3.9,7.5-8.8,7.5
				C1289.1,516,1285.3,514.6,1282.7,512.7z"/>
			<path fill="#003973" d="M1309.2,481.2c0-0.9,0.7-1.5,1.5-1.5c0.9,0,1.5,0.6,1.5,1.5v0.8c0,0.9-0.7,1.5-1.5,1.5
				c-0.8,0-1.5-0.6-1.5-1.5V481.2z M1309.5,491c0-0.7,0.5-1.2,1.2-1.2s1.2,0.5,1.2,1.2v23.4c0,0.8-0.5,1.2-1.2,1.2
				c-0.7,0-1.2-0.5-1.2-1.2V491z"/>
			<path fill="#003973" d="M1321.6,491c0-0.7,0.5-1.2,1.2-1.2c0.7,0,1.2,0.5,1.2,1.2v3.5c1.7-2.7,4-5.2,8.5-5.2
				c4.5,0,7.2,2.5,8.6,5.5c1.7-2.8,4.4-5.5,9.2-5.5c6,0,9.8,4.2,9.8,10.7v14.4c0,0.8-0.5,1.2-1.2,1.2c-0.7,0-1.2-0.5-1.2-1.2v-14.1
				c0-5.5-2.9-8.7-7.6-8.7c-4.3,0-8.1,3.3-8.1,9v13.8c0,0.8-0.5,1.2-1.2,1.2c-0.7,0-1.2-0.5-1.2-1.2v-14.3c0-5.3-2.9-8.6-7.5-8.6
				c-4.6,0-8.2,4-8.2,9.2v13.7c0,0.8-0.5,1.2-1.2,1.2s-1.2-0.5-1.2-1.2V491z"/>
			<path fill="#003973" d="M1369.2,491c0-0.8,0.5-1.2,1.2-1.2s1.2,0.5,1.2,1.2v4.7c2.2-3.4,5.5-6.3,10.5-6.3c6.2,0,12.4,5,12.4,13.3
				v0.1c0,8.3-6.3,13.4-12.4,13.4c-5.1,0-8.4-2.9-10.5-6.1v12.5c0,0.8-0.5,1.2-1.2,1.2s-1.2-0.5-1.2-1.2V491z M1391.9,502.8v-0.1
				c0-6.7-4.7-11-10-11c-5.3,0-10.4,4.5-10.4,11v0.1c0,6.6,5.1,11,10.4,11C1387.4,513.7,1391.9,509.7,1391.9,502.8z"/>
			<path fill="#003973" d="M1402.5,480c0-0.7,0.5-1.2,1.2-1.2s1.2,0.5,1.2,1.2v34.4c0,0.8-0.5,1.2-1.2,1.2c-0.7,0-1.2-0.5-1.2-1.2
				V480z"/>
			<path fill="#003973" d="M1414.7,481.2c0-0.9,0.7-1.5,1.5-1.5c0.9,0,1.5,0.6,1.5,1.5v0.8c0,0.9-0.7,1.5-1.5,1.5
				c-0.8,0-1.5-0.6-1.5-1.5V481.2z M1415,491c0-0.7,0.5-1.2,1.2-1.2s1.2,0.5,1.2,1.2v23.4c0,0.8-0.5,1.2-1.2,1.2
				c-0.7,0-1.2-0.5-1.2-1.2V491z"/>
			<path fill="#003973" d="M1428.6,492.2h-2.8c-0.7,0-1.2-0.5-1.2-1.2c0-0.6,0.5-1.1,1.2-1.1h2.8v-2.5c0-2.9,0.8-5.2,2.2-6.7
				c1.3-1.3,3.1-2,5.4-2c1.2,0,2.2,0.2,3,0.4c0.5,0.1,1,0.6,1,1.1c0,0.7-0.7,1.2-1.4,1c-0.8-0.1-1.6-0.3-2.6-0.3
				c-3.5,0-5.2,2.1-5.2,6.5v2.5h8c0.7,0,1.2,0.5,1.2,1.2c0,0.6-0.5,1.1-1.2,1.1h-8v22.2c0,0.7-0.5,1.2-1.2,1.2s-1.2-0.5-1.2-1.2
				V492.2z M1445.2,481.2c0-0.9,0.6-1.5,1.5-1.5c0.8,0,1.5,0.6,1.5,1.5v0.8c0,0.9-0.7,1.5-1.5,1.5c-0.9,0-1.5-0.6-1.5-1.5V481.2z
				 M1445.5,491c0-0.7,0.5-1.2,1.2-1.2s1.2,0.5,1.2,1.2v23.4c0,0.8-0.5,1.2-1.2,1.2s-1.2-0.5-1.2-1.2V491z"/>
			<path fill="#003973" d="M1468.4,516.1c-6.7,0-12.5-5.3-12.5-13.3v-0.1c0-7.4,5.2-13.3,12.1-13.3c7.2,0,11.7,5.9,11.7,13.2
				c0,0.6-0.6,1.1-1.2,1.1h-20c0.5,6.4,5,10.1,10,10.1c3.7,0,6.2-1.5,8.2-3.5c0.2-0.2,0.5-0.4,0.8-0.4c0.6,0,1.2,0.5,1.2,1.2
				c0,0.2-0.1,0.5-0.4,0.9C1475.8,514.4,1473,516.1,1468.4,516.1z M1477,501.5c-0.4-5.2-3.3-9.9-9.2-9.9c-5.1,0-9,4.2-9.4,9.9H1477z
				"/>
			<path fill="#003973" d="M1510.5,514.4c0,0.8-0.5,1.2-1.2,1.2s-1.2-0.5-1.2-1.2v-4.7c-2.2,3.3-5.5,6.3-10.5,6.3
				c-6.2,0-12.4-5-12.4-13.3v-0.1c0-8.3,6.3-13.4,12.4-13.4c5.1,0,8.4,2.9,10.5,6.1V480c0-0.8,0.5-1.2,1.2-1.2s1.2,0.5,1.2,1.2
				V514.4z M1487.8,502.6L1487.8,502.6c0,6.8,4.7,11.1,10,11.1c5.3,0,10.4-4.5,10.4-11v-0.1c0-6.6-5.1-11-10.4-11
				C1492.3,491.7,1487.8,495.8,1487.8,502.6z"/>
		</g>
		
			<line fill="none" stroke="#E8D300" stroke-width="5" stroke-linecap="round" stroke-miterlimit="10" x1="689" y1="450.4" x2="1509.1" y2="450.4"/>
		<circle fill="#E8D300" cx="1237.3" cy="502.8" r="7.1"/>
	</g>
</g>
</svg>
