<?xml version="1.0" encoding="UTF-8"?>
<!-- Generator: Adobe Illustrator 16.0.0, SVG Export Plug-In . SVG Version: 6.00 Build 0)  -->
<!DOCTYPE svg PUBLIC "-//W3C//DTD SVG 1.1//EN" "https://www.w3.org/Graphics/SVG/1.1/DTD/svg11.dtd">
<svg version="1.1" id="Layer_1" xmlns="https://www.w3.org/2000/svg" xmlns:xlink="https://www.w3.org/1999/xlink" x="0px" y="0px" width="261.457px" height="67.363px" viewBox="0 0 261.457 67.363" enable-background="new 0 0 261.457 67.363" xml:space="preserve">
<g>
	<g>
		<path fill="#2A728C" d="M33.682,0C15.109,0,0,15.109,0,33.682s15.109,33.682,33.682,33.682c18.572,0,33.682-15.109,33.682-33.682    S52.253,0,33.682,0z"/>
	</g>
	<g>
		<g>
			<path fill="#153E4C" d="M82.076,22.94c2.019,1.056,5.757,2.117,8.042,2.117c1.821,0,2.847-0.463,3.078-1.79     c0.266-1.288-1.72-1.948-3.871-2.547l-1.853-0.627c-5.727-1.722-5.727-5.89-5.727-6.584c0-4.038,3.507-7.014,9.697-7.014     c2.25,0,5.625,0.756,7.246,1.654v4.795c-3.442-1.192-5.591-1.491-7.28-1.491c-2.285,0-3.242,0.932-3.276,2.022     c0,0.197,0.034,0.395,0.133,0.593c0.164,0.366,0.463,0.666,1.158,0.897l1.192,0.361c5.227,1.587,9.298,3.011,8.934,7.974     c-0.429,5.195-4.235,6.721-9.431,6.721c-2.748,0-5.924-0.831-8.042-1.887V22.94z"/>
			<path fill="#153E4C" d="M115.264,6.857h6.353v22.798h-5.958c0.132,0-2.615-6.715-6.851-12.972v12.972h-6.384V6.857h5.955     c2.649,4.071,5.724,8.832,6.885,11.515V6.857z"/>
			<path fill="#153E4C" d="M136.201,30.022c-5.725,0-12.375-3.18-12.375-11.746c0-8.539,6.65-11.78,12.375-11.78     c5.691,0,12.41,3.241,12.41,11.78C148.611,26.843,141.892,30.022,136.201,30.022z M136.201,11.753     c-2.813,0-6.056,1.854-6.056,6.523c0,4.697,3.242,6.482,6.056,6.482c2.781,0,6.057-1.785,6.057-6.482     C142.257,13.606,138.982,11.753,136.201,11.753z"/>
			<path fill="#153E4C" d="M167.5,9.438c1.852,4.004,3.076,7.443,4.17,11.017l3.803-13.598h6.586l-6.852,22.798h-5.689     c-1.225-3.971-2.285-7.478-4.201-11.779c-1.92,4.302-3.047,7.809-4.205,11.779h-5.689l-6.85-22.798h6.584l3.807,13.598     c1.09-3.573,2.314-7.013,4.168-11.017H167.5z"/>
			<path fill="#153E4C" d="M198.894,17.712c2.545,0.429,3.971,2.743,3.971,5.059c0,4.834-3.344,6.885-8.275,6.885h-10.156V6.857     h10.521c2.25,0,6.883,1.26,6.883,6.715C201.837,14.735,201.208,17.085,198.894,17.712z M193.664,16.057     c1.291,0,1.82-1.027,1.82-2.186c0-1.191-0.729-2.084-1.82-2.084h-2.846v4.27H193.664z M190.818,20.455v4.27h3.771     c1.027,0,1.822-0.763,1.822-2.05c0-1.621-1.059-2.22-1.854-2.22H190.818z"/>
			<path fill="#153E4C" d="M220.015,29.655c-0.494-2.084-0.961-3.971-1.488-5.857h-6.65c-0.529,1.887-0.992,3.773-1.49,5.857h-6.354     c2.217-7.546,4.402-14.197,8.438-22.798h5.461c4.037,8.635,6.121,15.252,8.438,22.798H220.015z M213.199,19.297h4.037     c-0.629-1.952-1.256-3.867-2.018-6.12C214.458,15.43,213.828,17.345,213.199,19.297z"/>
			<path fill="#153E4C" d="M234.306,23.268c0,0.763,0.164,1.39,1.191,1.39h7.91v4.998h-9.201c-4.303-0.097-6.121-1.322-6.219-5.229     V6.857h6.318V23.268z"/>
			<path fill="#153E4C" d="M252.357,23.268c0,0.763,0.162,1.39,1.191,1.39h7.908v4.998h-9.199c-4.305-0.097-6.123-1.322-6.221-5.229     V6.857h6.32V23.268z"/>
			<g>
				<path fill="#153E4C" d="M88.065,54.247c0,0.695,0.232,1.288,1.124,1.288h9.367v4.999H87.967      c-4.236-0.097-6.221-1.356-6.221-5.23V37.735h16.811v4.999H88.065v3.637h9.564v4.9h-9.564V54.247z"/>
				<path fill="#153E4C" d="M108.247,60.534h-6.354V37.735h15.057v4.999h-8.703v3.637h8.039v4.9h-8.039V60.534z"/>
				<path fill="#153E4C" d="M126.844,60.534h-6.354V37.735h15.058v4.999h-8.704v3.637h8.04v4.9h-8.04V60.534z"/>
				<path fill="#153E4C" d="M145.171,54.247c0,0.695,0.23,1.288,1.125,1.288h9.365v4.999h-10.59      c-4.234-0.097-6.221-1.356-6.221-5.23V37.735h16.811v4.999h-10.49v3.637h9.564v4.9h-9.564V54.247z"/>
				<path fill="#153E4C" d="M170.181,37.374c3.111,0,6.254,0.396,8.008,0.927v4.795c-4.299-0.628-5.127-0.498-6.451-0.498      c-4.4,0-6.883,2.485-6.916,6.489c0.033,4.003,2.516,6.55,6.916,6.55c1.324,0,2.152,0.13,6.451-0.496v4.8      c-1.754,0.525-4.896,0.927-8.008,0.927c-5.725,0-11.713-4.202-11.713-11.712C158.468,41.609,164.457,37.374,170.181,37.374z"/>
				<path fill="#153E4C" d="M187.283,60.534v-17.8h-6.453v-4.999h19.193v4.999h-6.422v17.8H187.283z"/>
			</g>
		</g>
	</g>
	<g>
		<g>
			<path fill="#FFFFFF" d="M56.864,31.052c-0.631-7.445-7.203-12.985-14.647-12.352c-5.308,0.449-9.646,3.925-11.473,8.577     c-1.331-0.519-2.801-0.75-4.319-0.62c-4.288,0.366-7.691,3.481-8.621,7.459c-0.652-0.182-1.346-0.255-2.059-0.196     c-3.177,0.271-5.544,3.077-5.274,6.251c0.271,3.179,3.077,5.545,6.254,5.273c1.584-0.133,2.971-0.897,3.925-2.03     c1.932,1.794,4.587,2.801,7.413,2.559c2.66-0.226,4.984-1.515,6.586-3.413c2.648,2.235,6.148,3.456,9.863,3.144     C51.957,45.066,57.497,38.498,56.864,31.052z M16.383,41.426c-0.962,0.083-1.809-0.635-1.891-1.597     c-0.082-0.955,0.633-1.807,1.596-1.887c0.96-0.084,1.81,0.634,1.889,1.592C18.058,40.494,17.343,41.346,16.383,41.426z      M27.598,40.485c-2.301,0.195-4.332-1.515-4.525-3.818c-0.197-2.296,1.518-4.327,3.815-4.521     c2.302-0.198,4.333,1.513,4.524,3.816C31.608,38.261,29.898,40.292,27.598,40.485z M43.952,39.111     c-3.812,0.325-7.179-2.51-7.501-6.326c-0.325-3.809,2.516-7.177,6.325-7.5c3.813-0.324,7.178,2.514,7.503,6.328     C50.603,35.424,47.766,38.791,43.952,39.111z"/>
		</g>
	</g>
</g>
</svg>