<?xml version="1.0" encoding="utf-8"?>
<!-- Generator: Adobe Illustrator 18.0.0, SVG Export Plug-In . SVG Version: 6.00 Build 0)  -->
<!DOCTYPE svg PUBLIC "-//W3C//DTD SVG 1.1//EN" "http://www.w3.org/Graphics/SVG/1.1/DTD/svg11.dtd">
<svg version="1.1" xmlns="http://www.w3.org/2000/svg" xmlns:xlink="http://www.w3.org/1999/xlink" x="0px" y="0px"
	 viewBox="0 300 612 188" enable-background="new 0 300 612 188" xml:space="preserve">
<g id="Layer_2">
	<rect y="300" fill="#FFFFFF" width="612" height="188"/>
</g>
<g id="Layer_1">
	<path fill="#E11383" d="M559,371.1c-0.1-0.1-0.2-0.2-0.3-0.3c-0.6-0.5-1.5-1-2.6-1.4c-2.2-0.8-5.4-1.3-9.3-1.5
		c-1.9-0.1-3.9-0.1-6.1,0s-4.5,0.3-6.7,0.6c-2.3,0.3-4.8,0.7-7.1,1.2c-2.2,0.5-4.6,1.1-6.8,1.7c1.2-4.1,1.8-6,2.1-6.9
		c-2.1,0.2-3.2,2.1-3.3,2.3c0,0.1-0.5,0.9-1.7,5.4c-3.8,1.2-7.6,2.5-11,3.8l0.3-0.8l0.5-1.4l0.5-1.4c2.8-8.4,5.8-16.6,8.2-23.3
		c1-3,0.9-7-2.5-7.5l-0.5-0.1c0,0-0.1,0-0.2,0c-0.7,0-2.1,0.4-4,2.6c-1.5,1.7-4.1,5-7.5,9.1c-7.7,9.5-19.2,23.9-31.8,37l-0.7,0.7
		l-0.9,0.1c-12.1,1.5-26.2,5.9-38.6,12.1c-12,5.9-20.6,12.5-23.1,17.8c-2,4,1.4,4.9,4.6,4.9c8.8,0,18.3-2.9,28.2-8.6
		c8.7-5,17.6-12,26.3-20.7l0,0l0,0c0.8-0.8,1.7-1.8,2.6-2.7c0.4-0.4,0.7-0.7,1-1.1l0.8-0.8l1-0.1c1.4-0.1,2.8-0.2,4.1-0.2
		c3.6,0,7.3,1.2,5.6,4.8c-1.6,3.3-3.8,5.2-4.6,5.9c2-0.5,6-3.7,7.7-7.2c0.3-0.6,1-2.1-1.3-3.3c-1.4-0.7-3.6-1.1-6.3-1.1
		c-0.5,0-0.9,0-1.4,0c-0.5,0-0.9,0.1-1.4,0.1h-2.5l2.1-2.2c9.5-10.4,19.3-22.2,26.6-30.8c4.4-5.2,7.8-9.3,9.6-11.4
		c1.3-1.4,2.5-2.1,3.5-2.1c1,0,2,0.5,1.1,2.7c-1.3,4.7-3.9,11.9-6.9,20.3c-0.7,2-1.4,3.9-2.1,6l-0.6,1.5l-0.5,1.4l-0.6,1.6
		c-3.1,1.3-6,2.5-8.6,3.7c-6.7,3.1-11,5.4-11,5.4c-0.2,0.1-0.3,0.4-0.2,0.7c0.1,0.2,0.4,0.3,0.7,0.2c0,0,4.4-2.3,11.1-5.2
		c2.2-1,4.8-2.1,7.6-3.2c-3.2,9.1-7.2,21.3-8.6,28.8c-1,5.5-1.2,12.1,3.7,12.2c-0.1-0.2-0.2-0.6-0.4-0.9c-1.8-4.4,1.1-18.3,8.5-41.3
		c3.6-1.3,7.3-2.6,11.1-3.7l-1.2,4.5l-4.6,17.1l-0.6,2c-1.6,1-2.8,2.1-3,3.1c0,0-0.1,0.7,1.9,1.4l-1.5,5.5l-1.3,4.8l-2.7,10l0,0l0,0
		l-0.2,0.6c-4.2,1.4-8.1,3.4-10.7,5c-7.7,4.6-12.6,10-13.7,14.5c-1.9,7.1,8.2,7.8,12.7,7.8c36.7,0,58.6-20.5,60.6-28.2
		c3.2-12.1-11.8-16.1-25.1-18.2l-5.5-0.8c-6.4-0.9-9.5-1.5-8.9-3.9c0.6-2.1,3.2-3.5,11.2-6.2l6.3-2.1c10.7-3.6,28.4-9.6,29.9-15.5
		C560.7,374,560.8,372.5,559,371.1z M464.4,395.1c-3,3-6,5.7-8.2,7.8l0,0l0,0c-7.7,6.8-15.1,12.1-22.3,15.8c-7.7,3.9-14.7,6-20.9,6
		l0,0l0,0c-4,0-4.6-2.6-3.4-5c4.5-9.3,32.4-23.2,54.3-26.9l3.6-0.6L464.4,395.1z M521.3,404.4l0.6,0.1l5.5,0.8
		c5.2,0.8,11.7,2.1,16.3,4.7c5,2.7,7,6.6,5.7,11.5c-1.9,6.9-9.3,13.9-20.4,19.2c-10.7,5.2-23.6,8.2-35.2,8.2
		c-7.8,0-12.2-3.1-10.7-7.9c1.8-5.3,8.4-12.8,20.2-16.5l-0.8,2.8c-1.8,6.7-3.3,11.7-4,13.3h0.1c2.2,0,4.2-2.9,4.6-4.1l0.1-0.2
		c0.1-1,0.7-3.6,2.3-10l0.7-2.5c0.6-0.2,1.1-0.3,1.7-0.4l0,0l0,0l6.2-1h0.1h0.1c1.3-0.1,2.7-0.2,4.1-0.2c2.9,0,4.9,0.4,5.8,0.6
		c0.2-0.8,0-2.1-6-2.1c-1,0-2.2,0.1-3.4,0.2l-5.9,0.8c-0.8,0.2-1.7,0.4-2.5,0.6l0.2-0.6l0,0l0,0l2.2-8.3l1.3-4.8l1.5-5.6
		C514.1,403.4,517.5,403.9,521.3,404.4z M532,388.8l-6.3,2.1c-3,1-8.3,2.9-12.4,5l0.7-2.4c1.5-5.6,3-11,4.3-15.6l1.3-4.5v-0.1
		c0.2-0.1,0.4-0.1,0.6-0.2c2.3-0.7,4.8-1.2,7.1-1.7c1.8-0.4,3.6-0.7,5.2-0.8l2.1-0.3c2.1-0.2,4.2-0.2,6.2-0.2c2.1,0,4.1,0.1,5.9,0.3
		c3.5,0.3,6.3,0.9,8,1.6c0.8,0.4,1.6,0.9,1.8,1.7c0.1,0.3,0.1,0.6,0,0.9c0,0.1,0,0.3-0.1,0.4c0,0.1,0,0.2-0.1,0.3
		C555,380.6,545.5,384.2,532,388.8z"/>
	<g>
		<path fill="#E11383" d="M134,356.2L134,356.2L134,356.2z"/>
		<path fill="#E11383" d="M61,417.5c8.4,0,22.1-3.7,39.3-21.3c0.7-0.7,1.2-1.3,1.9-2c0.3-0.3,0.5-0.6,0.7-0.8l0.5-0.5h0.6
			c0.9-0.1,2-0.1,3-0.1c0.6,0,5.4,0.1,4,3.3c-1.1,2.4-2.8,3.9-3.2,4.2c-0.2,0.2-0.3,0.3-0.4,0.3h0.1c1.4,0,4.8-2.6,6.1-5.5
			c1.5-3.3-4.9-3.4-5.6-3.4c-0.4,0-0.7,0-1,0s-0.7,0-1,0h-1.4l1.2-1.3c6.7-7.5,13.7-16.1,18.8-22.3c3.1-3.7,5.5-6.7,6.8-8.2
			c0.8-0.9,1.6-1.4,2.1-1.4c0.9,0,1.1,0.6,0.7,1.8c-0.8,3.2-2.6,8.4-4.7,14.5c-0.5,1.4-0.9,2.9-1.5,4.3l-0.3,0.8l-0.5,1.5l-0.3,0.9
			c-0.2,0.1-0.3,0.1-0.5,0.2c-1.9,0.7-3.7,1.3-5.4,2c-1.7,0.7-3.3,1.3-4.7,2c-2.7,1.2-4.4,2.1-4.4,2.1c-0.1,0.1-0.2,0.2-0.1,0.3
			c0.1,0.1,0.2,0.2,0.4,0.1c0,0,1.8-0.8,4.5-2c1.3-0.6,2.9-1.2,4.7-1.8c1.7-0.6,3.4-1.2,5.1-1.8c-2.1,6.5-5,15.3-5.8,20.7
			c-0.7,4.1-0.7,9.1,3.2,9.1c0.1,0,0.2,0,0.3,0c0-0.2-0.1-0.5-0.3-1c-1.3-3.2,0.6-13.1,5.6-29.5c0.1,0,0.1,0,0.2,0
			c0.5-0.1,0.9-0.2,1.4-0.4c0.5-0.1,0.9-0.3,1.3-0.4c1.8-0.6,3.4-1.1,4.8-1.5c0.7-0.2,1.3-0.5,1.9-0.7c0.1,0,0.2-0.1,0.3-0.1
			l-0.1,0.3l-0.4,1.3c-1.1,3.9-2.3,8.4-3.6,13.3c-0.6,2.1-1,4-1.5,5.8c-0.5,1.8-0.8,3.4-1.3,5.1c-0.6,2.1-2.1,8.8,2,8.8
			c3.3,0,7.4-4,10.1-7.8c1-1.5,2.1-3.1,2.7-4.5c-0.6,2.1-0.9,3.5-1,3.5c-1.5,5.7-0.9,8.5,1.7,8.5c3.3,0,7.3-3.9,9.9-7.6
			c0.6-0.8,1.1-1.7,1.7-2.5c-1,5.2-0.1,8.7,2.5,8.7c1.9,0,4.1-0.6,8.3-6.8l0,0l0,0c0.4-0.5,0.8-0.7,1.3-0.7c0.6,0,0.9,0.4,0.7,1.2
			c-1.3,5.4-0.7,8,1.9,8s6.1-2.9,9.5-7.8c2.1-2.9,3.6-5.9,4.1-7.7c0.2-0.7,0.1-1.3,0-1.6c-0.9,1.8-2.4,4.5-4.1,6.9
			c-3.6,5.4-6.2,7.9-8.2,7.9c-2.3,0-2.4-3.5-0.3-11.7c2.1-7.8,5.7-17.5,6.3-19.1c-2.1,0-2.1,0.4-3,2.6c-0.1,0.4-0.3,0.7-0.4,1h0.2
			l-0.1,0.2c-0.4,0.5-0.9,0.7-1.1,0.7h-0.1h-0.1c-7.8,0.7-13.3,5.2-16.3,13.5c-0.8,1.5-1.9,3.2-2.9,4.8c-1.9,2.9-5.5,7.8-8.2,7.8
			c-3.1,0-1.7-5.3-0.9-8.2c2.1-8,4.1-13.6,4.9-16c0.1-0.3,0.2-0.6,0.3-0.8c-2.4,0-4.6,1.3-4.9,1.9h0.1l0,0l0,0c1.4,0.6,1,2,0.8,2.6
			c-0.5,1.7-1,3.8-1.6,5.9c-0.9,1.8-2.4,4.4-4,6.8c-3.6,5.3-6.4,8-8.4,8c-3.1,0-1.8-5.1-0.7-9.6c0.1-0.5,3.1-12.4,3.3-13l2.6-9.7
			l0.2-0.6l0.6-0.3c8.1-3.7,15.4-11.4,17.3-18.2c1.3-4.8-1.7-4.8-2.7-4.8c-5.3,0-9.7,4.4-11.9,8.1c-0.8,1.5-2.4,5.1-5,13.9l-0.1,0.4
			c-0.3,0.1-0.7,0.2-1.1,0.4c-0.6,0.2-1.2,0.4-1.9,0.7c-1.4,0.5-3,0.9-4.8,1.5c-0.5,0.1-0.8,0.3-1.3,0.4c-0.3,0.1-0.6,0.2-0.7,0.3
			l0.1-0.5l0.5-1.4l0.3-0.8c2.1-6.6,4.3-13.1,6.1-18c0.9-2.7-1-4.1-2.5-4.3H134l-0.1-0.1c0,0-0.1,0-0.2,0c-0.6,0-1.7,0.3-3.2,2
			c-1.1,1.2-3,3.6-5.3,6.5c-5.4,6.8-13.5,17.2-22.4,26.7l-0.5,0.5l-0.6,0.1c-8.7,1.1-18.9,4.3-27.8,8.7c-8.6,4.3-14.9,9.2-16.6,13.1
			C56.7,415.4,56.7,417.5,61,417.5z M176.3,387.1c0.8,0,1.2,0.5,1,1.3c-2.2,8.5-8.3,20.7-13.3,20.7c-2.8,0-2.8-3.8-1.9-7.4
			C165.4,389.7,171.6,387.1,176.3,387.1z M142.5,375.6c2.3-7.9,4.1-12.1,6.1-14.6c1.9-2.4,4.9-3.9,6.5-3.9c0.9,0,2.9,0.4,2,3.9
			c-1.5,5.6-6.8,11.8-13.4,15.4l-1.7,0.8L142.5,375.6z M60.7,412.6c3.1-6.6,22.9-16.5,38.6-19.2l2.1-0.4l-1.7,1.7
			c-2.1,2.1-4.2,4.1-5.8,5.6c-11.1,10.1-22.1,15.6-30.7,15.6l0,0C61.7,416,59.5,415.2,60.7,412.6z"/>
		<path fill="#E11383" d="M152.8,379c-0.4,1.2,0.2,2.3,1,2.3c0.8,0,2-1.1,2.2-2.3c0.4-1.3-0.1-2.4-1-2.4
			C154.2,376.7,153.1,377.7,152.8,379z"/>
		<path fill="#E11383" d="M342.5,371.1L342.5,371.1c-2.7,0.6-13.2,0.6-16.4,0.6h-0.9l0.3-0.9c0.5-1.6,0.9-3.1,1.3-4.4
			c0.7-2.1,1.1-3.6,1.3-4.3c0.2-0.8-1.2-1-1.5-1.1c-0.6,0-0.8,0.3-1,0.7c-0.4,1.9-1.3,5.2-2.3,9.2l-0.3,0.9h-11.2l0.3-0.9
			c0.5-1.6,0.9-3.1,1.3-4.3c0.7-2.1,1.1-3.7,1.3-4.4c0.2-0.8-1.2-1-1.5-1.1c-0.6,0-0.8,0.3-1,0.7c-0.4,1.9-1.3,5.2-2.3,9.2l-0.3,0.9
			h-0.9h-4.5c-1.6,0-2.7,1.1-3.3,1.7h0.2c1-0.1,4.2-0.2,5.6-0.2l2.5-0.1l-0.3,0.9c-0.6,1.9-1.1,3.9-1.7,6c-1.4,5-2.9,10.3-4.2,15.2
			c-0.2,0.7-0.4,1.5-0.7,2.2c-0.9,1.8-2.2,4-3.6,6.2c-3.6,5.4-6.2,7.9-8.2,7.9c-2.3,0-2.4-3.5-0.3-11.7c2.1-7.8,5.7-17.5,6.3-19.1
			c-2.1,0-2.1,0.4-3,2.6c-0.1,0.4-0.3,0.7-0.4,1l-0.1,0.2l-0.1,0.2c-0.4,0.5-0.9,0.7-1.1,0.7h-0.1h-0.1c-7.8,0.7-13.3,5.2-16.3,13.5
			c-0.8,1.5-1.9,3.2-2.9,4.8c-5.3,7.9-7.6,7.9-8.3,7.9c-3,0-1.7-5-0.5-9.5c0.9-3.3,2.1-6.7,2.8-9.1c0.5-1.3,0.7-2.3,0.8-2.7
			c0.5-1.6,0.7-4.4-0.8-4.4c-3.3,0-9.8,7.4-13.1,12.1c-0.2,0.3-0.7,0.9-1.4,0.9c-0.7,0-0.9-0.5-0.8-1.3v-0.1v-0.1l4.9-18.3l0.2-0.6
			l0.6-0.3c8.6-3.7,15.7-11.3,17.5-17.8c0.8-3.2-0.1-4.8-2.7-4.8c-5.4,0-9.8,4.4-12,8.1c-1.1,2.1-2.6,6.4-4.7,13.7l-0.2,0.7
			l-0.7,0.2c-2.1,0.7-4.3,1.1-6.4,1.1c-2.4,0-5-1.1-4.1-4.3c0.9-3.6,3.9-5.5,5.7-6.5c0.4-0.3,0.9-0.6,1.1-0.7c0-0.1,0-0.1,0-0.2l0,0
			c0,0-0.1,0-0.5,0c-2,0-7.2,2.7-8.6,8c-0.8,3.3,1.2,5.1,5.7,5.1c2,0,3.8-0.3,5.9-0.9l1.3-0.4l-0.4,1.3l-3.6,13.5
			c-1.8,6.4-3.7,13.5-4.2,14.9v0.2c-0.2,0.6,0.1,1.4,0.7,1.4c0.2-0.2,0.7-1,1-1.8c0.4-0.7,0.7-1.5,1.3-2.4c1.1-1.9,3.9-6.1,6.7-9.7
			c5.6-7.3,7.1-7.3,7.8-7.3c1.8,0,1.3,1.8,0.3,5.7c-1.1,4.2-2.9,9.9-3,10c-1.5,5.7-1,8.5,1.7,8.5c2.7,0,6.4-2.9,9.9-7.7
			c0.6-0.8,1.1-1.7,1.6-2.4c-1,5.2-0.1,8.6,2.6,8.6c1.9,0,4.1-0.6,8.3-6.8l0,0l0,0c0.4-0.5,0.8-0.7,1.3-0.7c0.6,0,0.9,0.4,0.7,1.2
			c-1.3,5.4-0.7,8,1.9,8c2.5,0,6.1-2.9,9.5-7.8c0.9-1.3,1.8-2.7,2.4-3.9c-0.5,1.9-0.8,3.2-0.9,3.2c-1.5,5.7-0.9,8.5,1.7,8.5
			c3.2,0,7.5-4,10.1-7.8c0.9-1.3,1.8-2.7,2.4-3.9c-0.5,1.9-0.9,3.2-0.9,3.3c-1.5,5.7-0.9,8.5,1.7,8.5c3.2,0,7.5-4,10.1-7.8
			c2.1-2.9,3.6-6,4.1-7.7c0-0.2,0.1-0.3,0.1-0.5c0.1,0.5,0.2,1.1,0.4,1.9c0.4,2.1,0.7,5.3,0.5,9.5c-0.1,2.1-0.5,4.5-1.1,7
			c-0.7,2.5-1.8,5.3-3.6,8c-1.8,2.7-4.2,5.3-7.2,7.4c-3,2.1-6.5,3.7-10.3,5c-3.7,1.2-7.7,2-11.7,2.4c-4,0.5-8.2,0.7-12.4,0.6
			c-8.4-0.1-17.1-1-25.9-2.5c-8.8-1.4-17.7-3.4-26.6-5.5c-4.6-1-9.1-2-13.6-3c-2.3-0.5-4.6-1-6.9-1.5s-4.7-0.8-7-1.2
			c-4.7-0.7-9.4-1.6-14.1-2.3c-4.8-0.6-9.5-1.1-14.3-1.6c-1.2-0.1-2.3-0.3-3.6-0.4l-1.8-0.2l-1.8-0.1c-2.4-0.2-4.8-0.3-7.1-0.5
			c-4.8-0.3-9.3-0.7-14-0.6c-2.3,0-4.7,0-6.9-0.1c-1.1,0-2.2,0-3.5,0h-1.7l-1.7,0.1c-4.6,0.2-9,0.4-13.3,0.6
			c-4.4,0.4-8.6,0.7-12.7,1.1c-2.1,0.2-4.1,0.6-6.1,0.7c-2,0.3-3.9,0.6-5.9,0.8c-7.7,1.2-14.8,2.7-21,4.3
			c-6.3,1.6-11.8,3.3-16.3,4.8c-4.5,1.6-7.9,3-10.4,4c-1.2,0.6-2.1,0.9-2.7,1.2c-0.6,0.3-0.9,0.5-0.9,0.5c-0.1,0.1-0.2,0.2-0.2,0.3
			c0,0.1,0.2,0.2,0.3,0.1l0,0c0,0,0.3-0.2,0.9-0.5c0.6-0.3,1.5-0.7,2.7-1.2c2.3-1,5.9-2.4,10.3-3.9c4.5-1.5,9.9-3.1,16.2-4.6
			c6.3-1.5,13.3-2.9,20.9-4c1.9-0.3,3.8-0.5,5.9-0.7c2-0.3,4-0.6,6.1-0.7c4.1-0.4,8.3-0.7,12.6-1c4.3-0.1,8.7-0.3,13.2-0.4l1.7-0.1
			h1.7c1.1,0,2.2,0,3.4,0.1c2.2,0,4.6,0.1,6.9,0.1c4.7,0,9.3,0.5,13.9,0.7c2.3,0.2,4.7,0.4,7.1,0.5l1.8,0.1l1.8,0.2
			c1.1,0.2,2.3,0.3,3.6,0.5c4.7,0.6,9.4,1.2,14.1,1.8c4.7,0.8,9.3,1.7,13.9,2.5c2.3,0.5,4.7,0.8,7,1.3c2.2,0.6,4.6,1,6.8,1.6
			c4.6,1,9.1,2.1,13.5,3.2c8.9,2.3,17.8,4.3,26.6,5.8c8.9,1.4,17.7,2.3,26.3,2.3c4.3,0,8.6-0.3,12.8-0.7c4.2-0.6,8.3-1.4,12.2-2.7
			c3.9-1.3,7.8-3.2,11-5.6c3.3-2.3,6-5.3,7.8-8.3c1.9-3,2.9-6,3.6-8.6c0.7-2.7,0.8-5.1,0.8-7.3c0.1-4.3-0.5-7.5-0.9-9.5
			c-0.5-2.1-0.8-3.2-0.8-3.2c0-0.1-0.2-0.2-0.4-0.1c-0.2,0.1-0.3,0.3-0.2,0.4c0,0,0,0.1,0.1,0.4c-0.9,1.8-2.4,4.3-3.9,6.7
			c-2.4,3.6-5.9,8-8.5,8c-3,0-1.6-5.3-0.8-8.2c2.3-9,2.4-9.3,2.5-9.7c1.3-5,3.8-13.6,5.8-20.1l0.3-0.9h0.9c4.6-0.1,9.3-0.1,12.2-0.1
			C339.8,372.8,342,372.5,342.5,371.1L342.5,371.1z M257.5,375.7c2.1-7.3,3.5-11.6,5.9-14.6c1.9-2.4,4.9-3.9,6.6-3.9
			c0.9,0,2.9,0.4,2,3.9c-1.5,5.6-6.7,11.6-13.3,15.3l-1.8,1L257.5,375.7z M278.8,409.3c-2.8,0-2.8-3.8-1.9-7.4
			c3.3-12.1,9.5-14.8,14.2-14.8c0.8,0,1.2,0.6,0.9,1.3C289.8,397,283.8,409.3,278.8,409.3z M322.4,374c-0.6,1.9-1,3.8-1.7,5.9
			c-1.4,5.1-2.9,10.4-4.3,15.4c-0.2,0.7-0.4,1.5-0.7,2.2c-0.9,1.8-2.2,4-3.6,6.2c-2.4,3.6-5.9,8-8.5,8c-3,0-1.6-5.3-0.8-8.2
			c2.3-9,2.4-9.3,2.5-9.7c1.4-5.2,4.2-14.9,5.8-20.1l0.3-0.8h11.2L322.4,374z"/>
		<path fill="#E11383" d="M201.7,414.4c26.6,0,42.4-14.9,43.9-20.6c2.3-8.9-8.5-11.8-18.2-13.4l-3.9-0.6c-0.8-0.1-1.6-0.3-2.2-0.4
			l-0.7-0.1l0.2-0.7l1-3.8l0.2-0.7l0.7-0.3c0.7-0.3,1.6-0.6,2.6-0.9l4.5-1.6c7.7-2.6,20.6-7,21.8-11.3c0.4-1.2,1.3-5-11.3-5
			c-1.9,0-3.7,0.1-5.6,0.2l-4.4,0.5c-0.7,0.1-1.5,0.2-2.2,0.3l-1.1,0.2l0.3-1.1c1-3.7,1.5-5,1.7-5.6c0,0,0,0-0.1,0
			c-1.8,0-2.7,1.7-2.8,1.9c0,0.1-0.4,0.7-1.4,4.6l-0.2,0.8l-0.7,0.2c-7.4,1.7-12.1,4.4-12.9,7.4c-0.3,0.9-0.3,3.6,2.9,3.6
			c0.1,0,0.3-0.1,0.3-0.1c0-0.1,0-0.1-0.2-0.4c-0.3-0.5-0.7-1.1-0.2-2.5c0.7-2.3,3.9-4.7,9.1-6.2l1.3-0.4l-0.4,1.3l-0.1,0.4
			l-3.3,12.3l-0.3,0.9l-0.2,0.6l-0.6,0.3c-3.9,1.7-6,3.2-6.4,4.5c-0.1,0.4,0.2,1.2,4.4,2.1l0.7,0.2l-0.2,0.7l-0.7,2.8l-2,7.2v0.1
			l-0.2,0.7l-0.7,0.2c-11.1,3.7-20.2,10.6-21.7,16.1C191,413.8,198.5,414.4,201.7,414.4z M222.6,371.3l0.2-0.7
			c1.1-4.1,2.1-7.9,3.1-11.2l0.3-0.9l0.2-0.7l0.7-0.2c0.7-0.2,1.6-0.3,2.4-0.4l4.3-0.5l0,0l0,0c1.7-0.1,3.2-0.1,4.8-0.1
			c5.4,0,10.3,0.5,9.4,3.6c-1,3.7-7.8,6.3-17.4,9.5l-4.6,1.6c-0.8,0.3-1.7,0.7-2.6,0.9l-1.4,0.6L222.6,371.3z M195.7,407.5
			c1-3.6,6.6-9.2,17.1-13.2l1.4-0.6l-0.4,1.4c-1.3,4.8-2.3,8.2-2.8,9.3v0.1v0.1v0.1c0.1,0,0.2,0,0.4,0c1.8,0,3.3-2.2,3.6-3.2
			l0.1-0.2c0.1-0.7,0.5-2.5,1.7-7.2l0.1-0.5l0.2-0.7l0.7-0.2c0.8-0.2,1.7-0.5,2.4-0.6l0,0l0,0l4.5-0.7h0.1h0.1
			c0.9-0.1,2-0.1,2.9-0.1c2.2,0,3.6,0.3,4.3,0.5l0,0c0-0.1,0.1-0.1,0.1-0.2c0.2-0.7,0.5-1.8-4.5-1.8c-0.7,0-1.6,0.1-2.4,0.1
			l-4.2,0.6c-0.7,0.2-1.6,0.4-2.4,0.6l-1.2,0.3l0.3-1.2l1.4-5.3l0.7-2.8l0.3-1.1l1,0.2c0.7,0.1,1.2,0.2,1.9,0.3l0.4,0.1l3.9,0.7
			c8.9,1.5,17.7,4,15.6,11.4c-2.7,10-22,19.5-39.7,19.5C197.6,413,194.7,410.9,195.7,407.5z"/>
	</g>
</g>
</svg>
