<?xml version="1.0" encoding="utf-8"?>
<!-- Generator: Adobe Illustrator 18.1.1, SVG Export Plug-In . SVG Version: 6.00 Build 0)  -->
<svg version="1.1" xmlns="http://www.w3.org/2000/svg" xmlns:xlink="http://www.w3.org/1999/xlink" x="0px" y="0px"
	 viewBox="0 0 1024 300" enable-background="new 0 0 1024 300" xml:space="preserve">
<g id="Layer_2">
	<rect fill="#FFFFFF" width="1024" height="300"/>
</g>
<g id="Layer_1">
	<g>
		<g>
			<path fill="#3A3A3F" d="M288.2,51H330c6.2,0,11.5,0.8,15.7,2.3c4.2,1.6,7.6,3.6,10.1,6.1c2.5,2.5,4.4,5.4,5.5,8.7
				c1.1,3.3,1.7,6.6,1.7,9.9c0,2.8-0.5,5.5-1.5,8c-1,2.5-2.4,4.8-4.2,6.7c-1.8,2-4,3.6-6.4,4.9c-2.5,1.3-5.2,2.2-8.3,2.6l0.3,0.3
				c0.7-0.1,2.3,0.2,4.8,0.9c2.5,0.7,5.2,2,8,3.9c2.8,1.9,5.3,4.5,7.5,7.9c2.2,3.4,3.3,7.7,3.3,13c0,4.8-0.9,9-2.6,12.6
				c-1.8,3.6-4.2,6.7-7.4,9.1s-7,4.4-11.5,5.6c-4.5,1.3-9.5,1.9-14.9,1.9h-41.9V51z M330,98.4c8.9,0,15.5-2,19.9-5.9
				c4.4-4,6.6-9.1,6.6-15.6c0-3.8-0.7-7-2.2-9.6c-1.5-2.6-3.4-4.7-5.9-6.3c-2.4-1.6-5.2-2.8-8.4-3.4c-3.2-0.7-6.5-1-10-1h-35.4v41.9
				H330z M330,149.9c9.4,0,16.7-2,22-5.9c5.3-4,8-9.9,8-17.8c0-4.5-0.9-8.2-2.8-11c-1.9-2.9-4.2-5.1-7.1-6.8
				c-2.9-1.7-6.1-2.8-9.7-3.4c-3.6-0.6-7-1-10.5-1h-35.4v46H330z"/>
			<path fill="#3A3A3F" d="M380.4,51h6.4v98.9h59.3v5.6h-65.7V51z"/>
			<path fill="#518AB0" d="M455.6,51v62.6c0,2,0.1,4.4,0.3,7.2c0.2,2.7,0.7,5.5,1.5,8.4c0.8,2.9,1.9,5.7,3.3,8.5
				c1.4,2.8,3.3,5.3,5.8,7.5c2.4,2.2,5.4,4,9,5.3c3.6,1.3,7.9,2,13,2c6.4,0,11.8-0.9,16.2-2.7c4.3-1.8,7.9-4.4,10.5-7.8
				c2.7-3.4,4.6-7.4,5.8-12.2c1.2-4.8,1.8-10.1,1.8-16.1V51h6.4v62.6c0,6.2-0.7,12.1-2,17.4c-1.3,5.4-3.5,10-6.7,14
				c-3.1,4-7.3,7.1-12.5,9.4c-5.2,2.3-11.7,3.4-19.5,3.4c-6.1,0-11.4-0.8-15.8-2.3c-4.4-1.6-8-3.6-10.9-6.1
				c-2.9-2.5-5.1-5.3-6.8-8.6c-1.7-3.2-2.9-6.5-3.8-9.7c-0.9-3.3-1.4-6.4-1.6-9.5c-0.2-3.1-0.3-5.8-0.3-8.1V51H455.6z"/>
			<path fill="#3A3A3F" d="M547.5,51h9.2l40.8,97.3h0.3L638.2,51h9.2v104.5H641V58.9h-0.3l-39.8,96.6h-6.4l-40.2-96.6h-0.3v96.6
				h-6.4V51z"/>
			<path fill="#3A3A3F" d="M665.9,51h70.2v5.6h-63.8v41.9h60v5.6h-60v46h64.5v5.6h-71V51z"/>
		</g>
		<g>
			<g>
				<path fill="#3A3A3F" d="M315,244.6h0.2l23.2-54h4.1l-25,57h-4.8l-24.9-57h4.3L315,244.6z"/>
				<path fill="#3A3A3F" d="M347.1,190.6h45v3h-40.9v22.9h38.5v3h-38.5v25.1h41.4v3h-45.5V190.6z"/>
				<path fill="#3A3A3F" d="M399.6,190.6h5.2l42.3,52.3h0.2v-52.3h4.1v57h-4.9l-42.6-52.7h-0.2v52.7h-4.1V190.6z"/>
				<path fill="#3A3A3F" d="M455.9,193.6v-3h51.3v3h-23.6v54h-4.1v-54H455.9z"/>
				<path fill="#3A3A3F" d="M516,190.6v34.2c0,1.1,0.1,2.4,0.2,3.9c0.1,1.5,0.4,3,0.9,4.6c0.5,1.6,1.2,3.1,2.1,4.6
					c0.9,1.5,2.1,2.9,3.7,4.1c1.6,1.2,3.5,2.2,5.8,2.9c2.3,0.7,5,1.1,8.3,1.1c4.1,0,7.6-0.5,10.4-1.5c2.8-1,5-2.4,6.8-4.2
					c1.7-1.8,3-4.1,3.7-6.7c0.8-2.6,1.1-5.5,1.1-8.8v-34.2h4.1v34.2c0,3.4-0.4,6.6-1.3,9.5c-0.8,2.9-2.3,5.5-4.3,7.7
					c-2,2.2-4.7,3.9-8,5.2c-3.3,1.3-7.5,1.9-12.5,1.9c-3.9,0-7.3-0.4-10.1-1.3c-2.8-0.9-5.1-2-7-3.3c-1.8-1.4-3.3-2.9-4.4-4.7
					c-1.1-1.8-1.9-3.5-2.4-5.3c-0.6-1.8-0.9-3.5-1-5.2c-0.1-1.7-0.2-3.2-0.2-4.4v-34.2H516z"/>
				<path fill="#3A3A3F" d="M571.1,190.6h27.9c2.9,0,5.7,0.3,8.3,0.8c2.6,0.5,4.8,1.3,6.8,2.5c1.9,1.1,3.5,2.7,4.5,4.5
					c1.1,1.9,1.6,4.2,1.6,7c0,3.8-1.3,7.1-3.8,9.7c-2.5,2.6-6,4.3-10.5,4.9v0.2c3.1,0.3,5.5,1,7.3,2.1c1.8,1.1,3.1,2.4,4,3.9
					c0.9,1.5,1.4,3.2,1.7,5.1c0.2,1.9,0.4,3.7,0.4,5.6c0,1.1,0,2.2,0,3.3c0,1.1,0.1,2.1,0.2,3c0.1,0.9,0.3,1.8,0.6,2.6
					c0.3,0.8,0.7,1.5,1.2,2h-4.6c-0.9-1.3-1.4-2.9-1.5-4.7c-0.1-1.8-0.1-3.6-0.1-5.6c0-1.9-0.1-3.8-0.3-5.7
					c-0.2-1.9-0.8-3.6-1.8-5.1c-1-1.5-2.6-2.7-4.7-3.6c-2.2-0.9-5.2-1.4-9.1-1.4h-23.8v26h-4.1V190.6z M599.1,218.7
					c2.4,0,4.7-0.3,6.8-0.8c2.1-0.5,3.9-1.3,5.4-2.4c1.5-1.1,2.7-2.4,3.6-4.1c0.9-1.6,1.3-3.6,1.3-5.9c0-2.1-0.5-4-1.4-5.5
					c-0.9-1.5-2.2-2.8-3.8-3.7c-1.6-1-3.4-1.6-5.4-2.1c-2.1-0.4-4.2-0.6-6.5-0.6h-23.8v25H599.1z"/>
				<path fill="#3A3A3F" d="M628.3,190.6h45v3h-40.9v22.9h38.5v3h-38.5v25.1h41.4v3h-45.5V190.6z"/>
				<path fill="#3A3A3F" d="M724.5,206.9c-0.1-2.4-0.7-4.6-1.8-6.4c-1.1-1.8-2.6-3.3-4.5-4.6c-1.9-1.2-4.1-2.1-6.7-2.8
					c-2.6-0.6-5.4-0.9-8.5-0.9c-1.9,0-3.9,0.2-6,0.6c-2.2,0.4-4.2,1-6,2c-1.8,0.9-3.4,2.2-4.5,3.8s-1.8,3.5-1.8,5.9
					c0,2.3,0.7,4.2,2,5.6c1.3,1.4,3,2.6,5.2,3.5c2.1,0.9,4.6,1.6,7.3,2.1c2.8,0.5,5.5,1,8.3,1.5c2.9,0.5,5.7,1.1,8.4,1.7
					c2.7,0.7,5.2,1.6,7.3,2.7c2.2,1.1,3.9,2.6,5.2,4.5c1.3,1.8,2,4.1,2,6.9c0,3-0.8,5.5-2.3,7.5c-1.5,2-3.4,3.7-5.7,5
					c-2.3,1.3-4.8,2.2-7.6,2.8c-2.8,0.6-5.5,0.8-8,0.8c-3.9,0-7.6-0.4-11.1-1.1c-3.4-0.7-6.4-1.9-9-3.5c-2.6-1.6-4.6-3.7-6-6.3
					c-1.5-2.6-2.2-5.7-2.1-9.3h4.1c-0.2,3.1,0.3,5.8,1.6,7.9c1.2,2.2,3,3.9,5.2,5.3c2.2,1.4,4.8,2.4,7.8,3c3,0.6,6.2,0.9,9.5,0.9
					c2,0,4.1-0.2,6.4-0.6c2.3-0.4,4.4-1.1,6.3-2.2c1.9-1,3.5-2.3,4.8-4c1.3-1.6,1.9-3.7,1.9-6.2c0-2.4-0.7-4.4-2-5.9
					c-1.3-1.5-3-2.7-5.2-3.7c-2.2-0.9-4.6-1.7-7.3-2.2c-2.7-0.6-5.5-1.1-8.4-1.6c-2.8-0.5-5.6-1-8.3-1.7c-2.8-0.6-5.2-1.5-7.3-2.6
					c-2.1-1.1-3.8-2.5-5.2-4.2c-1.3-1.7-2-4-2-6.7s0.7-5,2-7c1.3-1.9,3.1-3.5,5.3-4.7c2.2-1.2,4.6-2.1,7.3-2.6
					c2.7-0.6,5.3-0.8,8-0.8c3.5,0,6.8,0.3,9.8,1c3,0.7,5.7,1.7,8,3.1c2.3,1.4,4.1,3.2,5.5,5.5c1.4,2.2,2.2,4.9,2.3,8.1H724.5z"/>
			</g>
		</g>
		<rect x="287.1" y="170" fill="#518AB0" width="449.7" height="7.6"/>
	</g>
</g>
</svg>
