<svg xmlns="http://www.w3.org/2000/svg" viewBox="0 149 800 307">
						<g fill="#6C5B7B">
							
							<path d="M105.8 238.8c3.9 1.1 7.8 2.5 11.7 4.6 0 1.4-.4 2.8-1.1 5-.7 2.1-1.1 3.9-1.8 6.4-.7 2.1-1.4 4.3-1.8 6.4-.7 2.1-1.1 3.6-1.1 5-3.6-1.1-7.1-2.5-10.7-3.6-3.6-1.4-7.5-2.1-10.7-2.1s-6 .7-8.5 1.8-4.6 2.8-6 5c-1.8 2.1-2.8 4.3-3.9 7.1-.7 2.8-1.4 5.7-1.4 8.5s.4 5.7 1.1 8.2c.7 2.8 2.1 5.3 3.6 7.5 1.8 2.1 3.6 3.9 6 5.3 2.5 1.4 5 2.1 8.2 2.1 1.8 0 3.2-.4 5-.7 1.8-.4 3.6-.7 5-1.4 1.8-.4 3.2-1.1 4.6-1.4 1.4-.4 2.8-.7 3.9-.7 2.8 0 5.7 1.1 7.8 3.2s3.2 4.6 3.2 7.5c0 3.2-1.1 6-3.2 8.2-2.1 2.1-4.6 3.6-7.5 5-2.8 1.1-6 1.8-9.2 2.1-3.2.4-6.4.7-8.9.7H89c-6.4 0-12.4-1.1-17.8-3.6-5.3-2.5-10-5.7-14.2-9.6-3.9-4.3-7.1-8.9-9.2-14.6-2.1-6-3.2-12.1-3.2-18.5 0-5 .7-9.6 2.5-14.6 1.8-4.6 3.9-8.9 6.4-12.8 4.6-6.4 10.3-10.7 17.1-13.5 6.8-2.8 14.2-4.3 22.4-4.3 4.6.1 8.9.8 12.8 1.8z" data-svg-origin="81.74999618530273 282.75001525878906" transform="matrix(1,0,0,1,0,0)" style="backface-visibility: hidden; z-index: 0; opacity: 1;"></path>
							<path d="M187.2 326.7v-2.8-3.6-4.6c-2.5 4.3-5.7 7.1-9.6 9.2-3.9 2.1-8.2 2.8-13.2 2.8-6.4 0-12.1-1.1-17.1-3.6s-9.6-5.7-13.2-10c-3.6-4.3-6.4-8.9-8.2-14.6-1.8-5.3-2.8-11.4-2.8-17.4 0-4.6.7-9.2 1.8-13.9 1.4-4.6 3.2-8.5 5.3-12.4 2.5-3.6 5.3-6.8 8.5-9.6 3.6-2.8 7.5-4.6 11.7-6 3.9-1.1 7.8-1.1 12.1-.7 3.9.4 7.5 1.1 10.7 2.1 3.2 1.1 6.8 2.5 10.7 4.6 1.1-3.2 2.8-5.3 5-6.8 2.1-1.4 4.3-2.1 6.4-2.5 2.1-.4 3.9-.4 5.7 0 2.8.4 5.3 1.4 6.8 3.6 1.4 2.1 2.1 4.6 2.1 7.5v77.9h-22.8l.1.8zm-2.5-53.4c-.7-2.8-1.8-5.3-3.2-7.5-1.4-2.1-3.2-3.9-5.7-5.3s-5-2.1-8.5-2.1c-3.2 0-6 .7-8.5 2.1s-4.3 3.2-6 5.7c-1.4 2.5-2.8 5-3.6 7.8-.7 2.8-1.1 5.7-1.1 8.5s.4 5.7 1.1 8.5 1.8 5.3 3.2 7.8 3.6 4.3 5.7 5.7c2.5 1.4 5 2.1 8.5 2.1s6.4-.7 8.5-2.1c2.5-1.4 4.3-3.6 5.7-5.7 1.4-2.5 2.5-5 3.2-7.8s1.1-6 1.1-8.9c.7-3.4.3-5.9-.4-8.8z" data-svg-origin="166.49999237060547 282.1500244140625" transform="matrix(1,0,0,1,0,0)" style="backface-visibility: hidden; z-index: 0; opacity: 1;"></path>
							<path d="M272.5 254.5c-1.1 1.4-2.1 2.8-3.9 3.9-1.4 1.1-3.2 1.8-5.3 2.8-1.8.7-3.9 1.8-6 2.8-2.1 1.1-3.9 2.1-5.7 3.9-1.8 1.4-3.2 3.2-4.6 5.7-1.1 1.8-1.4 3.9-1.8 6-.4 2.1-.4 4.6-.4 7.1v39.8h-25.6v-77.3c0-1.4.4-2.8 1.1-3.6.7-1.1 1.8-1.8 2.8-2.8 1.4-1.1 3.2-1.4 4.6-1.1 1.4.4 2.8 1.4 3.9 2.8s2.1 3.2 3.2 5 1.8 3.9 2.5 5.7c0-.4.7-1.1 1.8-2.1 1.1-1.4 2.8-2.8 4.6-5 2.1-2.1 4.3-3.9 6.8-5.3 1.8-1.1 3.9-2.5 6.4-3.6s4.6-1.4 7.1-1.4c2.5.4 4.6 1.4 6.4 3.6 1.8 2.1 2.8 4.3 2.8 7.1.7 2.4.4 4.6-.7 6z" data-svg-origin="246.38829040527344 282.1499557495117" transform="matrix(1,0,0,1,0,0)" style="backface-visibility: hidden; z-index: 0; opacity: 1;"></path>
							<path d="M308.1 239.6c-15.3 4.3-27.7 15.6-33.1 30.9-3.2 8.9-3.6 17.4-2.5 25.2 4.3 43.4 49.8 107 49.8 107s45.9-64 49.8-107c.4-2.5.7-5 .7-7.5 0-32.6-30.9-57.9-64.7-48.6zm15.6 70.4c-13.2.7-24.2-10-23.1-23.1.7-11 9.6-19.6 20.3-20.3 13.2-.7 24.2 10 23.1 23.1-.7 10.7-9.6 19.5-20.3 20.3z" data-svg-origin="322.3736877441406 320.17652893066406" transform="matrix(1,0,0,1,0,0)" style="backface-visibility: hidden; z-index: 0; opacity: 1;"></path>
							<path d="M465.6 299.6c-2.1 5.7-5.3 10.3-9.2 14.6s-8.5 7.5-13.9 10-11.4 3.6-17.8 3.6-12.4-1.1-17.8-3.6c-5.3-2.5-10-5.7-13.9-10s-7.1-8.9-9.2-14.6-3.2-11.4-3.2-17.8 1.1-12.1 3.2-17.8 5.3-10.3 9.2-14.6c3.9-4.3 8.5-7.5 13.9-10 5.3-2.5 11.4-3.6 17.8-3.6s12.1 1.1 17.8 3.6c5.3 2.5 10 5.7 13.9 10 3.9 4.3 7.1 8.9 9.2 14.6s3.2 11.4 3.2 17.8c0 6.5-1.1 12.5-3.2 17.8zm-23.1-25.9c-.7-2.8-1.8-5.3-3.6-7.8-1.4-2.1-3.6-4.3-6-5.7-2.5-1.4-5-2.1-8.2-2.1s-6 .7-8.2 2.1c-2.5 1.4-4.3 3.2-5.7 5.7-1.4 2.5-2.5 5-3.6 7.8-.7 2.8-1.1 5.7-1.1 8.2 0 2.8.4 5.7 1.1 8.5s1.8 5.7 3.2 7.8c1.4 2.5 3.6 4.3 5.7 5.7 2.5 1.4 5 2.1 8.2 2.1s6-.7 8.5-2.1 4.3-3.6 5.7-5.7c1.4-2.5 2.5-5 3.2-7.8s1.1-5.7 1.1-8.5c.7-2.5.4-5.4-.3-8.2z" data-svg-origin="424.70001220703125 281.8000183105469" transform="matrix(1,0,0,1,0,0)" style="backface-visibility: hidden; z-index: 0; opacity: 1;"></path>
							<path d="M560.9 299.6c-2.1 5.7-5.3 10.3-9.2 14.6s-8.5 7.5-13.9 10-11.4 3.6-17.8 3.6-12.4-1.1-17.8-3.6c-5.3-2.5-10-5.7-13.9-10s-7.1-8.9-9.2-14.6c-2.1-5.7-3.2-11.4-3.2-17.8s1.1-12.1 3.2-17.8 5.3-10.3 9.2-14.6c3.9-4.3 8.5-7.5 13.9-10 5.3-2.5 11.4-3.6 17.8-3.6s12.1 1.1 17.8 3.6c5.3 2.5 10 5.7 13.9 10 3.9 4.3 7.1 8.9 9.2 14.6 2.1 5.7 3.2 11.4 3.2 17.8.3 6.5-.7 12.5-3.2 17.8zm-22.8-25.9c-.7-2.8-1.8-5.3-3.6-7.8-1.4-2.1-3.6-4.3-6-5.7-2.5-1.4-5-2.1-8.2-2.1s-6 .7-8.2 2.1c-2.5 1.4-4.3 3.2-5.7 5.7-1.4 2.5-2.5 5-3.6 7.8-.7 2.8-1.1 5.7-1.1 8.2 0 2.8.4 5.7 1.1 8.5s1.8 5.7 3.2 7.8c1.4 2.5 3.6 4.3 5.7 5.7 2.5 1.4 5 2.1 8.2 2.1s6-.7 8.5-2.1 4.3-3.6 5.7-5.7c1.4-2.5 2.5-5 3.2-7.8s1.1-5.7 1.1-8.5c.8-2.5.4-5.4-.3-8.2z" data-svg-origin="520.0258331298828 281.8000183105469" transform="matrix(1,0,0,1,0,0)" style="backface-visibility: hidden; z-index: 0; opacity: 1;"></path>
							<path d="M571.9 326.7V210c0-3.6 1.4-6.8 3.9-9.2 2.5-2.5 5.7-3.6 9.2-3.6s6.4 1.4 8.9 3.9 3.6 5.3 3.6 8.9v116.3l-25.6.4z" data-svg-origin="584.7000427246094 261.9500045776367" transform="matrix(1,0,0,1,0,0)" style="backface-visibility: hidden; z-index: 0; opacity: 1;"></path>
							<path d="M690.7 287.2c-2.1 1.4-5 2.1-8.9 2.1h-48.4c1.1 5.3 3.9 9.6 7.8 12.8 3.9 3.2 8.9 5 14.6 5 2.8 0 6-.4 8.9-1.1 3.2-.7 6-1.1 8.9-1.8l3.6 19.2c-3.9 1.4-7.8 2.5-11.4 3.2-3.9.7-7.8 1.1-12.1 1.1-6.8 0-12.8-1.1-18.8-3.2-5.7-2.1-10.7-5.3-15.3-9.2-4.3-3.9-7.8-8.9-10-14.6-2.5-5.7-3.6-11.7-3.6-18.8 0-6.4 1.1-12.4 3.6-17.8 2.1-5.3 5.3-10.3 9.2-14.2s8.9-7.5 14.2-9.6c5.3-2.5 11.4-3.6 17.8-3.6 5.7 0 11 1.1 16.4 3.6 5.3 2.1 9.6 5.3 13.5 9.2s7.1 8.2 9.2 13.5c2.5 5 3.6 10.7 3.6 16.4.4 3.5-.7 6.4-2.8 7.8zm-23.2-12.4c0-2.5-.7-4.6-1.4-6.8-.7-2.1-1.8-4.3-3.2-6-1.4-1.8-3.2-3.2-5-4.3-2.1-1.1-4.3-1.8-6.8-1.8-2.8 0-5 .4-7.1 1.4-2.1 1.1-3.9 2.5-5 4.3-1.4 1.8-2.5 3.9-3.2 6s-1.4 4.6-1.8 7.1l33.5.1z" data-svg-origin="649.7906188964844 282.20003509521484" transform="matrix(1,0,0,1,0,0)" style="backface-visibility: hidden; z-index: 0; opacity: 1;"></path>
							<path d="M754.3 254.5c-1.1 1.4-2.1 2.8-3.9 3.9-1.4 1.1-3.2 1.8-5.3 2.8-1.8.7-3.9 1.8-6 2.8-2.1 1.1-3.9 2.1-5.7 3.9-1.8 1.4-3.2 3.2-4.6 5.7-1.1 1.8-1.4 3.9-1.8 6-.4 2.1-.4 4.6-.4 7.1v39.8H701v-77.3c0-1.4.4-2.8 1.1-3.6.7-1.1 1.8-1.8 2.8-2.8 1.4-1.1 3.2-1.4 4.6-1.1 1.4.4 2.8 1.4 3.9 2.8s2.1 3.2 3.2 5 1.8 3.9 2.5 5.7c0-.4.7-1.1 1.8-2.1 1.1-1.4 2.8-2.8 4.6-5 2.1-2.1 4.3-3.9 6.8-5.3 1.8-1.1 3.9-2.5 6.4-3.6s4.6-1.4 7.1-1.4c2.5.4 4.6 1.4 6.4 3.6 1.8 2.1 2.8 4.3 2.8 7.1.7 2.4.4 4.6-.7 6z" data-svg-origin="728.1882629394531 282.1499557495117" transform="matrix(1,0,0,1,0,0)" style="backface-visibility: hidden; z-index: 0; opacity: 1;"></path>
						</g>
						<path fill="#F67280" d="M342.2 334.5c-1.1.4-2.1.7-3.2 1.4-.7.4-1.4.4-2.1.7h-.4c-.7.4-1.1.4-1.8.4-1.4.4-2.8.7-4.3.7-2.8.4-5.3.7-8.2.7-1.4 0-2.8 0-4.3-.4 6 17.8 9.2 28.1 11 35.2 3.6 14.6-6.4 29.5-6.4 29.5s15.6-22 29.5-48.7c.7-1.1 1.1-2.1 1.8-3.6 0 0 0-.4.4-.4.4-.7.7-1.1 1.1-1.8 8.5-17.4 16-36.6 17.4-52.6-3.1 17.6-14.8 32.1-30.5 38.9z" data-svg-origin="345.3000183105469 349.15003967285156" transform="matrix(1,0,0,1,0,0)" style="backface-visibility: hidden; z-index: 0; opacity: 1;"></path>
					</svg>