<?xml version="1.0" encoding="utf-8"?>
<!-- Generator: Adobe Illustrator 18.1.1, SVG Export Plug-In . SVG Version: 6.00 Build 0)  -->
<svg version="1.1" xmlns="http://www.w3.org/2000/svg" xmlns:xlink="http://www.w3.org/1999/xlink" x="0px" y="0px"
	 viewBox="0 0 741 104.2" enable-background="new 0 0 741 104.2" xml:space="preserve">
<g id="Layer_1">
	<polygon id="k-shape-1" points="8.3,48.4 8.3,99.4 4,99.4 4,3.5 8.3,3.5 8.3,37.5 	"/>
	<polygon id="k-shape-3" points="19.2,73.3 19.2,99.4 14.8,99.4 14.8,63.3 	"/>
	<polygon id="k-shape-2" points="14.8,63.3 8.3,48.4 8.3,37.5 35.4,99.4 30.6,99.4 19.2,73.3 	"/>
	<polygon id="k-shape-4" points="24.2,46.6 47.3,99.4 42.6,99.4 14.8,36.1 14.8,3.5 19.2,3.5 19.2,20.3 19.2,31 19.2,35.2 
		21.8,41.2 	"/>
	<polygon id="k-shape-6" points="21.8,41.2 38.6,3.5 43.4,3.5 24.2,46.6 	"/>
	<polygon id="k-shape-5" points="19.2,20.3 26.6,3.5 31.4,3.5 19.2,31 	"/>
	<path id="a-shape-1" d="M59.7,65.7v33.7h-4.3V45.8V26.1c0-10.9,8.2-20.3,18.7-22.2c13.4-2.3,26.3,8.2,26.3,22.2v73.3H96V26.1
		c0-10-8.3-18.2-18.2-18.2s-18.1,8.3-18.1,18.2v34.6V65.7z"/>
	<path id="a-shape-3" d="M70.5,66.9c6.4,3.7,12.7,7.2,19.1,10.9v21.6h-4.3V80.3l-14.8-8.5l-4.3-2.4l-6.5-3.7v-5l6.5,3.7L70.5,66.9z"
		/>
	<path id="a-shape-2" d="M77.9,14.3c-6.4,0-11.9,5.5-11.9,11.8v38.3v5v30h4V71.8v-4.9v-7.4c7,3.7,13,7.2,20,10.9V26.1
		C90,19.9,84.4,14.3,77.9,14.3z M86,62.8l-15-8.4V26.1c0-4.2,3.5-7.4,7.4-7.4c4.2,0,7.6,3.2,7.6,7.4V62.8z"/>
	<path id="a2-shape-1" d="M172.6,65.7v33.7h-4.3V45.8V26.1c0-10.9,8.2-20.3,18.7-22.2c13.4-2.3,26.3,8.2,26.3,22.2v73.3h-4.3V26.1
		c0-10-8.3-18.2-18.2-18.2s-18.1,8.3-18.1,18.2v34.6V65.7z"/>
	<path id="a2-shape-3" d="M183.4,66.9c6.4,3.7,12.7,7.2,19.1,10.9v21.6h-4.3V80.3l-14.8-8.5l-4.3-2.4l-6.5-3.7v-5l6.5,3.7
		L183.4,66.9z"/>
	<path id="a2-shape-2" d="M190.9,14.3c-6.4,0-11.9,5.5-11.9,11.8v38.3v5v30h4V71.8v-4.9v-7.4c7,3.7,13,7.2,20,10.9V26.1
		C203,19.9,197.4,14.3,190.9,14.3z M199,62.8l-15-8.4V26.1c0-4.2,3.5-7.4,7.4-7.4c4.2,0,7.6,3.2,7.6,7.4V62.8z"/>
	<path id="a3-shape-1" d="M364.8,65.7v33.7h-4.3V45.8V26.1c0-10.9,8.2-20.3,18.7-22.2c13.4-2.3,26.3,8.2,26.3,22.2v73.3h-4.3V26.1
		c0-10-8.3-18.2-18.2-18.2s-18.1,8.3-18.1,18.2v34.6V65.7z"/>
	<path id="a3-shape-3" d="M375.6,66.9c6.4,3.7,12.7,7.2,19.1,10.9v21.6h-4.3V80.3l-14.8-8.5l-4.3-2.4l-6.5-3.7v-5l6.5,3.7
		L375.6,66.9z"/>
	<path id="a3-shape-2" d="M383.2,14.3c-6.4,0-11.9,5.5-11.9,11.8v38.3v5v30h4V71.8v-4.9v-7.4c7,3.7,13,7.2,20,10.9V26.1
		C395.3,19.9,389.7,14.3,383.2,14.3z M391.3,62.8l-15-8.4V26.1c0-4.2,3.5-7.4,7.4-7.4c4.2,0,7.6,3.2,7.6,7.4V62.8z"/>
	<path id="a4-shape-1" d="M530.6,65.7v33.7h-4.3V45.8V26.1c0-10.9,8.2-20.3,18.7-22.2c13.4-2.3,26.3,8.2,26.3,22.2v73.3h-4.3V26.1
		c0-10-8.3-18.2-18.2-18.2s-18.1,8.3-18.1,18.2v34.6V65.7z"/>
	<path id="a4-shape-3" d="M541.3,66.9c6.4,3.7,12.7,7.2,19.1,10.9v21.6h-4.3V80.3l-14.8-8.5l-4.3-2.4l-6.5-3.7v-5l6.5,3.7
		L541.3,66.9z"/>
	<path id="a4-shape-2" d="M548.9,14.3c-6.4,0-11.9,5.5-11.9,11.8v38.3v5v30h4V71.8v-4.9v-7.4c7,3.7,13,7.2,20,10.9V26.1
		C561,19.9,555.4,14.3,548.9,14.3z M557,62.8l-15-8.4V26.1c0-4.2,3.5-7.4,7.4-7.4c4.2,0,7.6,3.2,7.6,7.4V62.8z"/>
	<polygon id="n-shape-2" points="240.7,31.7 240.7,99.4 236.4,99.4 236.4,23.7 	"/>
	<polygon id="n-shape-1" points="254.7,57.8 240.7,31.7 236.4,23.7 229.9,11.8 229.9,99.4 225.6,99.4 225.6,3.5 230.1,3.5 
		254.7,48.9 	"/>
	<polygon id="n-shape-3" points="254.7,35.5 237.3,3.5 242.1,3.5 254.7,26.7 	"/>
	<polygon id="n-shape-4" points="254.7,48.9 254.7,35.5 254.7,26.7 254.7,3.5 259,3.5 259,99.4 254.7,99.4 254.7,57.8 	"/>
	<rect id="n-shape-5" x="265.5" y="3.5" width="4.3" height="95.9"/>
	<polygon id="n2-shape-2" points="484.3,31.7 484.3,99.4 480,99.4 480,23.7 	"/>
	<polygon id="n2-shape-1" points="498.4,57.8 484.3,31.7 480,23.7 473.6,11.8 473.6,99.4 469.2,99.4 469.2,3.5 473.8,3.5 
		498.4,48.9 	"/>
	<polygon id="n2-shape-3" points="498.4,35.5 481,3.5 485.8,3.5 498.4,26.7 	"/>
	<polygon id="n2-shape-4" points="498.4,48.9 498.4,35.5 498.4,26.7 498.4,3.5 502.7,3.5 502.7,99.4 498.4,99.4 498.4,57.8 	"/>
	<rect id="n2-shape-5" x="509.2" y="3.5" width="4.3" height="95.9"/>
	<polygon id="f-shape-5" points="321.9,55 326.1,55 349,55 349,59.3 326.1,59.3 326.1,99.4 321.9,99.4 	"/>
	<path id="d-shape" d="M459.3,53.3c0,11-3.2,22.1-10,31.6c-4,5.2-9.2,10.1-15.4,12.8c-1.3,0.6-2.8,1.2-4.3,1.7V87.8
		c-3,1.6-6.6,2.5-10.8,2.6v-4.3V3.5c3.7,0,7.1,0.6,10.8,1.7c7.7,2.3,14.3,7.4,19.7,14.5C456,29,459.3,42.3,459.3,53.3z M454.9,53.3
		c0-10.2-2.9-22.4-9.1-31c-4-5.4-9.5-10.1-16.2-12.6c-2-0.8-4.2-1.3-6.5-1.7v77.4c2.3-0.4,4.4-1.3,6.5-2.6v-66
		c0.5,0.4,3.4,1.8,4.3,2.6c2.6,2,4.8,4.2,6.6,6.7c5.3,7.2,7.9,18,7.9,27.1s-2.6,17.9-7.9,25.1c-1.8,2.5-4,4.7-6.6,6.7v7.7
		c2,0,9.7-7.8,11.9-10.6C451.9,73.7,454.9,63.5,454.9,53.3z M434,79.5c1.3-1.1,2.2-2.3,3.1-3.6c4.7-6.2,7.1-14.4,7.1-22.6
		s-2.4-18.2-7.1-24.6c-1-1.3-1.8-2.5-3.1-3.6V79.5z"/>
	<polygon id="v-shape-1" points="581,3.5 599.5,95.1 600.3,99.4 598.6,99.4 596.1,99.4 576.9,3.5 	"/>
	<polygon id="v-shape-2" points="606.8,78.8 610.1,95.1 628.1,3.5 632.7,3.5 613.4,99.4 611,99.4 609.2,99.4 606.5,99.4 604.6,89.6 
		602.6,78.8 587.6,3.5 591.8,3.5 604.6,68.1 	"/>
	<polygon id="v-shape-3" points="604.6,68.1 617.3,3.5 621.9,3.5 606.8,78.8 	"/>
	<path id="s-shape-2" d="M722.4,25c-2.5-3.7-6.6-6.2-10.8-6.2c-2.2,0-4.2,0.5-6,1.6c-1.8,1.1-3.1,2.4-4,4.2
		c-0.8,1.7-1.1,3.5-0.8,5.4c0.4,1.9,1.3,3.6,2.6,5.2c1.4,1.6,2.8,2.2,6.5,4.4c2.9,1.8,5.9,3.4,9.1,5.3s6.2,4,9.5,6.8
		c1.6,1.4,3.1,3,4.6,4.9c1.3,2,2.5,4.2,3.4,6.5c0.8,2.4,1.2,4.8,1.3,7.2c0.1,2.3-0.1,4.6-0.5,6.6c-0.6,4.7-2.5,9.2-5.8,13
		s-7.2,6.4-11.9,7.9c-4.4,1.6-9.1,1.9-13.8,1.1c-4.4-0.8-8.5-2.4-12.2-4.8c-3.5-2.3-6.6-4.9-9.4-8.2l3.2-2.8
		c2.5,2.9,5.4,5.3,8.4,7.2c3.2,2,6.8,3.6,10.7,4.2c3.8,0.6,7.9,0.5,11.8-0.8c4-1.3,7.3-3.5,9.8-6.6c2.8-3.2,4.3-7,4.9-10.8
		c0.6-3.7,0.6-7.9-0.7-11.8c-1.3-4-4-7.2-6.7-9.7c-2.9-2.5-5.9-4.4-8.9-6.2c-3-1.8-6-3.4-9-5.2l-2.3-1.3c-1.9-1.1-3.6-2.4-5.2-4
		c-2.2-2.3-3.4-4.7-3.7-7.4c-0.5-2.8-0.1-5.4,1.2-8c1.3-2.8,3.1-4.7,5.6-6c2.5-1.4,5.2-2.2,8.2-2.2c5.6,0,11.8,3.4,14.4,8.3
		L722.4,25z"/>
	<path id="s-shape-1" d="M731.5,19.3c-0.6-1-1.2-1.6-1.8-2.4l-2-2.2c-1.6-1.4-3.1-2.6-4.7-3.5c-3.5-2.2-7.3-3.2-11.4-3.2
		c-2,0-4,0.2-5.9,0.7s-3.8,1.3-5.6,2.3c-3.6,2-6.4,5-8.2,8.8s-2.4,7.8-1.8,12c0.7,4.2,2.5,7.7,5.4,10.7c1.4,1.6,2.9,2.9,4.4,3.8
		c4.3,2.9,9,5,13.4,7.8c5.6,3.4,11,7.3,12.8,12.6c0.8,2.5,1,5.3,0.5,8.5c-0.5,3-1.7,5.5-3.5,7.7c-1.8,2.2-4.1,3.7-7,4.7
		c-2.9,0.8-5.8,1.1-8.6,0.6c-5.8-1-11-4.7-15.2-9.4l3.2-2.9c3.7,4.2,8,7.1,12.7,7.9c4.7,0.8,9-0.5,11.5-3.7c1.3-1.6,2.2-3.5,2.5-5.6
		c0.5-2.5,0.4-4.7-0.2-6.5c-0.6-1.7-1.8-3.4-3.7-5.2c-2-1.8-4.4-3.5-7.2-5c-6.7-4-13.8-6.8-19-12.5c-3.2-3.4-5.5-7.8-6.4-13
		c-0.8-4.9-0.1-10.1,2.2-14.5c2.3-4.6,5.5-8,9.8-10.6c2.3-1.3,4.4-2.2,6.7-2.8c2.3-0.5,4.6-0.8,7-0.8c4.8,0,9.6,1.4,13.6,3.8
		c2,1.1,3.7,2.5,5.5,4.1c2.2,2,3.6,3.7,4.4,5.3L731.5,19.3z"/>
	<polygon id="f-shape-1" points="311,3.4 311,99.4 316,99.4 316,48.4 316,44.4 316,18.4 316,14.4 316,7.4 322,7.4 327,7.4 349,7.4 
		349,3.4 	"/>
	<rect id="f-shape-2" x="316" y="14.4" width="33" height="4"/>
	<rect id="f-shape-3" x="316" y="44.4" width="33" height="4"/>
	<rect id="f-shape-4" x="322" y="7.4" width="5.1" height="41"/>
	<rect id="i-shape-1" x="641.1" y="3.5" width="36.2" height="4.3"/>
	<rect id="i-shape-2" x="641.1" y="14.5" width="36.2" height="4.3"/>
	<rect id="i-shape-5" x="641.1" y="84.2" width="36.2" height="4.3"/>
	<rect id="i-shape-6" x="641.1" y="95.1" width="36.2" height="4.3"/>
	<rect id="i-shape-3" x="652" y="14.5" width="4" height="84.8"/>
	<rect id="i-shape-4" x="662.2" y="3.7" width="4" height="84.8"/>
	<rect id="r-shape-2" x="124.5" y="53" width="4.5" height="46.4"/>
	<path id="r-shape-1" d="M118,99.4V37.6l12.2,29.8c0,0,2.1-1.1,4-2.7l-1.7-3.9l-18.8-44.6v83.2H118z"/>
	<path id="r-shape-4" d="M140.2,50.8l-15-35.1c0,0,0,0,0,0c-1-2.4-2.1-4.9-3.1-7.3c11.8,1.7,21.7,9.8,26.5,20.4
		c4.8,11.2,3.6,24.2-3.5,34.2c-1,1.3-2,2.4-3.1,3.7l13.8,32.8h4.7L147,67.5c8.4-10.3,10.8-24.2,7-36.7
		c-3.8-11.9-13.3-21.5-25.2-25.3c-4.2-1.4-8.8-2-13.4-1.9l21.8,51.7L140.2,50.8z"/>
	<path id="r-shape-3" d="M128.8,24.3v-1.2V22c1.6,0.6,3.5,2.3,5,3.9c6.1,6.1,8.5,15.5,5.8,24.1l-2.4,5.3c-1.2,2-2.8,3.8-4.7,5.6
		c0,0-4,3.5-8,4.1c0,4.4,0,34.6,0,34.6h4.5V80.1v-4.6v-7.1c10-4.8,17.1-16.4,16.1-28s-9.1-21.4-19.9-24.9L128.8,24.3z"/>
	<path id="r-shape-5" d="M128.8,75.4c2.9-1,5.5-2.5,8-4.3l11.9,28.3H144l-9.2-22c-1.9,1-4,1.9-6,2.5V75.4z"/>
</g>
<g id="Layer_2">
	<line id="k-path-1" fill="none" stroke="#FF0000" stroke-width="6" x1="6.5" y1="1.6" x2="6.5" y2="101.2"/>
	<line id="k-path-2" fill="none" stroke="#FF0000" stroke-width="6" x1="6.5" y1="39.8" x2="33.8" y2="101.2"/>
	<line id="k-path-3" fill="none" stroke="#FF0000" stroke-width="6" x1="17" y1="101.4" x2="17" y2="63.4"/>
	<polyline id="k-path-4" fill="none" stroke="#FF0000" stroke-width="6" points="17,1.4 17,35.4 45.8,101.4 	"/>
	<line id="k-path-5" fill="none" stroke="#FF0000" stroke-width="6" x1="17" y1="29.4" x2="30" y2="1.4"/>
	<line id="k-path-6" fill="none" stroke="#FF0000" stroke-width="6" x1="21.8" y1="46.3" x2="41.7" y2="1.6"/>
	<path id="a-path-1" fill="none" stroke="#FF0000" stroke-width="6" d="M57,101.4v-76c0,0,1.8-20.2,20.8-20.2S98,25.1,98,25.1v76.3"
		/>
	<path id="a-path-2" fill="none" stroke="#FF0000" stroke-width="6" d="M68,101.4v-76c0,0,1.8-9.2,9.9-9.2S88,25.1,88,25.1v41.3
		L68.8,55.7"/>
	<polyline id="a-path-3" fill="none" stroke="#FF0000" stroke-width="6" points="57,62 88,79.2 88,101.4 	"/>
	<path id="a2-path-1" fill="none" stroke="#FF0000" stroke-width="6" d="M170.2,101.4v-76c0,0,1.8-20.2,20.8-20.2
		s20.2,19.8,20.2,19.8v76.3"/>
	<path id="a2-path-2" fill="none" stroke="#FF0000" stroke-width="6" d="M181.2,101.4v-76c0,0,1.8-9.2,9.9-9.2
		c8.2,0,10.1,8.8,10.1,8.8v41.3l-19.2-10.7"/>
	<polyline id="a2-path-3" fill="none" stroke="#FF0000" stroke-width="6" points="169.1,62 200.1,79.2 200.1,101.4 	"/>
	<path id="a3-path-1" fill="none" stroke="#FF0000" stroke-width="6" d="M362.5,101.4v-76c0,0,1.8-20.2,20.8-20.2
		c19,0,20.2,19.8,20.2,19.8v76.3"/>
	<path id="a3-path-2" fill="none" stroke="#FF0000" stroke-width="6" d="M374.1,101.4v-76c0,0,1.8-9.2,9.9-9.2s10.1,8.8,10.1,8.8
		v41.3l-19.2-10.7"/>
	<polyline id="a3-path-3" fill="none" stroke="#FF0000" stroke-width="6" points="361.9,62 392.9,79.2 392.9,101.4 	"/>
	<path id="a4-path-1" fill="none" stroke="#FF0000" stroke-width="6" d="M527.8,101.4v-76c0,0,1.8-20.2,20.8-20.2
		c19,0,20.2,19.8,20.2,19.8v76.3"/>
	<path id="a4-path-2" fill="none" stroke="#FF0000" stroke-width="6" d="M539.4,101.4v-76c0,0,1.8-9.2,9.9-9.2s10.1,8.8,10.1,8.8
		v41.3l-19.2-10.7"/>
	<polyline id="a4-path-3" fill="none" stroke="#FF0000" stroke-width="6" points="527.2,62 558.2,79.2 558.2,101.4 	"/>
	<polyline id="r-path-1" fill="none" stroke="#FF0000" stroke-width="6" stroke-miterlimit="10" points="115,101.4 115,24.4 
		132.1,67.6 	"/>
	
		<line id="r-path-2" fill="none" stroke="#FF0000" stroke-width="6" stroke-miterlimit="10" x1="127" y1="101.4" x2="127" y2="54.4"/>
	<path id="r-path-3" fill="none" stroke="#FF0000" stroke-width="6" stroke-miterlimit="10" d="M127,38.4V19c0,0,14.3,4.3,15.8,21.6
		S127,67.7,127,67.7"/>
	<path id="r-path-4" fill="none" stroke="#FF0000" stroke-width="6" stroke-miterlimit="10" d="M139.4,55.3l-21.2-50
		c0,0,14.8,0.3,26.2,12.8c11.3,12.5,10.7,29.8,7.7,36.3s-6.9,12.7-6.9,12.7l14,34.2"/>
	<path id="r-path-5" fill="none" stroke="#FF0000" stroke-width="6" stroke-miterlimit="10" d="M127,78.6c0,0,5-1.3,8.8-4l11,26.7"
		/>
	<polyline id="n-path-1" fill="none" stroke="#FF0000" stroke-width="6" points="227,101.4 227,1.4 259,62.9 	"/>
	<line id="n-path-2" fill="none" stroke="#FF0000" stroke-width="6" x1="238.5" y1="101.4" x2="238.5" y2="20.8"/>
	<line id="n-path-3" fill="none" stroke="#FF0000" stroke-width="6" x1="238.5" y1="1.4" x2="259" y2="39.8"/>
	<line id="n-path-4" fill="none" stroke="#FF0000" stroke-width="6" x1="256.9" y1="1.4" x2="256.9" y2="101.4"/>
	<line id="n-path-5" fill="none" stroke="#FF0000" stroke-width="6" x1="267.7" y1="1.4" x2="267.7" y2="101.4"/>
	<polyline id="n2-path-1" fill="none" stroke="#FF0000" stroke-width="6" points="471.4,101.4 471.4,1.4 503.4,62.9 	"/>
	<line id="n2-path-2" fill="none" stroke="#FF0000" stroke-width="6" x1="482.9" y1="101.4" x2="482.9" y2="20.8"/>
	<line id="n2-path-3" fill="none" stroke="#FF0000" stroke-width="6" x1="482.9" y1="1.4" x2="503.4" y2="39.8"/>
	<line id="n2-path-4" fill="none" stroke="#FF0000" stroke-width="6" x1="501.2" y1="1.4" x2="501.2" y2="101.4"/>
	<line id="n2-path-5" fill="none" stroke="#FF0000" stroke-width="6" x1="512" y1="1.4" x2="512" y2="101.4"/>
	<polyline id="f-path-1" fill="none" stroke="#FF0000" stroke-width="6" points="313,101.4 313,5.2 350.5,5.2 	"/>
	<line id="f-path-2" fill="none" stroke="#FF0000" stroke-width="6" x1="312.3" y1="16.4" x2="350.5" y2="16.4"/>
	<line id="f-path-3" fill="none" stroke="#FF0000" stroke-width="6" x1="313" y1="46.4" x2="350.5" y2="46.4"/>
	<line id="f-path-4" fill="none" stroke="#FF0000" stroke-width="6" x1="324.6" y1="5.2" x2="324.6" y2="46.4"/>
	<polyline id="f-path-5" fill="none" stroke="#FF0000" stroke-width="6" points="323.8,101.4 323.8,57.4 350.5,57.4 	"/>
	<path id="d-path" fill="none" stroke="#FF0000" stroke-width="6" d="M431.5,58.8V20.7c0,0,14.8,8.7,14.8,31.7s-15.2,34.8-25,35.5
		V5.2c0,0,35.8,3.8,35.8,48.1c0,30.8-25.3,42.9-25.3,42.9l-0.3-45.5"/>
	<line id="v-path-1" fill="none" stroke="#FF0000" stroke-width="6" x1="578.4" y1="1.4" x2="598.3" y2="101.4"/>
	<polyline id="v-path-2" fill="none" stroke="#FF0000" stroke-width="6" points="588.6,1.4 609.8,103.6 630.9,1.4 	"/>
	<line id="v-path-3" fill="none" stroke="#FF0000" stroke-width="6" x1="604.6" y1="78.8" x2="619.7" y2="1.4"/>
	<line id="i-path-1" fill="none" stroke="#FF0000" stroke-width="6" x1="639.3" y1="5.7" x2="678.9" y2="5.7"/>
	<line id="i-path-2" fill="none" stroke="#FF0000" stroke-width="6" x1="639.3" y1="16.6" x2="678.9" y2="16.6"/>
	<line id="i-path-3" fill="none" stroke="#FF0000" stroke-width="6" x1="639.3" y1="86.3" x2="678.9" y2="86.3"/>
	<line id="i-path-4" fill="none" stroke="#FF0000" stroke-width="6" x1="639.3" y1="97.3" x2="678.9" y2="97.3"/>
	<line id="i-path-5" fill="none" stroke="#FF0000" stroke-width="6" x1="654" y1="16.6" x2="654" y2="97.3"/>
	<line id="i-path-6" fill="none" stroke="#FF0000" stroke-width="6" x1="664.2" y1="5.7" x2="664.2" y2="86.3"/>
	<path id="s-path-1" fill="none" stroke="#FF0000" stroke-width="6" d="M692.1,75.5c0,0,9.3,11,18.2,10.8
		c8.9-0.1,13.5-5.7,14.4-13.6s-7-14.8-22.6-22c-13-6-18.6-25.2-7.8-38.3c9.1-11,32.9-6,39.5,6.3"/>
	<path id="s-path-2" fill="none" stroke="#FF0000" stroke-width="6" d="M725,25.6c0,0-3.4-8.3-11.8-9c-8.4-0.7-12.2,4.1-13.2,6.1
		s-4,9.5,1.7,13.8c5.7,4.3,22.2,12.8,25.2,15.9s8.8,9.3,8.3,18.6s-3.1,17.7-9.5,21.5c-6.3,3.8-15.8,6.2-23.2,3.3
		c-7.3-2.8-18.2-12.7-18.2-12.7"/>
</g>
</svg>
