<?xml version="1.0" encoding="utf-8"?>
<!-- Generator: Adobe Illustrator 18.1.1, SVG Export Plug-In . SVG Version: 6.00 Build 0)  -->
<svg version="1.1" id="Layer_1" xmlns="http://www.w3.org/2000/svg" xmlns:xlink="http://www.w3.org/1999/xlink" x="0px" y="0px"
	 viewBox="-10 210 820 188" enable-background="new -10 210 820 188" xml:space="preserve">
<g id="Layer_1_1_">
	<polygon id="k-shape-1" points="9,296 9,351.1 4.3,351.1 4.3,247.5 9,247.5 9,284.2 	"/>
	<polygon id="k-shape-3" points="20.7,322.9 20.7,351.1 16,351.1 16,312.1 	"/>
	<polygon id="k-shape-2" points="16,312.1 9,296 9,284.2 38.2,351.1 33,351.1 20.7,322.9 	"/>
	<polygon id="k-shape-4" points="26.1,294.1 51.1,351.1 46,351.1 16,282.7 16,247.5 20.7,247.5 20.7,265.7 20.7,277.2 20.7,281.8 
		23.5,288.2 	"/>
	<polygon id="k-shape-6" points="23.5,288.2 41.7,247.5 46.9,247.5 26.1,294.1 	"/>
	<polygon id="k-shape-5" points="20.7,265.7 28.7,247.5 33.9,247.5 20.7,277.2 	"/>
	<path id="a-shape-1" d="M64.5,314.7v36.4h-4.6v-57.9v-21.3c0-11.8,8.9-21.9,20.2-24c14.5-2.5,28.4,8.9,28.4,24v79.1h-4.8v-79.1
		c0-10.8-9-19.6-19.6-19.6s-19.5,9-19.5,19.6v37.4C64.5,309.3,64.5,314.7,64.5,314.7z"/>
	<path id="a-shape-3" d="M76.1,316c6.9,4,13.7,7.8,20.6,11.8v23.3h-4.6v-20.6l-16-9.2l-4.6-2.6l-7-4v-5.4l7,4L76.1,316z"/>
	<path id="a-shape-2" d="M84.1,259.2c-6.9,0-12.8,5.9-12.8,12.7v41.3v5.4v32.4h4.3v-29.8V316v-8c7.6,4,14,7.8,21.6,11.8v-47.8
		C97.2,265.2,91.1,259.2,84.1,259.2z M92.8,311.6l-16.2-9.1v-30.6c0-4.5,3.8-8,8-8c4.5,0,8.2,3.5,8.2,8V311.6z"/>
	<path id="a2-shape-1" d="M186.3,314.7v36.4h-4.6v-57.9v-21.3c0-11.8,8.9-21.9,20.2-24c14.5-2.5,28.4,8.9,28.4,24v79.1h-4.6v-79.1
		c0-10.8-9-19.6-19.6-19.6c-10.7,0-19.5,9-19.5,19.6v37.4v5.4H186.3z"/>
	<path id="a2-shape-3" d="M198,316c6.9,4,13.7,7.8,20.6,11.8v23.3H214v-20.6l-16-9.2l-4.6-2.6l-7-4v-5.4l7,4L198,316z"/>
	<path id="a2-shape-2" d="M206.1,259.2c-6.9,0-12.8,5.9-12.8,12.7v41.3v5.4v32.4h4.3v-29.8V316v-8c7.6,4,14,7.8,21.6,11.8v-47.8
		C219.2,265.2,213.1,259.2,206.1,259.2z M214.8,311.6l-16.2-9.1v-30.6c0-4.5,3.8-8,8-8c4.5,0,8.2,3.5,8.2,8V311.6z"/>
	<path id="a3-shape-1" d="M393.8,314.7v36.4h-4.6v-57.9v-21.3c0-11.8,8.9-21.9,20.2-24c14.5-2.5,28.4,8.9,28.4,24v79.1h-4.6v-79.1
		c0-10.8-9-19.6-19.6-19.6c-10.7,0-19.5,9-19.5,19.6v37.4v5.4H393.8z"/>
	<path id="a3-shape-3" d="M405.5,316c6.9,4,13.7,7.8,20.6,11.8v23.3h-4.6v-20.6l-16-9.2l-4.6-2.6l-7-4v-5.4l7,4L405.5,316z"/>
	<path id="a3-shape-2" d="M413.7,259.2c-6.9,0-12.8,5.9-12.8,12.7v41.3v5.4v32.4h4.3v-29.8V316v-8c7.6,4,14,7.8,21.6,11.8v-47.8
		C426.8,265.2,420.7,259.2,413.7,259.2z M422.5,311.6l-16.2-9.1v-30.6c0-4.5,3.8-8,8-8c4.5,0,8.2,3.5,8.2,8V311.6z"/>
	<path id="a4-shape-1" d="M572.8,314.7v36.4h-4.6v-57.9v-21.3c0-11.8,8.9-21.9,20.2-24c14.5-2.5,28.4,8.9,28.4,24v79.1h-4.6v-79.1
		c0-10.8-9-19.6-19.6-19.6s-19.5,9-19.5,19.6v37.4v5.4H572.8z"/>
	<path id="a4-shape-3" d="M584.4,316c6.9,4,13.7,7.8,20.6,11.8v23.3h-4.6v-20.6l-16-9.2l-4.6-2.6l-7-4v-5.4l7,4L584.4,316z"/>
	<path id="a4-shape-2" d="M592.6,259.2c-6.9,0-12.8,5.9-12.8,12.7v41.3v5.4v32.4h4.3v-29.8V316v-8c7.6,4,14,7.8,21.6,11.8v-47.8
		C605.7,265.2,599.6,259.2,592.6,259.2z M601.3,311.6l-16.2-9.1v-30.6c0-4.5,3.8-8,8-8c4.5,0,8.2,3.5,8.2,8V311.6z"/>
	<polygon id="n-shape-2" points="259.9,278 259.9,351.1 255.2,351.1 255.2,269.3 	"/>
	<polygon id="n-shape-1" points="275,306.2 259.9,278 255.2,269.3 248.2,256.5 248.2,351.1 243.6,351.1 243.6,247.5 248.4,247.5 
		275,296.5 	"/>
	<polygon id="n-shape-3" points="275,282.1 256.2,247.5 261.4,247.5 275,272.6 	"/>
	<polygon id="n-shape-4" points="275,296.5 275,282.1 275,272.6 275,247.5 279.6,247.5 279.6,351.1 275,351.1 275,306.2 	"/>
	<rect id="n-shape-5" x="286.6" y="247.5" width="4.6" height="103.5"/>
	<polygon id="n2-shape-2" points="522.9,278 522.9,351.1 518.2,351.1 518.2,269.3 	"/>
	<polygon id="n2-shape-1" points="538.1,306.2 522.9,278 518.2,269.3 511.3,256.5 511.3,351.1 506.6,351.1 506.6,247.5 511.5,247.5 
		538.1,296.5 	"/>
	<polygon id="n2-shape-3" points="538.1,282.1 519.3,247.5 524.5,247.5 538.1,272.6 	"/>
	<polygon id="n2-shape-4" points="538.1,296.5 538.1,282.1 538.1,272.6 538.1,247.5 542.7,247.5 542.7,351.1 538.1,351.1 
		538.1,306.2 	"/>
	<rect id="n2-shape-5" x="549.7" y="247.5" width="4.6" height="103.5"/>
	<polygon id="f-shape-5" points="347.5,303.1 352.1,303.1 376.8,303.1 376.8,307.8 352.1,307.8 352.1,351.1 347.5,351.1 	"/>
	<path id="d-shape" d="M495.9,301.3c0,11.9-3.5,23.9-10.8,34.1c-4.3,5.6-9.9,10.9-16.6,13.8c-1.4,0.6-3,1.3-4.6,1.8v-12.5
		c-3.2,1.7-7.1,2.7-11.7,2.8v-4.6v-89.2c4,0,7.7,0.6,11.7,1.8c8.3,2.5,15.4,8,21.3,15.7C492.3,275.1,495.9,289.4,495.9,301.3z
		 M491.1,301.3c0-11-3.1-24.2-9.8-33.5c-4.3-5.8-10.3-10.9-17.5-13.6c-2.2-0.9-4.5-1.4-7-1.8V336c2.5-0.4,4.8-1.4,7-2.8v-71.3
		c0.5,0.4,3.7,1.9,4.6,2.8c2.8,2.2,5.2,4.5,7.1,7.2c5.7,7.8,8.5,19.4,8.5,29.3c0,9.8-2.8,19.3-8.5,27.1c-1.9,2.7-4.3,5.1-7.1,7.2
		v8.3c2.2,0,10.5-8.4,12.8-11.4C487.9,323.3,491.1,312.3,491.1,301.3z M468.6,329.6c1.4-1.2,2.4-2.5,3.3-3.9
		c5.1-6.7,7.7-15.5,7.7-24.4c0-8.9-2.6-19.6-7.7-26.6c-1.1-1.4-1.9-2.7-3.3-3.9V329.6z"/>
	<polygon id="v-shape-1" points="627.3,247.5 647.2,346.4 648.1,351.1 646.3,351.1 643.6,351.1 622.8,247.5 	"/>
	<polygon id="v-shape-2" points="655.1,328.8 658.7,346.4 678.1,247.5 683.1,247.5 662.2,351.1 659.6,351.1 657.7,351.1 
		654.8,351.1 652.7,340.5 650.6,328.8 634.4,247.5 638.9,247.5 652.7,317.3 	"/>
	<polygon id="v-shape-3" points="652.7,317.3 666.5,247.5 671.4,247.5 655.1,328.8 	"/>
	<path id="s-shape-2" d="M779.9,270.7c-2.7-4-7.1-6.7-11.7-6.7c-2.4,0-4.5,0.5-6.5,1.7s-3.3,2.6-4.3,4.5c-0.9,1.8-1.2,3.8-0.9,5.8
		c0.4,2.1,1.4,3.9,2.8,5.6c1.5,1.7,3,2.4,7,4.8c3.1,1.9,6.4,3.7,9.8,5.7c3.5,2.1,6.7,4.3,10.3,7.3c1.7,1.5,3.3,3.2,5,5.3
		c1.4,2.2,2.7,4.5,3.7,7c0.9,2.6,1.3,5.2,1.4,7.8c0.1,2.5-0.1,5-0.5,7.1c-0.6,5.1-2.7,9.9-6.3,14s-7.8,6.9-12.8,8.5
		c-4.8,1.7-9.8,2.1-14.9,1.2c-4.8-0.9-9.2-2.6-13.2-5.2c-3.8-2.5-7.1-5.3-10.1-8.9l3.5-3c2.7,3.1,5.8,5.7,9.1,7.8
		c3.5,2.2,7.3,3.9,11.6,4.5c4.1,0.6,8.5,0.5,12.7-0.9c4.3-1.4,7.9-3.8,10.6-7.1c3-3.5,4.6-7.6,5.3-11.7c0.6-4,0.6-8.5-0.8-12.7
		c-1.4-4.3-4.3-7.8-7.2-10.5c-3.1-2.7-6.4-4.8-9.6-6.7c-3.2-1.9-6.5-3.7-9.7-5.6l-2.5-1.4c-2.1-1.2-3.9-2.6-5.6-4.3
		c-2.4-2.5-3.7-5.1-4-8c-0.5-3-0.1-5.8,1.3-8.6c1.4-3,3.3-5.1,6-6.5c2.7-1.5,5.6-2.4,8.9-2.4c6,0,12.7,3.7,15.5,9L779.9,270.7z"/>
	<path id="s-shape-1" d="M789.7,264.6c-0.6-1.1-1.3-1.7-1.9-2.6l-2.2-2.4c-1.7-1.5-3.3-2.8-5.1-3.8c-3.8-2.4-7.9-3.5-12.3-3.5
		c-2.2,0-4.3,0.2-6.4,0.8c-2.1,0.5-4.1,1.4-6,2.5c-3.9,2.2-6.9,5.4-8.9,9.5s-2.6,8.4-1.9,13c0.8,4.5,2.7,8.3,5.8,11.6
		c1.5,1.7,3.1,3.1,4.8,4.1c4.6,3.1,9.7,5.4,14.5,8.4c6,3.7,11.9,7.9,13.8,13.6c0.9,2.7,1.1,5.7,0.5,9.2c-0.5,3.2-1.8,5.9-3.8,8.3
		s-4.4,4-7.6,5.1c-3.1,0.9-6.3,1.2-9.3,0.6c-6.3-1.1-11.9-5.1-16.4-10.1l3.5-3.1c4,4.5,8.6,7.7,13.7,8.5c5.1,0.9,9.7-0.5,12.4-4
		c1.4-1.7,2.4-3.8,2.7-6c0.5-2.7,0.4-5.1-0.2-7c-0.6-1.8-1.9-3.7-4-5.6c-2.2-1.9-4.8-3.8-7.8-5.4c-7.2-4.3-14.9-7.3-20.5-13.5
		c-3.5-3.7-5.9-8.4-6.9-14c-0.9-5.3-0.1-10.9,2.4-15.7c2.5-5,5.9-8.6,10.6-11.4c2.5-1.4,4.8-2.4,7.2-3c2.5-0.5,5-0.9,7.6-0.9
		c5.2,0,10.4,1.5,14.7,4.1c2.2,1.2,4,2.7,5.9,4.4c2.4,2.2,3.9,4,4.8,5.7L789.7,264.6z"/>
	<polygon id="f-shape-1" points="335.8,247.4 335.8,351.1 341.2,351.1 341.2,296 341.2,291.7 341.2,263.6 341.2,259.3 341.2,251.7 
		347.6,251.7 353,251.7 376.8,251.7 376.8,247.4 	"/>
	<rect id="f-shape-2" x="341.2" y="259.3" width="35.6" height="4.3"/>
	<rect id="f-shape-3" x="341.2" y="291.7" width="35.6" height="4.3"/>
	<rect id="f-shape-4" x="347.6" y="251.7" width="5.5" height="44.3"/>
	<rect id="i-shape-1" x="692.1" y="247.5" width="39.1" height="4.6"/>
	<rect id="i-shape-2" x="692.1" y="259.4" width="39.1" height="4.6"/>
	<rect id="i-shape-5" x="692.1" y="334.7" width="39.1" height="4.6"/>
	<rect id="i-shape-6" x="692.1" y="346.4" width="39.1" height="4.6"/>
	<rect id="i-shape-3" x="703.9" y="259.4" width="4.3" height="91.6"/>
	<rect id="i-shape-4" x="714.9" y="247.7" width="4.3" height="91.6"/>
	<rect id="r-shape-2" x="134.4" y="301" width="4.9" height="50.1"/>
	<path id="r-shape-1" d="M127.4,351.1v-66.7l13.2,32.2c0,0,2.3-1.2,4.3-2.9l-1.8-4.2l-20.3-48.2v89.8
		C122.8,351.1,127.4,351.1,127.4,351.1z"/>
	<path id="r-shape-4" d="M151.4,298.6l-16.2-37.9l0,0c-1.1-2.6-2.3-5.3-3.3-7.9c12.7,1.8,23.4,10.6,28.6,22
		c5.2,12.1,3.9,26.1-3.8,36.9c-1.1,1.4-2.2,2.6-3.3,4l14.9,35.4h5.1l-14.6-34.5c9.1-11.1,11.7-26.1,7.6-39.6
		c-4.1-12.8-14.4-23.2-27.2-27.3c-4.5-1.5-9.5-2.2-14.5-2.1l23.5,55.8L151.4,298.6z"/>
	<path id="r-shape-3" d="M139.1,270v-1.3v-1.2c1.7,0.6,3.8,2.5,5.4,4.2c6.6,6.6,9.2,16.7,6.3,26l-2.6,5.7c-1.3,2.2-3,4.1-5.1,6
		c0,0-4.3,3.8-8.6,4.4c0,4.8,0,37.4,0,37.4h4.9v-21.1v-5v-7.7c10.8-5.2,18.5-17.7,17.4-30.2s-9.8-23.1-21.5-26.9L139.1,270z"/>
	<path id="r-shape-5" d="M139.1,325.2c3.1-1.1,5.9-2.7,8.6-4.6l12.8,30.6h-5.1l-9.9-23.8c-2.1,1.1-4.3,2.1-6.5,2.7V325.2z"/>
</g>
<g id="Layer_2">
	<line id="k-path-1" fill="none" stroke="#FF0000" stroke-width="6" x1="7" y1="245.5" x2="7" y2="353"/>
	<line id="k-path-2" fill="none" stroke="#FF0000" stroke-width="6" x1="7" y1="286.7" x2="36.5" y2="353"/>
	<line id="k-path-3" fill="none" stroke="#FF0000" stroke-width="6" x1="18.4" y1="353.2" x2="18.4" y2="312.2"/>
	<polyline id="k-path-4" fill="none" stroke="#FF0000" stroke-width="6" points="18.4,245.3 18.4,282 49.4,353.2 	"/>
	<line id="k-path-5" fill="none" stroke="#FF0000" stroke-width="6" x1="18.4" y1="275.5" x2="32.4" y2="245.3"/>
	<line id="k-path-6" fill="none" stroke="#FF0000" stroke-width="6" x1="23.5" y1="293.7" x2="45" y2="245.5"/>
	<path id="a-path-1" fill="none" stroke="#FF0000" stroke-width="6" d="M61.5,353.2v-82.1c0,0,1.9-21.8,22.5-21.8
		s21.8,21.5,21.8,21.5v82.4"/>
	<path id="a-path-2" fill="none" stroke="#FF0000" stroke-width="6" d="M73.4,353.2v-82.1c0,0,1.9-9.9,10.7-9.9s10.9,9.6,10.9,9.6
		v44.6l-20.7-11.6"/>
	<polyline id="a-path-3" fill="none" stroke="#FF0000" stroke-width="6" points="61.5,310.7 95,329.3 95,353.2 	"/>
	<path id="a2-path-1" fill="none" stroke="#FF0000" stroke-width="6" d="M183.8,353.2v-82.1c0,0,1.9-21.8,22.5-21.8
		s21.8,21.4,21.8,21.4v82.4"/>
	<path id="a2-path-2" fill="none" stroke="#FF0000" stroke-width="6" d="M195.6,353.2v-82.1c0,0,1.9-9.9,10.7-9.9
		c8.9,0,10.9,9.5,10.9,9.5v44.6l-20.7-11.6"/>
	<polyline id="a2-path-3" fill="none" stroke="#FF0000" stroke-width="6" points="182.6,310.7 216,329.3 216,353.2 	"/>
	<path id="a3-path-1" fill="none" stroke="#FF0000" stroke-width="6" d="M391.4,353.2v-82.1c0,0,1.9-21.8,22.5-21.8
		s21.8,21.4,21.8,21.4v82.4"/>
	<path id="a3-path-2" fill="none" stroke="#FF0000" stroke-width="6" d="M403.9,353.2v-82.1c0,0,1.9-9.9,10.7-9.9
		c8.7,0,10.9,9.5,10.9,9.5v44.6l-20.7-11.6"/>
	<polyline id="a3-path-3" fill="none" stroke="#FF0000" stroke-width="6" points="390.7,310.7 424.2,329.3 424.2,353.2 	"/>
	<path id="a4-path-1" fill="none" stroke="#FF0000" stroke-width="6" d="M569.8,353.2v-82.1c0,0,1.9-21.8,22.5-21.8
		s21.8,21.4,21.8,21.4v82.4"/>
	<path id="a4-path-2" fill="none" stroke="#FF0000" stroke-width="6" d="M582.3,353.2v-82.1c0,0,1.9-9.9,10.7-9.9s10.9,9.5,10.9,9.5
		v44.6l-20.7-11.6"/>
	<polyline id="a4-path-3" fill="none" stroke="#FF0000" stroke-width="6" points="569.2,310.7 602.6,329.3 602.6,353.2 	"/>
	<polyline id="r-path-1" fill="none" stroke="#FF0000" stroke-width="6" stroke-miterlimit="10" points="124.2,353.2 124.2,270.1 
		142.6,316.7 	"/>
	
		<line id="r-path-2" fill="none" stroke="#FF0000" stroke-width="6" stroke-miterlimit="10" x1="137.1" y1="353.2" x2="137.1" y2="302.5"/>
	<path id="r-path-3" fill="none" stroke="#FF0000" stroke-width="6" stroke-miterlimit="10" d="M137.1,285.2v-20.9
		c0,0,15.4,4.6,17.1,23.3c1.6,18.7-17.1,29.3-17.1,29.3"/>
	<path id="r-path-4" fill="none" stroke="#FF0000" stroke-width="6" stroke-miterlimit="10" d="M150.5,303.5l-22.9-54
		c0,0,16,0.3,28.3,13.8c12.2,13.5,11.6,32.2,8.3,39.2c-3.2,7-7.4,13.7-7.4,13.7l15.1,36.9"/>
	<path id="r-path-5" fill="none" stroke="#FF0000" stroke-width="6" stroke-miterlimit="10" d="M137.1,328.6c0,0,5.4-1.4,9.5-4.3
		l11.9,28.8"/>
	<polyline id="n-path-1" fill="none" stroke="#FF0000" stroke-width="6" points="245.1,353.2 245.1,245.3 279.6,311.7 	"/>
	<line id="n-path-2" fill="none" stroke="#FF0000" stroke-width="6" x1="257.5" y1="353.2" x2="257.5" y2="266.2"/>
	<line id="n-path-3" fill="none" stroke="#FF0000" stroke-width="6" x1="257.5" y1="245.3" x2="279.6" y2="286.7"/>
	<line id="n-path-4" fill="none" stroke="#FF0000" stroke-width="6" x1="277.4" y1="245.3" x2="277.4" y2="353.2"/>
	<line id="n-path-5" fill="none" stroke="#FF0000" stroke-width="6" x1="289" y1="245.3" x2="289" y2="353.2"/>
	<polyline id="n2-path-1" fill="none" stroke="#FF0000" stroke-width="6" points="508.9,353.2 508.9,245.3 543.5,311.7 	"/>
	<line id="n2-path-2" fill="none" stroke="#FF0000" stroke-width="6" x1="521.3" y1="353.2" x2="521.3" y2="266.2"/>
	<line id="n2-path-3" fill="none" stroke="#FF0000" stroke-width="6" x1="521.3" y1="245.3" x2="543.5" y2="286.7"/>
	<line id="n2-path-4" fill="none" stroke="#FF0000" stroke-width="6" x1="541.1" y1="245.3" x2="541.1" y2="353.2"/>
	<line id="n2-path-5" fill="none" stroke="#FF0000" stroke-width="6" x1="552.8" y1="245.3" x2="552.8" y2="353.2"/>
	<polyline id="f-path-1" fill="none" stroke="#FF0000" stroke-width="6" points="337.9,353.2 337.9,249.4 378.4,249.4 	"/>
	<line id="f-path-2" fill="none" stroke="#FF0000" stroke-width="6" x1="337.2" y1="261.5" x2="378.4" y2="261.5"/>
	<line id="f-path-3" fill="none" stroke="#FF0000" stroke-width="6" x1="337.9" y1="293.8" x2="378.4" y2="293.8"/>
	<line id="f-path-4" fill="none" stroke="#FF0000" stroke-width="6" x1="350.4" y1="249.4" x2="350.4" y2="293.8"/>
	<polyline id="f-path-5" fill="none" stroke="#FF0000" stroke-width="6" points="349.6,353.2 349.6,305.7 378.4,305.7 	"/>
	<path id="d-path" fill="none" stroke="#FF0000" stroke-width="6" d="M465.9,307.2v-41.1c0,0,16,9.4,16,34.2s-16.4,37.6-27,38.3
		v-89.3c0,0,38.7,4.1,38.7,51.9c0,33.3-27.3,46.3-27.3,46.3l-0.3-49.1"/>
	<line id="v-path-1" fill="none" stroke="#FF0000" stroke-width="6" x1="624.5" y1="245.3" x2="645.9" y2="353.2"/>
	<polyline id="v-path-2" fill="none" stroke="#FF0000" stroke-width="6" points="635.5,245.3 658.4,355.6 681.1,245.3 	"/>
	<line id="v-path-3" fill="none" stroke="#FF0000" stroke-width="6" x1="652.7" y1="328.8" x2="669" y2="245.3"/>
	<line id="i-path-1" fill="none" stroke="#FF0000" stroke-width="6" x1="690.2" y1="249.9" x2="733" y2="249.9"/>
	<line id="i-path-2" fill="none" stroke="#FF0000" stroke-width="6" x1="690.2" y1="261.7" x2="733" y2="261.7"/>
	<line id="i-path-3" fill="none" stroke="#FF0000" stroke-width="6" x1="690.2" y1="336.9" x2="733" y2="336.9"/>
	<line id="i-path-4" fill="none" stroke="#FF0000" stroke-width="6" x1="690.2" y1="348.8" x2="733" y2="348.8"/>
	<line id="i-path-5" fill="none" stroke="#FF0000" stroke-width="6" x1="706.1" y1="261.7" x2="706.1" y2="348.8"/>
	<line id="i-path-6" fill="none" stroke="#FF0000" stroke-width="6" x1="717.1" y1="249.9" x2="717.1" y2="336.9"/>
	<path id="s-path-1" fill="none" stroke="#FF0000" stroke-width="6" d="M747.2,325.3c0,0,10,11.9,19.6,11.7
		c9.6-0.1,14.6-6.2,15.5-14.7c1-8.5-7.6-16-24.4-23.8c-14-6.5-20.1-27.2-8.4-41.3c9.8-11.9,35.5-6.5,42.6,6.8"/>
	<path id="s-path-2" fill="none" stroke="#FF0000" stroke-width="6" d="M782.7,271.4c0,0-3.7-9-12.7-9.7c-9.1-0.8-13.2,4.4-14.3,6.6
		c-1.1,2.2-4.3,10.3,1.8,14.9c6.2,4.6,24,13.8,27.2,17.2c3.2,3.3,9.5,10,9,20.1c-0.5,10-3.3,19.1-10.3,23.2
		c-6.8,4.1-17.1,6.7-25,3.6c-7.9-3-19.6-13.7-19.6-13.7"/>
</g>
</svg>
