<?xml version="1.0" encoding="utf-8"?>
<!-- Generator: Adobe Illustrator 18.1.1, SVG Export Plug-In . SVG Version: 6.00 Build 0)  -->
<svg version="1.1" id="Layer_1" xmlns="http://www.w3.org/2000/svg" xmlns:xlink="http://www.w3.org/1999/xlink" x="0px" y="0px"
	 viewBox="0 0 626 226.5" enable-background="new 0 0 626 226.5" xml:space="preserve">
<g>
	<polyline fill="#FFF8F0" points="625.5,0.5 0.5,0.5 0.5,226 625.5,226 625.5,0.5 	"/>
	<path fill="#EDEEF9" d="M625.7,226.2L625.7,226.2V226V226.2h0.3H625.7 M0.5,226V0.5h625V226H0.5 M626,0H0v226.5h626v-0.3V0"/>
</g>
<g>
	<g>
		<g>
			<g>
				<path fill="#F9AF00" d="M355,89.7c1.1-0.9,0.3,1.3,1.7,1.4c1.2,0,0-2.3,0.6-1.3c0.6,1,1-0.2,0.4,0.8c-0.7,1.3,1,4-0.3,4.5
					c-2.2,0.8-3.3-1.1-5.3-2.3C350.4,91.7,353.3,91.1,355,89.7z"/>
				<path fill="#F9AF00" d="M350.3,89.6c0-2.3-1.1-4.2,0.6-5.7c1.1-0.9,2.6,1.9,4.1,2c1.2,0-0.1-0.2,0.5,0.8c0.6,1-0.9-1.2-1.4-0.1
					c-0.7,1.3,1.6,1.7,0.3,2.2C352.3,89.4,350.4,91.6,350.3,89.6z"/>
			</g>
			<polygon fill="#7F1713" points="364.6,80.3 367.4,80.6 369.7,80.5 368.4,82.4 367.3,85 362.8,84.5 			"/>
			<g>
				<g>
					<circle fill="#E63C13" cx="361.8" cy="85" r="0.3"/>
				</g>
				<g>
					<path fill="#E63C13" d="M360.9,85.1c0.2-0.1,0.5,0,0.6,0.2c0.1,0.2,0,0.5-0.2,0.6c-0.2,0.1-0.5,0-0.6-0.2
						C360.6,85.5,360.6,85.2,360.9,85.1z"/>
				</g>
				<g>
					<circle fill="#E63C13" cx="359.8" cy="86.2" r="0.7"/>
				</g>
				<g>
					<path fill="#E63C13" d="M357.1,86.4c0.6-0.3,1.3-0.1,1.6,0.4c0.3,0.6,0.1,1.3-0.4,1.6c-0.6,0.3-1.3,0.1-1.6-0.4
						C356.3,87.5,356.5,86.8,357.1,86.4z"/>
				</g>
			</g>
		</g>
		<g>
			<g>
				<path fill="#F9AF00" d="M344.4,76.7c0.7-1.2,0.8,1.1,2.1,0.7c1.1-0.4-0.8-2.2,0.1-1.4c0.9,0.7,0.9-0.5,0.7,0.6
					c-0.2,1.4,2.3,3.4,1.2,4.3c-1.8,1.5-3.5,0.1-5.7-0.4C340.8,80.2,343.3,78.7,344.4,76.7z"/>
				<path fill="#F9AF00" d="M340,78.2c-0.8-2.1-2.5-3.6-1.4-5.6c0.7-1.2,3.1,0.9,4.5,0.4c1.1-0.4-0.1-0.2,0.7,0.6
					c0.9,0.7-1.2-0.8-1.4,0.3c-0.2,1.4,2.1,1,1,2C341.8,77.4,340.7,80.2,340,78.2z"/>
			</g>
			<polygon fill="#7F1713" points="350.2,64.6 353,64 355.1,63.1 354.6,65.3 354.4,68.1 349.9,69.2 			"/>
			<g>
				<g>
					<circle fill="#E63C13" cx="349.2" cy="70" r="0.3"/>
				</g>
				<g>
					<path fill="#E63C13" d="M348.3,70.4c0.1-0.2,0.4-0.2,0.6-0.1c0.2,0.2,0.2,0.4,0.1,0.6c-0.2,0.2-0.4,0.2-0.6,0.1
						C348.2,70.9,348.2,70.6,348.3,70.4z"/>
				</g>
				<g>
					<path fill="#E63C13" d="M347.2,71.4c0.3-0.3,0.7-0.3,1-0.1c0.3,0.3,0.3,0.7,0.1,1c-0.3,0.3-0.7,0.3-1,0.1
						C347,72.1,346.9,71.7,347.2,71.4z"/>
				</g>
				<g>
					<path fill="#E63C13" d="M345.2,73c0.4-0.5,1.2-0.6,1.7-0.1c0.5,0.4,0.6,1.2,0.1,1.7c-0.4,0.5-1.2,0.6-1.7,0.1
						C344.9,74.2,344.8,73.5,345.2,73z"/>
				</g>
			</g>
		</g>
		<g>
			<g>
				<path fill="#F9AF00" d="M330,68.2c0.2-1.4,1.1,0.8,2.2-0.1c0.9-0.7-1.5-1.8-0.4-1.4c1.1,0.4,0.6-0.8,0.9,0.4
					c0.3,1.4,3.3,2.4,2.6,3.7c-1.1,2-3.3,1.2-5.5,1.6C327.8,72.7,329.6,70.4,330,68.2z"/>
				<path fill="#F9AF00" d="M326.4,71.1c-1.5-1.7-3.6-2.5-3.2-4.8c0.3-1.4,3.3-0.2,4.4-1.1c0.9-0.7-0.2-0.1,0.9,0.3
					c1.1,0.4-1.4-0.3-1.2,0.8c0.3,1.4,2.3,0.2,1.6,1.5C327.8,69.7,327.7,72.7,326.4,71.1z"/>
			</g>
			<polygon fill="#7F1713" points="331.3,54.8 333.7,53.3 335.4,51.7 335.7,54 336.5,56.7 332.7,59.2 			"/>
			<g>
				<g>
					<circle fill="#E63C13" cx="332.3" cy="60.2" r="0.3"/>
				</g>
				<g>
					<circle fill="#E63C13" cx="332" cy="61.1" r="0.4"/>
				</g>
				<g>
					<circle fill="#E63C13" cx="331.5" cy="62.5" r="0.7"/>
				</g>
				<g>
					<circle fill="#E63C13" cx="330.6" cy="64.8" r="1.2"/>
				</g>
			</g>
		</g>
		<g>
			<g>
				<path fill="#F9AF00" d="M313.6,65.1c-0.2-1.4,1.3,0.4,2-0.8c0.6-1-2-1.1-0.8-1.1c1.2,0,0.3-0.9,0.9,0c0.8,1.2,4,1.1,3.7,2.5
					c-0.4,2.3-2.6,2.3-4.6,3.4C313,70.1,314,67.3,313.6,65.1z"/>
				<path fill="#F9AF00" d="M311.1,69.1c-2-1.1-4.2-1.1-4.6-3.4c-0.2-1.4,3-1.3,3.7-2.5c0.6-1-0.2,0,0.9,0c1.2,0-1.4,0.2-0.8,1.1
					c0.8,1.2,2.3-0.6,2,0.8C312,67.3,313,70.1,311.1,69.1z"/>
			</g>
			<polygon fill="#7F1713" points="310.3,52.1 312,49.8 313,47.7 314,49.8 315.7,52.1 313,55.8 			"/>
			<g>
				<g>
					<circle fill="#E63C13" cx="313" cy="56.8" r="0.3"/>
				</g>
				<g>
					<circle fill="#E63C13" cx="313" cy="57.7" r="0.4"/>
				</g>
				<g>
					<circle fill="#E63C13" cx="313" cy="59.2" r="0.7"/>
				</g>
				<g>
					<circle fill="#E63C13" cx="313" cy="61.7" r="1.2"/>
				</g>
			</g>
		</g>
		<g>
			<g>
				<path fill="#F9AF00" d="M297.1,67.8c-0.7-1.2,1.3-0.1,1.6-1.5c0.2-1.1-2.3-0.4-1.2-0.8c1.1-0.4,0-1,0.9-0.3
					c1.1,0.9,4.1-0.3,4.4,1.1c0.4,2.3-1.7,3-3.2,4.8C298.3,72.7,298.2,69.7,297.1,67.8z"/>
				<path fill="#F9AF00" d="M296.2,72.4c-2.3-0.4-4.4,0.4-5.5-1.6c-0.7-1.2,2.3-2.3,2.6-3.7c0.2-1.1-0.2,0,0.9-0.4
					c1.1-0.4-1.3,0.6-0.4,1.4c1.1,0.9,2-1.3,2.2,0.1C296.4,70.4,298.2,72.7,296.2,72.4z"/>
			</g>
			<polygon fill="#7F1713" points="289.5,56.7 290.3,54 290.6,51.7 292.3,53.3 294.7,54.8 293.3,59.2 			"/>
			<g>
				<g>
					<circle fill="#E63C13" cx="293.7" cy="60.2" r="0.3"/>
				</g>
				<g>
					<circle fill="#E63C13" cx="294" cy="61.1" r="0.4"/>
				</g>
				<g>
					<circle fill="#E63C13" cx="294.5" cy="62.5" r="0.7"/>
				</g>
				<g>
					<circle fill="#E63C13" cx="295.4" cy="64.8" r="1.2"/>
				</g>
			</g>
		</g>
		<g>
			<g>
				<path fill="#F9AF00" d="M282.5,75.9c-1.1-0.9,1.2-0.5,1-1.9c-0.2-1.2-2.3,0.4-1.4-0.4c0.9-0.7-0.4-0.9,0.7-0.6
					c1.3,0.4,3.8-1.7,4.5-0.4c1.1,2-0.5,3.4-1.4,5.6C285.3,80.2,284.2,77.4,282.5,75.9z"/>
				<path fill="#F9AF00" d="M283.2,80.6c-2.3,0.4-4,1.8-5.7,0.4c-1.1-0.9,1.4-2.9,1.2-4.3c-0.2-1.2-0.2,0.1,0.7-0.6
					c0.9-0.7-1,1.1,0.1,1.4c1.3,0.4,1.4-1.9,2.1-0.7C282.7,78.7,285.2,80.2,283.2,80.6z"/>
			</g>
			<polygon fill="#7F1713" points="271.6,68.1 271.4,65.3 270.9,63.1 273,64 275.8,64.6 276,69.2 			"/>
			<g>
				<g>
					<circle fill="#E63C13" cx="276.7" cy="70" r="0.3"/>
				</g>
				<g>
					<circle fill="#E63C13" cx="277.3" cy="70.7" r="0.4"/>
				</g>
				<g>
					<circle fill="#E63C13" cx="278.3" cy="71.8" r="0.7"/>
				</g>
				<g>
					<circle fill="#E63C13" cx="279.8" cy="73.7" r="1.2"/>
				</g>
			</g>
		</g>
		<g>
			<g>
				<path fill="#F9AF00" d="M271.6,88.6c-1.3-0.5,1-0.9,0.3-2.2c-0.5-1-2,1.1-1.4,0.1c0.6-1-0.7-0.8,0.5-0.8c1.4-0.1,3-2.9,4.1-2
					c1.8,1.5,0.7,3.4,0.6,5.7C275.6,91.6,273.7,89.4,271.6,88.6z"/>
				<path fill="#F9AF00" d="M273.8,92.7c-2,1.2-3.1,3.1-5.3,2.3c-1.3-0.5,0.3-3.2-0.3-4.5c-0.5-1-0.1,0.2,0.4-0.8
					c0.6-1-0.6,1.3,0.6,1.3c1.4-0.1,0.7-2.3,1.7-1.4C272.7,91.1,275.6,91.7,273.8,92.7z"/>
			</g>
			<polygon fill="#7F1713" points="258.7,85 257.5,82.4 256.3,80.5 258.6,80.6 261.4,80.3 263.2,84.5 			"/>
			<g>
				<g>
					<circle fill="#E63C13" cx="264.2" cy="85" r="0.3"/>
				</g>
				<g>
					<circle fill="#E63C13" cx="264.9" cy="85.5" r="0.4"/>
				</g>
				<g>
					<circle fill="#E63C13" cx="266.2" cy="86.2" r="0.7"/>
				</g>
				<g>
					<circle fill="#E63C13" cx="268.3" cy="87.5" r="1.2"/>
				</g>
			</g>
		</g>
	</g>
	<g>
		<g>
			<path fill="#E94D1A" d="M388.4,85.5l-1.5,1.4l-0.7,0c-5-1.9-8.4-2.1-10.7,0c-0.4,0.4-0.7,0.8-0.9,1.4c0.8-0.1,2.7,0,4.1,0.2
				c1.4,0.2,4.1,0.2,6.4-0.5l-0.6,1.7l-2.7,2.5c-2.9,2.7-5.3,2.8-6.9,1c-0.7-0.8-1-2.1-1-3.2c-1.5,0.1-2.9,0.5-3.9,1.4
				c-1.5,1.4-1.9,3.4-1.9,5.9l-0.3-0.1c-0.5-2.4-0.2-5.3,1.7-7.1c1.3-1.2,2.8-1.7,4.6-1.8c0.1-1,0.6-2,1.5-2.8
				c2.6-2.4,6.7-2.1,11.7,0.2l1.4-0.4L388.4,85.5z M376.8,90c-0.7,0-1.7-0.1-2.5,0c0.2,0.6,0.4,1,0.9,1.5c1.5,1.6,4,1.5,7-1.2l1-0.9
				C381.7,89.9,379,90.1,376.8,90z"/>
		</g>
		<g>
			<path fill="#E94D1A" d="M374.4,61.4l-1,1.9l-0.7,0.2c-5.3-0.1-8.6,0.9-10.1,3.7c-0.2,0.5-0.4,1-0.4,1.6c0.8-0.3,2.5-0.9,3.9-1.2
				c1.4-0.3,3.9-1.2,5.8-2.6l0,1.8l-1.7,3.3c-1.8,3.5-4.1,4.4-6.2,3.3c-0.9-0.5-1.7-1.6-2-2.7c-1.4,0.6-2.6,1.5-3.2,2.7
				c-1,1.9-0.6,3.8,0.2,6.2l-0.3,0c-1.3-2.1-2.1-4.9-0.8-7.3c0.8-1.5,2-2.5,3.8-3.3c-0.2-1-0.1-2.1,0.5-3.2c1.6-3.2,5.6-4.2,11-3.8
				l1.2-0.9L374.4,61.4z M365,69.5c-0.7,0.2-1.6,0.5-2.4,0.9c0.3,0.5,0.8,0.8,1.3,1.1c2,1,4.3,0,6.1-3.5l0.6-1.2
				C369.6,67.8,367.1,68.9,365,69.5z"/>
		</g>
		<g>
			<path fill="#E94D1A" d="M353,43.5l-0.3,2.1l-0.6,0.5c-5,1.7-7.8,3.8-8.2,6.9c-0.1,0.5,0,1.1,0.2,1.6c0.6-0.6,2.1-1.7,3.3-2.5
				c1.2-0.8,3.2-2.5,4.6-4.5l0.6,1.7l-0.5,3.7c-0.5,3.9-2.3,5.6-4.7,5.2c-1-0.1-2.1-0.9-2.8-1.8c-1.1,1.1-1.9,2.3-2.1,3.6
				c-0.3,2.1,0.7,3.8,2.3,5.7l-0.3,0.1c-1.9-1.6-3.6-3.9-3.3-6.5c0.2-1.7,1.1-3.1,2.4-4.3c-0.5-0.9-0.8-2-0.7-3.1
				c0.5-3.5,3.8-5.9,9.1-7.3l0.8-1.2L353,43.5z M346.9,54.4c-0.6,0.5-1.3,1-1.9,1.6c0.5,0.3,1,0.5,1.6,0.6c2.2,0.3,4-1.5,4.6-5.4
				l0.2-1.3C350.6,51.2,348.7,53,346.9,54.4z"/>
		</g>
		<g>
			<path fill="#E94D1A" d="M326.7,34l0.5,2.1l-0.4,0.6c-4.1,3.4-6,6.2-5.3,9.3c0.1,0.5,0.4,1,0.7,1.5c0.4-0.8,1.4-2.3,2.2-3.5
				c0.8-1.1,2.2-3.5,2.8-5.8l1.1,1.4l0.8,3.6c0.9,3.9-0.3,6-2.6,6.5c-1,0.2-2.3-0.2-3.3-0.8c-0.6,1.4-1,2.8-0.7,4.1
				c0.5,2.1,2,3.3,4.1,4.6l-0.2,0.2c-2.3-0.8-4.7-2.4-5.3-5c-0.4-1.7,0-3.2,0.8-4.9c-0.8-0.6-1.4-1.6-1.7-2.7c-0.8-3.5,1.6-6.8,6-10
				l0.4-1.4L326.7,34z M324.7,46.3c-0.4,0.6-0.9,1.4-1.3,2.2c0.6,0.1,1.1,0.2,1.8,0c2.2-0.5,3.3-2.8,2.4-6.6l-0.3-1.3
				C327.1,42,325.9,44.5,324.7,46.3z"/>
		</g>
		<g>
			<path fill="#E94D1A" d="M298.8,34.1l1.1,1.8l-0.2,0.7c-2.7,4.6-3.5,7.9-1.8,10.6c0.3,0.4,0.7,0.8,1.2,1.1c0.1-0.8,0.5-2.7,0.9-4
				c0.4-1.3,0.9-4,0.6-6.4l1.5,0.9l2,3.1c2.1,3.3,1.8,5.7-0.2,7c-0.9,0.6-2.2,0.7-3.3,0.4c-0.1,1.5,0,3,0.7,4.1
				c1.1,1.8,3,2.5,5.5,2.9l-0.1,0.3c-2.5,0-5.3-0.7-6.7-2.9c-0.9-1.4-1.2-3-0.9-4.9c-1-0.3-1.9-1-2.5-2c-1.9-3-0.9-7,2.2-11.4
				l-0.2-1.5L298.8,34.1z M301.1,46.4c-0.2,0.7-0.4,1.6-0.4,2.5c0.6-0.1,1.1-0.2,1.7-0.6c1.9-1.2,2.2-3.7,0-7.1l-0.7-1.1
				C301.9,41.5,301.6,44.2,301.1,46.4z"/>
		</g>
		<g>
			<path fill="#E94D1A" d="M272.6,43.8l1.7,1.3l0.1,0.7c-1,5.2-0.6,8.6,1.9,10.6c0.4,0.3,0.9,0.5,1.5,0.6c-0.2-0.8-0.5-2.7-0.5-4.1
				c-0.1-1.4-0.5-4.1-1.6-6.2l1.7,0.3l2.9,2.2c3.1,2.4,3.7,4.8,2.2,6.7c-0.6,0.8-1.9,1.4-3,1.5c0.4,1.5,1,2.8,2.1,3.6
				c1.7,1.3,3.7,1.3,6.1,0.9l-0.1,0.3c-2.3,0.9-5.2,1.2-7.3-0.4c-1.4-1-2.1-2.4-2.5-4.3c-1,0-2.1-0.3-3-1c-2.8-2.2-3.2-6.2-1.8-11.5
				l-0.6-1.3L272.6,43.8z M279,54.5c0.1,0.7,0.2,1.7,0.4,2.5c0.5-0.3,1-0.6,1.4-1.1c1.4-1.8,0.7-4.2-2.4-6.6l-1-0.8
				C278.1,49.6,278.7,52.2,279,54.5z"/>
		</g>
		<g>
			<path fill="#E94D1A" d="M251.2,61.8l2,0.6l0.3,0.7c0.8,5.2,2.4,8.3,5.4,9.3c0.5,0.2,1,0.2,1.6,0.1c-0.5-0.7-1.3-2.4-1.9-3.6
				c-0.6-1.3-1.9-3.6-3.6-5.3l1.7-0.3l3.5,1.1c3.8,1.2,5.1,3.2,4.4,5.5c-0.3,1-1.3,1.9-2.3,2.5c0.9,1.2,1.9,2.3,3.2,2.7
				c2,0.6,3.9,0,6.1-1.3l0,0.3c-1.9,1.6-4.5,2.9-7,2.1c-1.6-0.5-2.8-1.6-3.9-3.1c-1,0.4-2.1,0.5-3.2,0.1c-3.4-1.1-5.1-4.8-5.7-10.2
				l-1.1-1L251.2,61.8z M260.9,69.6c0.3,0.7,0.8,1.5,1.2,2.2c0.4-0.4,0.7-0.9,0.9-1.5c0.7-2.1-0.7-4.2-4.5-5.4l-1.3-0.4
				C258.4,65.4,259.9,67.7,260.9,69.6z"/>
		</g>
		<g>
			<path fill="#E94D1A" d="M237.4,86l2.1-0.1l0.6,0.5c2.6,4.6,5.1,7,8.2,6.9c0.5,0,1-0.2,1.6-0.5c-0.7-0.5-2.1-1.8-3-2.8
				c-1-1-3-2.8-5.2-3.7l1.5-0.9l3.7-0.2c4-0.2,5.9,1.3,6,3.7c0,1.1-0.6,2.3-1.3,3.1c1.2,0.9,2.6,1.5,3.9,1.4
				c2.1-0.1,3.6-1.4,5.3-3.3l0.1,0.3c-1.2,2.2-3.2,4.2-5.9,4.4c-1.7,0.1-3.2-0.5-4.7-1.6c-0.8,0.7-1.8,1.1-3,1.2
				c-3.6,0.2-6.5-2.7-8.8-7.6l-1.3-0.6L237.4,86z M249.2,90.1c0.5,0.5,1.2,1.1,1.9,1.6c0.2-0.5,0.3-1.1,0.3-1.7
				c-0.1-2.2-2.2-3.7-6.1-3.5l-1.3,0.1C245.3,87,247.5,88.6,249.2,90.1z"/>
		</g>
	</g>
	<g>
		<g>
			<g>
				<path fill="#F9AF00" d="M271,136.8c-1.1,0.9-0.3-1.3-1.7-1.4c-1.2,0,0,2.3-0.6,1.3c-0.6-1-1,0.2-0.4-0.8c0.7-1.2-1-4,0.3-4.5
					c2.2-0.8,3.3,1.1,5.3,2.3C275.6,134.8,272.7,135.3,271,136.8z"/>
				<path fill="#F9AF00" d="M275.7,136.9c0,2.3,1.1,4.2-0.6,5.7c-1.1,0.9-2.6-1.9-4.1-2c-1.2,0,0.1,0.2-0.5-0.8
					c-0.6-1,0.9,1.2,1.4,0.1c0.7-1.3-1.6-1.7-0.3-2.2C273.7,137,275.6,134.8,275.7,136.9z"/>
			</g>
			<polygon fill="#7F1713" points="261.4,146.2 258.6,145.8 256.3,146 257.5,144 258.6,141.4 263.2,142 			"/>
			<g>
				<g>
					<circle fill="#E63C13" cx="264.1" cy="141.4" r="0.3"/>
				</g>
				<g>
					<path fill="#E63C13" d="M265.1,141.3c-0.2,0.1-0.5,0-0.6-0.2c-0.1-0.2,0-0.5,0.2-0.6c0.2-0.1,0.5,0,0.6,0.2
						C265.4,141,265.3,141.2,265.1,141.3z"/>
				</g>
				<g>
					<path fill="#E63C13" d="M266.6,140.9c-0.3,0.2-0.8,0.1-1-0.3c-0.2-0.3-0.1-0.8,0.3-1c0.3-0.2,0.8-0.1,1,0.3
						C267,140.2,266.9,140.7,266.6,140.9z"/>
				</g>
				<g>
					<circle fill="#E63C13" cx="268.3" cy="139" r="1.2"/>
				</g>
			</g>
		</g>
		<g>
			<g>
				<path fill="#F9AF00" d="M281.6,149.8c-0.7,1.2-0.8-1.1-2.1-0.7c-1.1,0.4,0.8,2.2-0.1,1.4c-0.9-0.7-0.9,0.5-0.7-0.6
					c0.2-1.4-2.3-3.4-1.2-4.3c1.8-1.5,3.5-0.1,5.7,0.4C285.2,146.3,282.7,147.8,281.6,149.8z"/>
				<path fill="#F9AF00" d="M286,148.3c0.8,2.1,2.5,3.6,1.4,5.6c-0.7,1.2-3.1-0.9-4.5-0.5c-1.1,0.4,0.1,0.2-0.7-0.6
					c-0.9-0.7,1.2,0.8,1.4-0.3c0.2-1.4-2.1-1-1-1.9C284.2,149,285.3,146.3,286,148.3z"/>
			</g>
			<polygon fill="#7F1713" points="275.8,161.8 273,162.5 270.9,163.4 271.4,161.1 271.6,158.3 276,157.3 			"/>
			<g>
				<g>
					<circle fill="#E63C13" cx="276.7" cy="156.4" r="0.3"/>
				</g>
				<g>
					<path fill="#E63C13" d="M277.6,156c-0.1,0.2-0.4,0.2-0.6,0.1c-0.2-0.2-0.2-0.4-0.1-0.6c0.2-0.2,0.4-0.2,0.6-0.1
						C277.8,155.6,277.8,155.8,277.6,156z"/>
				</g>
				<g>
					<path fill="#E63C13" d="M278.8,155.1c-0.3,0.3-0.7,0.3-1,0.1c-0.3-0.3-0.3-0.7-0.1-1c0.3-0.3,0.7-0.3,1-0.1
						C279,154.3,279.1,154.8,278.8,155.1z"/>
				</g>
				<g>
					<circle fill="#E63C13" cx="279.8" cy="152.7" r="1.2"/>
				</g>
			</g>
		</g>
		<g>
			<g>
				<path fill="#F9AF00" d="M296,158.3c-0.3,1.4-1.1-0.8-2.2,0.1c-0.9,0.7,1.5,1.8,0.4,1.4c-1.1-0.4-0.6,0.8-0.9-0.4
					c-0.3-1.4-3.3-2.4-2.6-3.7c1.1-2,3.3-1.2,5.5-1.6C298.2,153.8,296.4,156,296,158.3z"/>
				<path fill="#F9AF00" d="M299.6,155.4c1.5,1.7,3.6,2.5,3.2,4.8c-0.3,1.4-3.2,0.2-4.4,1.1c-0.9,0.7,0.2,0.1-0.9-0.3
					c-1.1-0.4,1.4,0.3,1.2-0.8c-0.3-1.4-2.3-0.2-1.6-1.5C298.2,156.7,298.3,153.8,299.6,155.4z"/>
			</g>
			<polygon fill="#7F1713" points="294.6,171.6 292.3,173.2 290.6,174.8 290.3,172.5 289.5,169.8 293.3,167.2 			"/>
			<g>
				<g>
					<circle fill="#E63C13" cx="293.7" cy="166.2" r="0.3"/>
				</g>
				<g>
					<circle fill="#E63C13" cx="294" cy="165.4" r="0.4"/>
				</g>
				<g>
					<path fill="#E63C13" d="M295.2,164.2c-0.1,0.4-0.5,0.6-0.9,0.4c-0.4-0.1-0.6-0.5-0.4-0.9c0.1-0.4,0.5-0.6,0.9-0.4
						C295.1,163.5,295.3,163.9,295.2,164.2z"/>
				</g>
				<g>
					<circle fill="#E63C13" cx="295.4" cy="161.7" r="1.2"/>
				</g>
			</g>
		</g>
		<g>
			<g>
				<path fill="#F9AF00" d="M312.4,161.4c0.2,1.4-1.3-0.4-2,0.8c-0.6,1,2,1.1,0.8,1.1c-1.2,0-0.3,0.9-0.9,0c-0.8-1.2-4-1.1-3.7-2.5
					c0.4-2.3,2.6-2.3,4.6-3.4C313,156.4,312,159.2,312.4,161.4z"/>
				<path fill="#F9AF00" d="M314.8,157.4c2,1.1,4.2,1.1,4.6,3.4c0.2,1.4-3,1.3-3.7,2.5c-0.6,1,0.2,0-0.9,0c-1.2,0,1.4-0.2,0.8-1.1
					c-0.8-1.2-2.3,0.6-2-0.8C314,159.2,313,156.4,314.8,157.4z"/>
			</g>
			<polygon fill="#7F1713" points="315.7,174.4 314,176.7 313,178.7 311.9,176.7 310.2,174.4 313,170.7 			"/>
			<g>
				<g>
					<circle fill="#E63C13" cx="313" cy="169.6" r="0.3"/>
				</g>
				<g>
					<path fill="#E63C13" d="M313.4,168.7c0,0.2-0.2,0.4-0.4,0.4c-0.2,0-0.4-0.2-0.4-0.4c0-0.2,0.2-0.4,0.4-0.4
						C313.2,168.3,313.4,168.5,313.4,168.7z"/>
				</g>
				<g>
					<path fill="#E63C13" d="M313.7,167.3c0,0.4-0.3,0.7-0.7,0.7c-0.4,0-0.7-0.3-0.7-0.7c0-0.4,0.3-0.7,0.7-0.7
						C313.4,166.5,313.7,166.9,313.7,167.3z"/>
				</g>
				<g>
					<circle fill="#E63C13" cx="313" cy="164.8" r="1.2"/>
				</g>
			</g>
		</g>
		<g>
			<g>
				<path fill="#F9AF00" d="M328.9,158.7c0.7,1.2-1.3,0.1-1.6,1.5c-0.2,1.1,2.3,0.4,1.2,0.8c-1.1,0.4,0,1-0.9,0.3
					c-1.1-0.9-4.1,0.3-4.4-1.1c-0.4-2.3,1.7-3,3.2-4.8C327.7,153.8,327.8,156.7,328.9,158.7z"/>
				<path fill="#F9AF00" d="M329.8,154.1c2.3,0.4,4.4-0.4,5.5,1.6c0.7,1.2-2.3,2.3-2.6,3.7c-0.2,1.1,0.2,0-0.9,0.4
					c-1.1,0.4,1.3-0.6,0.4-1.4c-1.1-0.9-2,1.3-2.2-0.1C329.6,156,327.8,153.8,329.8,154.1z"/>
			</g>
			<polygon fill="#7F1713" points="336.5,169.8 335.7,172.5 335.4,174.8 333.7,173.2 331.3,171.6 332.6,167.3 			"/>
			<g>
				<g>
					<circle fill="#E63C13" cx="332.3" cy="166.2" r="0.3"/>
				</g>
				<g>
					<circle fill="#E63C13" cx="332" cy="165.4" r="0.4"/>
				</g>
				<g>
					<path fill="#E63C13" d="M332.1,163.8c0.1,0.4-0.1,0.8-0.4,0.9c-0.4,0.1-0.8-0.1-0.9-0.4c-0.1-0.4,0.1-0.8,0.4-0.9
						C331.6,163.2,332,163.4,332.1,163.8z"/>
				</g>
				<g>
					<circle fill="#E63C13" cx="330.6" cy="161.7" r="1.2"/>
				</g>
			</g>
		</g>
		<g>
			<g>
				<path fill="#F9AF00" d="M343.5,150.5c1.1,0.9-1.2,0.5-1,1.9c0.2,1.2,2.3-0.4,1.4,0.4c-0.9,0.7,0.4,0.9-0.7,0.6
					c-1.3-0.4-3.8,1.7-4.5,0.4c-1.1-2,0.5-3.4,1.4-5.6C340.7,146.3,341.8,149,343.5,150.5z"/>
				<path fill="#F9AF00" d="M342.8,145.9c2.3-0.4,4-1.8,5.7-0.4c1.1,0.9-1.4,2.9-1.2,4.3c0.2,1.2,0.2-0.1-0.7,0.6
					c-0.9,0.7,1-1.1-0.1-1.4c-1.3-0.4-1.4,1.9-2.1,0.7C343.3,147.8,340.8,146.3,342.8,145.9z"/>
			</g>
			<polygon fill="#7F1713" points="354.4,158.3 354.6,161.2 355.1,163.4 353,162.5 350.2,161.8 349.9,157.3 			"/>
			<g>
				<g>
					<circle fill="#E63C13" cx="349.2" cy="156.4" r="0.3"/>
				</g>
				<g>
					<circle fill="#E63C13" cx="348.7" cy="155.8" r="0.4"/>
				</g>
				<g>
					<circle fill="#E63C13" cx="347.7" cy="154.6" r="0.7"/>
				</g>
				<g>
					<circle fill="#E63C13" cx="346.1" cy="152.7" r="1.2"/>
				</g>
			</g>
		</g>
		<g>
			<g>
				<path fill="#F9AF00" d="M354.4,137.8c1.3,0.5-1,0.9-0.3,2.2c0.5,1,2-1.1,1.4-0.1c-0.6,1,0.7,0.7-0.5,0.8c-1.4,0.1-3,2.9-4.1,2
					c-1.8-1.5-0.7-3.4-0.6-5.7C350.4,134.8,352.3,137,354.4,137.8z"/>
				<path fill="#F9AF00" d="M352.2,133.7c2-1.2,3.1-3.1,5.3-2.3c1.3,0.5-0.3,3.2,0.3,4.5c0.5,1,0.1-0.2-0.4,0.8
					c-0.6,1,0.6-1.3-0.6-1.3c-1.4,0.1-0.7,2.3-1.7,1.4C353.3,135.3,350.4,134.8,352.2,133.7z"/>
			</g>
			<polygon fill="#7F1713" points="367.3,141.4 368.4,144 369.7,146 367.4,145.8 364.6,146.2 362.8,142 			"/>
			<g>
				<g>
					<circle fill="#E63C13" cx="361.8" cy="141.4" r="0.3"/>
				</g>
				<g>
					<circle fill="#E63C13" cx="361.1" cy="141" r="0.4"/>
				</g>
				<g>
					<circle fill="#E63C13" cx="359.8" cy="140.2" r="0.7"/>
				</g>
				<g>
					<circle fill="#E63C13" cx="357.6" cy="139" r="1.2"/>
				</g>
			</g>
		</g>
	</g>
	<g>
		<g>
			<path fill="#E94D1A" d="M237.5,141l1.5-1.4l0.7,0c5,1.9,8.4,2.1,10.7,0c0.4-0.4,0.7-0.8,0.9-1.4c-0.8,0.1-2.7,0-4.1-0.2
				c-1.4-0.2-4.1-0.2-6.4,0.5l0.6-1.7l2.7-2.5c2.9-2.7,5.3-2.8,6.9-1c0.7,0.8,1,2.1,1,3.2c1.5-0.1,2.9-0.5,3.9-1.4
				c1.5-1.4,1.9-3.4,1.9-5.9l0.3,0.1c0.5,2.4,0.2,5.3-1.7,7.1c-1.3,1.2-2.8,1.7-4.6,1.8c-0.1,1-0.6,2-1.5,2.8
				c-2.6,2.4-6.7,2.1-11.7-0.2l-1.4,0.4L237.5,141z M249.2,136.5c0.7,0,1.7,0.1,2.5,0c-0.2-0.6-0.4-1-0.9-1.5c-1.5-1.6-4-1.5-7,1.2
				l-1,0.9C244.3,136.6,247,136.4,249.2,136.5z"/>
		</g>
		<g>
			<path fill="#E94D1A" d="M251.6,165.1l1-1.9l0.7-0.2c5.3,0.1,8.6-0.9,10.1-3.7c0.2-0.5,0.4-1,0.4-1.6c-0.8,0.3-2.5,0.9-3.9,1.2
				c-1.4,0.3-3.9,1.2-5.8,2.6l0-1.8l1.7-3.3c1.8-3.5,4.1-4.4,6.2-3.3c0.9,0.5,1.7,1.6,2,2.7c1.4-0.6,2.6-1.5,3.2-2.7
				c1-1.9,0.6-3.8-0.2-6.2l0.3,0c1.3,2.1,2.1,4.9,0.8,7.3c-0.8,1.5-2,2.5-3.8,3.2c0.2,1,0.1,2.1-0.5,3.2c-1.6,3.2-5.6,4.2-11,3.8
				l-1.2,0.9L251.6,165.1z M261,156.9c0.7-0.2,1.6-0.5,2.4-0.9c-0.3-0.5-0.8-0.8-1.3-1.1c-2-1-4.3,0-6.1,3.5l-0.6,1.2
				C256.4,158.7,258.9,157.6,261,156.9z"/>
		</g>
		<g>
			<path fill="#E94D1A" d="M273,183l0.3-2.1l0.6-0.5c5-1.7,7.8-3.8,8.2-6.9c0.1-0.5,0-1.1-0.2-1.6c-0.6,0.6-2.1,1.7-3.3,2.5
				c-1.2,0.8-3.2,2.5-4.6,4.5l-0.6-1.7l0.5-3.7c0.5-3.9,2.3-5.6,4.7-5.2c1,0.1,2.1,0.9,2.8,1.8c1.1-1.1,1.9-2.3,2.1-3.6
				c0.3-2.1-0.7-3.8-2.3-5.7l0.3-0.1c1.9,1.6,3.6,3.9,3.3,6.5c-0.2,1.7-1.1,3.1-2.4,4.3c0.6,0.9,0.8,2,0.7,3.1
				c-0.5,3.5-3.8,5.9-9.1,7.3l-0.8,1.2L273,183z M279.1,172.1c0.6-0.5,1.3-1,1.9-1.6c-0.5-0.3-1-0.5-1.6-0.6c-2.2-0.3-4,1.5-4.6,5.4
				l-0.2,1.3C275.3,175.3,277.3,173.4,279.1,172.1z"/>
		</g>
		<g>
			<path fill="#E94D1A" d="M299.3,192.4l-0.5-2.1l0.4-0.6c4.1-3.4,6-6.2,5.3-9.3c-0.1-0.5-0.4-1-0.7-1.5c-0.4,0.8-1.4,2.3-2.2,3.5
				c-0.8,1.1-2.2,3.5-2.8,5.8l-1.1-1.4l-0.8-3.6c-0.9-3.9,0.3-6,2.6-6.5c1-0.2,2.3,0.1,3.3,0.8c0.6-1.4,1-2.8,0.7-4.1
				c-0.5-2.1-2-3.3-4.1-4.6l0.2-0.2c2.3,0.8,4.7,2.4,5.3,5c0.4,1.7,0,3.2-0.8,4.9c0.8,0.6,1.4,1.6,1.7,2.7c0.8,3.5-1.6,6.8-6,10
				l-0.4,1.4L299.3,192.4z M301.3,180.1c0.4-0.6,0.9-1.4,1.3-2.2c-0.6-0.1-1.1-0.2-1.8,0c-2.2,0.5-3.3,2.8-2.4,6.6l0.3,1.3
				C298.8,184.4,300.1,182,301.3,180.1z"/>
		</g>
		<g>
			<path fill="#E94D1A" d="M327.2,192.4l-1.1-1.8l0.2-0.7c2.7-4.6,3.5-7.9,1.8-10.6c-0.3-0.4-0.7-0.8-1.2-1.1
				c-0.1,0.8-0.5,2.7-0.9,4c-0.4,1.3-0.9,4-0.6,6.3l-1.5-0.9l-2-3.1c-2.1-3.3-1.8-5.7,0.2-7c0.9-0.6,2.2-0.7,3.3-0.4
				c0.1-1.5,0-3-0.7-4.1c-1.1-1.8-3-2.5-5.5-2.9l0.2-0.3c2.5,0,5.3,0.7,6.7,2.9c0.9,1.4,1.2,3,0.9,4.9c1,0.3,1.9,1,2.5,2
				c1.9,3,0.9,7-2.2,11.4l0.2,1.5L327.2,192.4z M324.8,180.1c0.2-0.7,0.4-1.6,0.4-2.5c-0.6,0.1-1.1,0.2-1.7,0.6
				c-1.9,1.2-2.2,3.7,0,7.1l0.7,1.1C324.1,185,324.4,182.3,324.8,180.1z"/>
		</g>
		<g>
			<path fill="#E94D1A" d="M353.4,182.7l-1.7-1.3l-0.1-0.7c1-5.2,0.6-8.6-1.9-10.6c-0.4-0.3-0.9-0.5-1.5-0.6
				c0.2,0.8,0.5,2.7,0.5,4.1c0.1,1.4,0.5,4.1,1.6,6.2l-1.7-0.3l-2.9-2.2c-3.1-2.4-3.7-4.8-2.2-6.7c0.6-0.8,1.9-1.4,3-1.5
				c-0.4-1.5-1-2.8-2.1-3.6c-1.7-1.3-3.7-1.3-6.1-0.9l0.1-0.3c2.3-0.9,5.2-1.2,7.3,0.4c1.4,1,2.1,2.4,2.5,4.3c1,0,2.1,0.3,3,1
				c2.8,2.2,3.2,6.2,1.8,11.5l0.6,1.3L353.4,182.7z M347,172c-0.1-0.7-0.2-1.7-0.4-2.5c-0.5,0.3-1,0.6-1.4,1.1
				c-1.4,1.8-0.7,4.2,2.4,6.6l1,0.8C347.9,176.9,347.3,174.2,347,172z"/>
		</g>
		<g>
			<path fill="#E94D1A" d="M374.7,164.7l-2-0.6l-0.3-0.7c-0.8-5.2-2.4-8.3-5.4-9.3c-0.5-0.2-1-0.2-1.6-0.1c0.5,0.7,1.3,2.4,1.9,3.6
				c0.6,1.3,1.9,3.6,3.6,5.3l-1.7,0.3l-3.5-1.1c-3.8-1.2-5.1-3.2-4.4-5.5c0.3-1,1.3-1.9,2.3-2.5c-0.9-1.2-1.9-2.3-3.2-2.7
				c-2-0.6-3.9,0-6.1,1.3l0-0.3c1.9-1.6,4.5-2.9,7-2.1c1.6,0.5,2.8,1.6,3.9,3.1c1-0.4,2.1-0.5,3.2-0.1c3.4,1.1,5.1,4.8,5.7,10.2
				l1.1,1L374.7,164.7z M365.1,156.8c-0.3-0.7-0.8-1.5-1.2-2.2c-0.4,0.4-0.7,0.9-0.9,1.5c-0.7,2.1,0.7,4.2,4.5,5.4l1.3,0.4
				C367.6,161.1,366.1,158.8,365.1,156.8z"/>
		</g>
		<g>
			<path fill="#E94D1A" d="M388.6,140.5l-2.1,0.1l-0.6-0.5c-2.6-4.6-5.1-7-8.2-6.9c-0.5,0-1,0.2-1.6,0.5c0.7,0.5,2.1,1.8,3,2.8
				c1,1,3,2.8,5.2,3.7l-1.5,0.9l-3.7,0.2c-4,0.2-5.9-1.3-6-3.7c0-1.1,0.6-2.3,1.3-3.1c-1.2-0.9-2.6-1.5-3.9-1.4
				c-2.1,0.1-3.6,1.4-5.3,3.3l-0.1-0.3c1.2-2.2,3.2-4.2,5.9-4.4c1.7-0.1,3.2,0.5,4.7,1.6c0.8-0.7,1.8-1.1,3-1.2
				c3.6-0.2,6.5,2.7,8.8,7.6l1.3,0.6L388.6,140.5z M376.8,136.4c-0.5-0.5-1.2-1.1-1.9-1.6c-0.2,0.5-0.3,1.1-0.3,1.7
				c0.1,2.2,2.2,3.7,6.1,3.5l1.3-0.1C380.7,139.5,378.5,137.9,376.8,136.4z"/>
		</g>
	</g>
	<g>
		<path fill="#7F1713" d="M46.2,118.4l-2.1-1.5c-2.1-1.5-3.4-2.5-5.7-2.5c-1.8,0-3.2,0.9-4.6,2.3c0.9-3.2,4.6-5,7.3-5
			c2.3,0,4.2,0.9,6.4,2.5l2.2,1.6L46.2,118.4z"/>
		<polygon fill="#F9AF00" points="51.7,114.3 49.1,112.4 47.8,111.7 49.9,110.2 51.7,108.5 53.4,110.2 55.2,111.6 		"/>
		<polygon fill="#616F27" points="53.4,121.2 51.7,123 49.9,121.2 48.1,119.9 51.7,117.2 55.2,119.9 		"/>
		<polygon fill="#E63C13" points="59.4,116.7 57.2,118.4 53.6,115.7 57.2,113.1 59.4,114.7 61.4,115.7 		"/>
		<path fill="#616F27" d="M82.4,124h-14v-1.1H70l1.4-0.5v-22l-0.5-0.5h-2.5v-1.1h8.9c7.3,0,14.9,3.7,14.9,11.9
			C92.3,117.1,87.5,121.7,82.4,124z M75.5,99.9h-1.4v21.6c1.4,0.7,3.2,1.1,5,1.1c5.5,0,10.1-5,10.1-11.5
			C89.3,103.4,81.9,99.9,75.5,99.9z"/>
		<path fill="#616F27" d="M106.7,124.7c-3.7,0-9.6-2.8-9.6-8.9c0-4.8,4.6-10.1,9.6-10.1c3.7,0,9.6,2.8,9.6,8.9
			C116.4,119.4,111.8,124.7,106.7,124.7z M105.1,107.1c-2.8,1.1-5.3,4.1-5.3,8.3c0,5.5,4.6,8,8.5,8c2.8-1.1,5.3-4.1,5.3-8.3
			C113.6,109.6,109,107.1,105.1,107.1z"/>
		<path fill="#616F27" d="M130.6,124.7c-3.7,0-9.6-2.8-9.6-8.9c0-4.8,4.6-10.1,9.6-10.1c3.7,0,9.6,2.8,9.6,8.9
			C140.2,119.4,135.6,124.7,130.6,124.7z M129,107.1c-2.8,1.1-5.3,4.1-5.3,8.3c0,5.5,4.6,8,8.5,8c2.8-1.1,5.3-4.1,5.3-8.3
			C137.5,109.6,132.9,107.1,129,107.1z"/>
		<path fill="#616F27" d="M160.6,124c-1.4,0-2.9-0.5-3.8-1.8l-4-5.7h-2.5v6l0.5,0.5h1.8v1.1h-7.5v-1.1h1.8l0.9-0.5V108l-0.5-0.5H145
			v-1.1h6.2c4.4,0,8,1.1,8,4.4c0,2.3-2.1,3.9-3.9,5l3.9,5.5c0.8,1.1,1.6,1.6,2.8,1.6h0.9v1.1H160.6z M150.3,107.5v7.8h4.1
			c1.4-0.9,2.3-2.3,2.3-4.1C156.7,108.9,154.7,107.5,150.3,107.5z"/>
		<path fill="#616F27" d="M172.3,124.1h-6.2l-1.1-4.6l1.2-0.3l0.6,2.3c2.1,1.1,3.7,1.4,6,1.4c0,0,3-1.1,3-3.7c0-2-2.2-2.7-4.4-3.2
			c-2.8-0.7-5.7-1.5-5.7-4.6c0-3.4,5-5,5-5h5.5l0.9-0.5v4.8h-1.4v-2.1c-1.4-0.9-3.2-1.1-5.3-1.1c0,0-2.5,0.7-2.5,3
			c0,1.8,1.8,2.5,4.4,3.2c3.2,0.9,5.7,1.6,5.7,4.6C178.1,122.4,172.3,124.1,172.3,124.1z"/>
		<path fill="#616F27" d="M195.3,110.3v-1.9l-2.9-0.8h-2.8v14.9l0.5,0.5h2.1v1.1h-7.8v-1.1h1.8l0.9-0.5v-14.9h-2.8l-2.9,0.8v1.9
			h-1.1v-4.6l1.4,0.7h13.5l1.4-0.7v4.6H195.3z"/>
		<path fill="#616F27" d="M213.4,124h-14v-1.1h1.8l0.9-0.5V108l-0.5-0.5h-2.3v-1.1h14.2v3.7h-1.1v-1.6l-3.2-0.9h-4.6v6.7h5.5
			l1.4-0.5v-1.4h1.1v5h-1.1v-1.6l-1.4-0.5h-5.5v6.4c1.8,0.9,3.7,1.1,6.9,1.1l3-3l0.7,0.5C215.3,121.3,214.3,123.1,213.4,124z"/>
		<path fill="#616F27" d="M227.9,116.9c-0.9,0-1.6-0.5-1.8-0.9c4.1,0,5.5-2.5,5.5-4.6c0-3-3-3.9-6.7-3.9v14.9l0.5,0.5h2.8v1.1h-8.5
			v-1.1h1.8l0.9-0.5V108l-0.5-0.5h-2.3v-1.1h6.7c5,0,8,1.6,8,4.8C234.3,113.9,231.1,116.9,227.9,116.9z"/>
		<path fill="#616F27" d="M261.4,103.4v-2.3l-4.1-1.1H252v10.8h6.4l1.6-0.5v-2.1h1.4v6.4H260v-2.3l-1.6-0.5H252v10.3l0.7,0.7h3v1.1
			h-9.4v-1.1h1.6l1.4-0.5v-22l-0.5-0.5h-2.5v-1.1h16.5v4.6H261.4z"/>
		<path fill="#616F27" d="M280,124h-13.1v-1.1h1.8l0.9-0.5V108l-0.5-0.5h-2.3v-1.1h8v1.1h-1.8l-0.9,0.5v13.8c1.8,0.9,3.7,1.1,6,1.1
			l3-3l0.7,0.5C281.8,121.3,280.9,123.1,280,124z"/>
		<path fill="#616F27" d="M293.7,124.7c-3.7,0-9.6-2.8-9.6-8.9c0-4.8,4.6-10.1,9.6-10.1c3.7,0,9.6,2.8,9.6,8.9
			C303.4,119.4,298.8,124.7,293.7,124.7z M292.1,107.1c-2.8,1.1-5.3,4.1-5.3,8.3c0,5.5,4.6,8,8.5,8c2.8-1.1,5.3-4.1,5.3-8.3
			C300.6,109.6,296,107.1,292.1,107.1z"/>
		<path fill="#616F27" d="M333,107.5l-1.6,0.5l-6,16.3h-1.1l-4.1-12.2l-4.8,12.2h-1.1l-6-16.3l-1.6-0.5h-1.4v-1.1h7.8v1.1h-1.8
			l-0.5,0.5l4.6,12.6l4.2-10.3l-0.8-2.3l-1.1-0.5h-0.9v-1.1h7.1v1.1h-2.1l-0.5,0.5l4.1,12.4l4.4-12.4l-0.4-0.5h-2.2v-1.1h7.1v1.1
			H333z"/>
		<path fill="#616F27" d="M350.4,124h-14v-1.1h1.8l0.9-0.5V108l-0.5-0.5h-2.3v-1.1h14.2v3.7h-1.1v-1.6l-3.2-0.9h-4.6v6.7h5.5
			l1.4-0.5v-1.4h1.1v5h-1.1v-1.6l-1.4-0.5h-5.5v6.4c1.8,0.9,3.7,1.1,6.9,1.1l3-3l0.7,0.5C352.2,121.3,351.3,123.1,350.4,124z"/>
		<path fill="#616F27" d="M372.2,124c-1.4,0-2.9-0.5-3.8-1.8l-4-5.7h-2.5v6l0.5,0.5h1.8v1.1h-7.5v-1.1h1.8l0.9-0.5V108l-0.5-0.5
			h-2.3v-1.1h6.2c4.4,0,8,1.1,8,4.4c0,2.3-2.1,3.9-3.9,5l3.9,5.5c0.8,1.1,1.6,1.6,2.8,1.6h0.9v1.1H372.2z M361.9,107.5v7.8h4.1
			c1.4-0.9,2.3-2.3,2.3-4.1C368.3,108.9,366.2,107.5,361.9,107.5z"/>
		<path fill="#616F27" d="M383.9,124.1h-6.2l-1.1-4.6l1.2-0.3l0.6,2.3c2.1,1.1,3.7,1.4,6,1.4c0,0,3-1.1,3-3.7c0-2-2.2-2.7-4.4-3.2
			c-2.8-0.7-5.7-1.5-5.7-4.6c0-3.4,5-5,5-5h5.5l0.9-0.5v4.8h-1.4v-2.1c-1.4-0.9-3.2-1.1-5.3-1.1c0,0-2.5,0.7-2.5,3
			c0,1.8,1.8,2.5,4.4,3.2c3.2,0.9,5.7,1.6,5.7,4.6C389.6,122.4,383.9,124.1,383.9,124.1z"/>
		<path fill="#616F27" d="M425,99.9l-1.4,0.5v23.9h-1.1l-15.8-22V122l0.9,0.9h2.8v1.1H402v-1.1h1.6l1.4-0.5v-22l-0.5-0.5H402v-1.1
			h6.4v1.1l13.5,18.8v-17.9l-0.9-0.9h-2.5v-1.1h8v1.1H425z"/>
		<path fill="#616F27" d="M444.9,124h-14v-1.1h1.8l0.9-0.5V108l-0.5-0.5h-2.3v-1.1h14.2v3.7H444v-1.6l-3.2-0.9h-4.6v6.7h5.5l1.4-0.5
			v-1.4h1.1v5h-1.1v-1.6l-1.4-0.5h-5.5v6.4c1.8,0.9,3.7,1.1,6.9,1.1l3-3l0.7,0.5C446.8,121.3,445.8,123.1,444.9,124z"/>
		<path fill="#616F27" d="M464.2,110.3v-1.9l-2.9-0.8h-2.8v14.9l0.5,0.5h2.1v1.1h-7.8v-1.1h1.8l0.9-0.5v-14.9h-2.8l-2.9,0.8v1.9
			h-1.1v-4.6l1.4,0.7H464l1.4-0.7v4.6H464.2z"/>
		<path fill="#616F27" d="M493.1,107.5l-1.6,0.5l-6,16.3h-1.1l-4.1-12.2l-4.8,12.2h-1.1l-6-16.3l-1.6-0.5h-1.4v-1.1h7.8v1.1h-1.8
			l-0.5,0.5l4.6,12.6l4.2-10.3l-0.8-2.3l-1.1-0.5h-0.9v-1.1h7.1v1.1h-2.1l-0.5,0.5l4.1,12.4l4.4-12.4l-0.4-0.5h-2.2v-1.1h7.1v1.1
			H493.1z"/>
		<path fill="#616F27" d="M506,124.7c-3.7,0-9.6-2.8-9.6-8.9c0-4.8,4.6-10.1,9.6-10.1c3.7,0,9.6,2.8,9.6,8.9
			C515.6,119.4,511,124.7,506,124.7z M504.3,107.1c-2.8,1.1-5.3,4.1-5.3,8.3c0,5.5,4.6,8,8.5,8c2.8-1.1,5.3-4.1,5.3-8.3
			C512.8,109.6,508.2,107.1,504.3,107.1z"/>
		<path fill="#616F27" d="M536,124c-1.4,0-2.9-0.5-3.8-1.8l-4-5.7h-2.5v6l0.5,0.5h1.8v1.1h-7.5v-1.1h1.8l0.9-0.5V108l-0.5-0.5h-2.3
			v-1.1h6.2c4.4,0,8,1.1,8,4.4c0,2.3-2.1,3.9-3.9,5l3.9,5.5c0.8,1.1,1.6,1.6,2.8,1.6h0.9v1.1H536z M525.7,107.5v7.8h4.1
			c1.4-0.9,2.3-2.3,2.3-4.1C532.1,108.9,530,107.5,525.7,107.5z"/>
		<path fill="#616F27" d="M553.9,124v-1.1l-6-7.3l-2.1,0.5v6.4l0.5,0.5h2.1v1.1h-7.8v-1.1h1.8l0.9-0.5V108l-0.5-0.5h-2.3v-1.1h7.8
			v1.1h-1.6l-0.9,0.5v6.4h2.3l5.7-6.6v-0.3h-2.3v-1.1h6.7v1.1h-1.6l-1.1,0.5l-5.5,6.2l7.1,8.7h2.1v1.1H553.9z"/>
		<polygon fill="#E63C13" points="568.8,118.4 566.6,116.7 564.6,115.7 566.6,114.7 568.8,113.1 572.4,115.7 		"/>
		<polygon fill="#F9AF00" points="574.3,114.3 570.7,111.6 572.6,110.2 574.3,108.5 576.1,110.2 577.9,111.6 		"/>
		<polygon fill="#616F27" points="576.1,121.2 574.3,123 572.6,121.2 570.7,119.9 574.3,117.2 576.8,119.1 578.2,119.8 		"/>
		<path fill="#7F1713" d="M584.9,119.9c-2.3,0-4.2-0.9-6.4-2.5l-2.2-1.6l3.6-2.7l2.1,1.5c2.1,1.5,3.4,2.5,5.7,2.5
			c1.8,0,3.2-0.9,4.6-2.3C591.3,118,587.6,119.9,584.9,119.9z"/>
	</g>
	<g>
		<g>
			<g>
				<path fill="#CE2417" d="M345.8,95.9c-0.3,0-0.7-0.1-1-0.3c-0.9-0.5-1.2-1.7-0.7-2.7c0.5-0.9,1.8-1.2,2.7-0.7
					c0.9,0.5,1.2,1.7,0.7,2.7C347.2,95.5,346.5,95.9,345.8,95.9z M345.8,92.6c-0.5,0-0.9,0.3-1.2,0.7c-0.4,0.6-0.1,1.5,0.5,1.8
					c0.6,0.4,1.5,0.1,1.8-0.5c0.4-0.6,0.1-1.5-0.5-1.8C346.3,92.7,346.1,92.6,345.8,92.6z"/>
			</g>
		</g>
		<g>
			<g>
				<path fill="#CE2417" d="M337.3,85.8c-0.1,0-0.2,0-0.3,0c-1.1-0.2-1.8-1.2-1.6-2.3c0.2-1,1.2-1.8,2.3-1.6
					c1.1,0.2,1.8,1.2,1.6,2.3C339,85.1,338.2,85.8,337.3,85.8z M337.3,82.5c-0.6,0-1.2,0.5-1.3,1.1c-0.1,0.7,0.4,1.4,1.1,1.6
					c0.7,0.1,1.4-0.4,1.6-1.1c0.1-0.7-0.4-1.4-1.1-1.6C337.4,82.5,337.3,82.5,337.3,82.5z"/>
			</g>
		</g>
		<g>
			<g>
				<path fill="#CE2417" d="M325.8,79.3c-0.9,0-1.7-0.7-1.9-1.6c-0.2-1.1,0.5-2.1,1.6-2.3c1.1-0.2,2.1,0.5,2.3,1.6
					c0.1,0.5,0,1-0.3,1.5c-0.3,0.4-0.7,0.7-1.3,0.8C326,79.3,325.9,79.3,325.8,79.3z M325.8,76c-0.1,0-0.2,0-0.2,0
					c-0.7,0.1-1.2,0.8-1.1,1.6c0.1,0.7,0.8,1.2,1.6,1.1c0.4-0.1,0.7-0.3,0.9-0.6c0.2-0.3,0.3-0.6,0.2-1C327,76.5,326.4,76,325.8,76z
					"/>
			</g>
		</g>
		<g>
			<g>
				<path fill="#CE2417" d="M312.7,77.1c-0.7,0-1.3-0.4-1.7-1c-0.5-0.9-0.2-2.1,0.7-2.7c0.9-0.5,2.1-0.2,2.7,0.7
					c0.3,0.4,0.3,1,0.2,1.5c-0.1,0.5-0.5,0.9-0.9,1.2C313.4,77,313.1,77.1,312.7,77.1z M312.7,73.8c-0.2,0-0.5,0.1-0.7,0.2
					c-0.6,0.4-0.9,1.2-0.5,1.8c0.4,0.6,1.2,0.8,1.8,0.5c0.3-0.2,0.5-0.5,0.6-0.8c0.1-0.3,0-0.7-0.1-1
					C313.6,74.1,313.2,73.8,312.7,73.8z"/>
			</g>
		</g>
		<g>
			<g>
				<path fill="#CE2417" d="M299.7,79.5c-0.5,0-0.9-0.2-1.2-0.5c-0.8-0.7-0.9-1.9-0.2-2.7c0.7-0.8,1.9-0.9,2.7-0.2
					c0.4,0.3,0.6,0.8,0.7,1.3c0,0.5-0.1,1-0.4,1.4C300.8,79.2,300.3,79.5,299.7,79.5z M299.7,76.2c-0.4,0-0.8,0.2-1,0.5
					c-0.5,0.6-0.4,1.4,0.2,1.9c0.5,0.5,1.4,0.4,1.9-0.2c0.2-0.3,0.3-0.6,0.3-1c0-0.4-0.2-0.7-0.5-0.9
					C300.3,76.3,300,76.2,299.7,76.2z"/>
			</g>
		</g>
		<g>
			<g>
				<path fill="#CE2417" d="M288.3,86.2c-0.2,0-0.5,0-0.7-0.1c-0.5-0.2-0.9-0.5-1.1-1c-0.2-0.5-0.2-1-0.1-1.5c0.4-1,1.5-1.5,2.5-1.2
					c0.5,0.2,0.9,0.5,1.1,1c0.2,0.5,0.2,1,0.1,1.5C289.8,85.7,289.1,86.2,288.3,86.2z M288.3,82.9c-0.6,0-1.1,0.4-1.3,0.9
					c-0.1,0.3-0.1,0.7,0,1c0.2,0.3,0.4,0.6,0.8,0.7c0.7,0.2,1.5-0.1,1.7-0.8c0.1-0.3,0.1-0.7,0-1c-0.2-0.3-0.4-0.6-0.8-0.7
					C288.6,82.9,288.4,82.9,288.3,82.9z"/>
			</g>
		</g>
		<g>
			<g>
				<path fill="#CE2417" d="M279.9,96.4c-1.1,0-1.9-0.9-1.9-1.9c0-1.1,0.9-1.9,1.9-1.9c1.1,0,1.9,0.9,1.9,1.9
					C281.8,95.5,280.9,96.4,279.9,96.4z M279.9,93.1c-0.7,0-1.3,0.6-1.3,1.3c0,0.7,0.6,1.3,1.3,1.3c0.7,0,1.3-0.6,1.3-1.3
					C281.2,93.7,280.6,93.1,279.9,93.1z"/>
			</g>
		</g>
	</g>
	<g>
		<g>
			<g>
				<path fill="#CE2417" d="M280.1,134.5c-0.3,0-0.7-0.1-1-0.3c-0.4-0.3-0.8-0.7-0.9-1.2c-0.1-0.5-0.1-1,0.2-1.5
					c0.5-0.9,1.8-1.2,2.7-0.7c0.9,0.5,1.2,1.7,0.7,2.7C281.5,134.1,280.8,134.5,280.1,134.5z M280.1,131.2c-0.5,0-0.9,0.3-1.2,0.7
					c-0.2,0.3-0.2,0.7-0.1,1c0.1,0.3,0.3,0.6,0.6,0.8c0.6,0.4,1.5,0.1,1.8-0.5c0.4-0.6,0.1-1.5-0.5-1.8
					C280.6,131.2,280.4,131.2,280.1,131.2z"/>
			</g>
		</g>
		<g>
			<g>
				<path fill="#CE2417" d="M288.7,144.5c-0.1,0-0.2,0-0.3,0c-0.5-0.1-1-0.4-1.3-0.8c-0.3-0.4-0.4-0.9-0.3-1.5
					c0.2-1,1.2-1.8,2.3-1.6c1.1,0.2,1.8,1.2,1.6,2.3C290.5,143.9,289.7,144.5,288.7,144.5z M288.7,141.3c-0.6,0-1.2,0.5-1.3,1.1
					c-0.1,0.4,0,0.7,0.2,1c0.2,0.3,0.5,0.5,0.9,0.6c0.7,0.1,1.4-0.4,1.6-1.1c0.1-0.7-0.4-1.4-1.1-1.6
					C288.9,141.3,288.8,141.3,288.7,141.3z"/>
			</g>
		</g>
		<g>
			<g>
				<path fill="#CE2417" d="M300.2,151.1c-0.9,0-1.7-0.7-1.9-1.6c-0.2-1.1,0.5-2.1,1.6-2.3c1.1-0.2,2.1,0.5,2.3,1.6
					c0.2,1.1-0.5,2.1-1.6,2.3C300.4,151.1,300.3,151.1,300.2,151.1z M300.2,147.8c-0.1,0-0.2,0-0.2,0c-0.7,0.1-1.2,0.8-1.1,1.6
					c0.1,0.7,0.8,1.2,1.6,1.1c0.7-0.1,1.2-0.8,1.1-1.6C301.4,148.2,300.9,147.8,300.2,147.8z"/>
			</g>
		</g>
		<g>
			<g>
				<path fill="#CE2417" d="M313.3,153.3c-0.7,0-1.3-0.4-1.7-1c-0.5-0.9-0.2-2.1,0.7-2.7c0.9-0.5,2.1-0.2,2.7,0.7
					c0.5,0.9,0.2,2.1-0.7,2.7C313.9,153.2,313.6,153.3,313.3,153.3z M313.3,150c-0.2,0-0.5,0.1-0.7,0.2c-0.6,0.4-0.9,1.2-0.5,1.8
					c0.4,0.6,1.2,0.8,1.8,0.5c0.6-0.4,0.9-1.2,0.5-1.8C314.2,150.2,313.7,150,313.3,150z"/>
			</g>
		</g>
		<g>
			<g>
				<path fill="#CE2417" d="M326.3,150.9c-0.5,0-0.9-0.2-1.3-0.5c-0.8-0.7-0.9-1.9-0.2-2.7c0.7-0.8,1.9-0.9,2.7-0.2
					c0.8,0.7,0.9,1.9,0.2,2.7C327.4,150.6,326.9,150.9,326.3,150.9z M326.3,147.6c-0.4,0-0.8,0.2-1,0.5c-0.5,0.6-0.4,1.4,0.2,1.9
					c0.5,0.5,1.4,0.4,1.9-0.2c0.5-0.6,0.4-1.4-0.2-1.9C326.9,147.7,326.6,147.6,326.3,147.6z"/>
			</g>
		</g>
		<g>
			<g>
				<path fill="#CE2417" d="M337.7,144.2c-0.2,0-0.5,0-0.7-0.1c-1-0.4-1.5-1.5-1.2-2.5c0.4-1,1.5-1.5,2.5-1.2c1,0.4,1.5,1.5,1.2,2.5
					C339.2,143.7,338.5,144.2,337.7,144.2z M337.7,140.9c-0.6,0-1.1,0.4-1.3,0.9c-0.3,0.7,0.1,1.5,0.8,1.7c0.7,0.2,1.5-0.1,1.7-0.8
					c0.3-0.7-0.1-1.5-0.8-1.7C338,140.9,337.8,140.9,337.7,140.9z"/>
			</g>
		</g>
		<g>
			<g>
				<path fill="#CE2417" d="M346.1,134c-1.1,0-1.9-0.9-1.9-1.9c0-1.1,0.9-1.9,1.9-1.9c1.1,0,1.9,0.9,1.9,1.9
					C348.1,133.1,347.2,134,346.1,134z M346.1,130.7c-0.7,0-1.3,0.6-1.3,1.3c0,0.7,0.6,1.3,1.3,1.3c0.7,0,1.3-0.6,1.3-1.3
					C347.5,131.3,346.9,130.7,346.1,130.7z"/>
			</g>
		</g>
	</g>
</g>
</svg>
