<?xml version="1.0" encoding="utf-8"?>
<!-- Generator: Adobe Illustrator 18.1.1, SVG Export Plug-In . SVG Version: 6.00 Build 0)  -->
<svg version="1.1" xmlns="https://www.w3.org/2000/svg" xmlns:xlink="https://www.w3.org/1999/xlink" x="0px" y="0px"
	 viewBox="0 0 1024 412.6" enable-background="new 0 0 1024 412.6" xml:space="preserve">
<g id="Layer_2">
	<rect fill="#FFFFFF" width="1024" height="412.6"/>
</g>
<g id="Layer_1">
	<g>
		<g>
			<path fill="#104C77" d="M399.5,207.7c-2.1,10.2-5.5,19.6-10.1,28.1c-4.6,8.5-10.4,15.9-17.3,22.2c-6.9,6.2-15,11.1-24,14.6
				c-9.1,3.5-19.1,5.2-30.1,5.2c-9.2,0-17.2-1.2-24-3.6c-6.8-2.4-12.5-5.8-17-10.3c-4.5-4.5-7.8-9.8-10-16
				c-2.2-6.2-3.3-13.1-3.3-20.6c0-12.5,2-24.2,6.1-35.1c4-10.9,9.8-20.4,17.1-28.5c7.4-8.1,16.2-14.4,26.4-19s21.5-6.9,33.9-6.9
				c9.1,0,17,1.2,23.9,3.6c6.8,2.4,12.5,5.8,17,10.3c4.5,4.5,8,9.8,10.2,16.1c2.3,6.2,3.4,13.2,3.4,20.7c0,3-0.2,6.2-0.6,9.4
				C400.7,201,400.2,204.3,399.5,207.7z M361.7,207.7c0.6-2.9,1.2-6.1,1.6-9.7c0.4-3.5,0.7-7.1,0.7-10.6c0-3.5-0.3-7-0.9-10.4
				c-0.6-3.4-1.8-6.4-3.4-8.9c-1.6-2.5-3.9-4.6-6.6-6.2c-2.8-1.6-6.2-2.4-10.4-2.4c-6.2,0-11.5,1.5-15.9,4.4
				c-4.4,3-8.2,6.7-11.3,11.3c-3.1,4.5-5.6,9.6-7.4,15.1c-1.8,5.5-3.3,10.8-4.4,15.8c-1.1,5.1-1.8,9.6-2.1,13.6
				c-0.3,4-0.5,6.8-0.5,8.3c0,3.7,0.3,7.1,0.9,10.4c0.6,3.3,1.7,6.2,3.3,8.8c1.6,2.6,3.8,4.6,6.5,6.2c2.8,1.5,6.3,2.3,10.6,2.3
				c6.4,0,11.9-1.6,16.4-4.9c4.5-3.3,8.2-7.4,11.3-12.3c3-4.9,5.5-10.2,7.3-15.7C359.2,217.3,360.7,212.3,361.7,207.7z"/>
			<path fill="#104C77" d="M520.9,139.9h63.8l-4.6,22h-11.4l-18.9,91.6h11.4l-4.4,22h-55.7l4.4-22h12.5l18.6-89.8h-0.4l-51.9,111.7
				h-33l-5.7-113.6h-0.4l-18.9,91.6h12.5l-4.4,22h-50.7l4.5-22h11.2l19.1-91.6h-11.4l4.5-22h64.6l1.5,97.7h0.4L520.9,139.9z"/>
			<path fill="#104C77" d="M645.3,181.6h22l-10.4,49.6h-22l3-14.4h-12.9l-7.6,36.7h42.2l4.6-22.5h28l-8.9,44.5H566.6l4.5-22h12.3
				l19.1-91.6H590l4.5-22h116.7l-8.7,42.2h-28l4.2-20.3h-42.2l-7,34.1h12.9L645.3,181.6z"/>
			<path fill="#104C77" d="M814.6,139.9h29.2L834,188h-31.8c0.4-1.8,0.5-4.2,0.5-7.3c-0.1-3.1-0.8-6.1-2.2-9
				c-1.3-2.9-3.4-5.5-6.3-7.7c-3-2.2-7.3-3.3-13-3.3c-6.4,0-12,1.7-16.7,5c-4.7,3.3-8.6,7.5-11.9,12.5c-3.3,5-5.9,10.4-8,16.2
				c-2,5.8-3.5,11.2-4.5,16.1c-1,4.9-1.6,10-1.9,15.2c-0.3,5.2,0.3,10,1.8,14.2s3.9,7.7,7.3,10.5c3.4,2.8,8.2,4.2,14.4,4.2
				c5.1,0,9.5-0.8,13.4-2.6c3.8-1.7,7.2-3.8,9.9-6.4c2.8-2.6,5-5.4,6.5-8.5s2.7-6.1,3.3-9h-14l4.7-22h55.7l-4.7,22h-9.8l-9.5,47.3
				h-29.2l2.7-13.8h-0.4c-2.4,3.4-5.2,6.2-8.4,8.2c-3.2,2.1-6.6,3.7-10.2,4.9c-3.6,1.2-7.3,2-11,2.4c-3.7,0.4-7.4,0.6-10.9,0.6
				c-19.3,0-33.1-6.1-41.5-18.3c-8.3-12.2-10-29.9-4.9-53.3c1.9-9.5,4.8-18.3,8.8-26.6c4-8.3,9-15.5,15.1-21.8
				c6.1-6.2,13.3-11.2,21.6-14.8c8.3-3.6,17.7-5.4,28.3-5.4c7.3,0,14,1.1,20,3.2c6,2.1,10.9,6.1,14.9,11.9L814.6,139.9z"/>
			<path fill="#104C77" d="M923,236.7h-44.5l-9.1,16.9h14.6l-4.4,22h-54.5l4.5-22h8l65.3-113.6h42l18,113.6h7.8l-4.4,22h-59.7
				l4.4-22h14L923,236.7z M915.4,167.9H915l-24.2,47.9h28.6L915.4,167.9z"/>
		</g>
		<g>
			<g>
				<g enable-background="new    ">
					<g>
						<polygon fill="#9AC31C" points="187.8,121.3 140.3,323.3 183.9,294.1 231.4,92 176.3,92 132.7,121.3 						"/>
						<path fill="#9AC31C" d="M124.6,328.1c-9.8,0-17.6-2.8-23.3-8.5c-5.7-5.7-8.6-13.3-8.6-22.8c0-3.7,0.5-7.5,1.5-11.6L137.5,101
							c4.1-17.3,11.2-29.3,21.4-36.1L115.2,94c-10.2,6.8-17.3,18.9-21.4,36.1L50.6,314.4c-1,4.1-1.5,7.9-1.5,11.6
							c0,9.5,2.9,17.1,8.6,22.8s13.5,8.5,23.3,8.5h52.9c9.2,0,17.2-2.2,23.8-6.7l43.6-29.2c-6.6,4.4-14.6,6.7-23.8,6.7H124.6z"/>
					</g>
					<g>
						<path fill="#104C77" d="M258.9,66.6c5.7,5.7,8.6,13.2,8.6,22.7c0,3.7-0.5,7.6-1.5,11.6l-43.3,184.2
							c-6.7,28.6-21.8,42.9-45.2,42.9h-52.9c-9.8,0-17.6-2.8-23.3-8.5c-5.7-5.7-8.6-13.3-8.6-22.8c0-3.7,0.5-7.5,1.5-11.6L137.5,101
							c6.7-28.6,21.8-42.9,45.4-42.9h52.9C245.4,58.1,253.1,60.9,258.9,66.6z M183.9,294.1L231.4,92h-55.1l-47.6,202.1H183.9"/>
					</g>
				</g>
			</g>
			<g>
				<defs>
					<polygon id="SVGID_1_" points="252.7,224 70.5,224 94,58.1 276.3,58.1 					"/>
				</defs>
				<clipPath id="SVGID_2_">
					<use xlink:href="#SVGID_1_"  overflow="visible"/>
				</clipPath>
				<g clip-path="url(#SVGID_2_)">
					<g enable-background="new    ">
						<g>
							<polygon fill="#104C77" points="128.7,294.1 176.3,92 132.7,121.3 85.1,323.3 140.3,323.3 183.9,294.1 							"/>
							<path fill="#104C77" d="M267.4,87.6c-0.6-17.9-14.3-29.5-31.7-29.5h-52.9c-10.6,0-19.2,3.5-28,9.4
								c-13.2,8.9-26.4,17.7-39.6,26.6c7-4.7,15.6-6.7,24-6.7h52.9c24.1,0,35.7,20.8,30.2,42.9l-43.3,184.2
								c-3.2,13.7-9.3,28.1-21.4,36.2l43.6-29.2c12.1-8.1,18.2-22.5,21.4-36.2L266,101C267,96.6,267.6,92.1,267.4,87.6
								C267.4,86.8,267.5,88.2,267.4,87.6z"/>
						</g>
						<g>
							<path fill="#9AC31C" d="M215.3,95.8c5.7,5.7,8.6,13.2,8.6,22.7c0,3.7-0.5,7.6-1.5,11.6l-43.3,184.2
								c-6.7,28.6-21.8,42.9-45.2,42.9H81c-9.8,0-17.6-2.8-23.3-8.5c-5.7-5.7-8.6-13.3-8.6-22.8c0-3.7,0.5-7.5,1.5-11.6l43.3-184.2
								c6.7-28.6,21.8-42.9,45.4-42.9h52.9C201.8,87.3,209.5,90.2,215.3,95.8z M140.3,323.3l47.6-202.1h-55.1L85.1,323.3H140.3"/>
						</g>
					</g>
				</g>
			</g>
		</g>
	</g>
</g>
</svg>
