<?xml version="1.0" encoding="utf-8"?>
<!-- Generator: Adobe Illustrator 18.1.1, SVG Export Plug-In . SVG Version: 6.00 Build 0)  -->
<svg version="1.1" xmlns="http://www.w3.org/2000/svg" xmlns:xlink="http://www.w3.org/1999/xlink" x="0px" y="0px"
	 viewBox="0 0 613.5 412.6" enable-background="new 0 0 613.5 412.6" xml:space="preserve">
<g id="Layer_2">
	<rect x="0" width="613.5" height="412.6"/>
</g>
<g id="Layer_1">
	<g>
		<g opacity="0.4">
			<g>
				<defs>
					<rect id="SVGID_1_" x="57.8" y="47.5" width="497.9" height="317.6"/>
				</defs>
				<clipPath id="SVGID_2_">
					<use xlink:href="#SVGID_1_"  overflow="visible"/>
				</clipPath>
				<g clip-path="url(#SVGID_2_)">
					<defs>
						<rect id="SVGID_3_" x="57.8" y="47.5" width="497.9" height="317.6"/>
					</defs>
					<clipPath id="SVGID_4_">
						<use xlink:href="#SVGID_3_"  overflow="visible"/>
					</clipPath>
					<g transform="matrix(1 0 0 1 0 0)" clip-path="url(#SVGID_4_)">
						
							<image overflow="visible" width="475" height="303" xlink:href="8560597A52803C6F.png"  transform="matrix(1.0483 0 0 1.0483 57.7614 47.4687)">
						</image>
					</g>
				</g>
			</g>
		</g>
		<path fill="#FFFFFF" d="M121.5,292.7c-1.6,0.4-1.7-1,0.3-1.2c7.4-0.9,4-15.6-15.1-8.8c-7.1,2.6-11.2,9.2-3.2,14.1
			c3.6,2.2,9.6,4.3,14,7c12.1,7.5,4.2,18.7-5.9,24.7c-13.4,8-38.7,6.4-39.8-10.4c-0.3-5.6,4.3-13.7,10.2-16.5
			c0.8-0.4,2.6-0.6,0.6,0.9c-1.6,1.2-3,2.7-4.1,4.5c-2.1,3.3-3.3,7.3-3.3,11.1c-0.1,14.7,21.2,16.3,33.1,10.1
			c10-5.2,14.2-15.4,7-21.3c-3.7-3-11.6-5.1-16.1-8.1c-8.9-5.9-3.4-14.7,5.2-17.8c5.9-2.1,14.8-2.4,19.1-0.3c4.2,2.1,5.6,7,2,10
			C124.6,291.6,123.3,292.2,121.5,292.7"/>
		<path fill="#FFFFFF" d="M143.5,306.5H140c-2,3.4-4.4,6.6-7.9,9.8c-0.5,1.5-1.4,6.1-1.4,6.1c-0.9,4,1.8,4.5,3.8,3.1
			c2.7-2,4.7-5.8,6.3-9c0.5-1.1,1.4-0.8,0.8,0.4c-2.6,5.5-3.6,7.1-5.8,9.3c-3.2,3.1-9.1,2.1-8.2-4.5c0.5-4,2.7-10.5,4.6-15.2h-3.1
			c-0.7,0-0.5-1.3,0.1-1.3h3.6c1.4-3,2.9-5.9,4.3-8.4c4.1-7.2,10.5-6.2,6.1,3.3c-0.8,1.8-1.7,3.4-2.6,5.1h2.9
			C144.2,305.2,144.1,306.5,143.5,306.5 M135.9,306.5c-1.2,2.9-2.4,5.8-3.2,7.9c2.3-2.3,4.3-5,6-7.9H135.9z M140.7,296.5
			c-1.4,2-2.7,5.3-4.2,8.7h3c1.1-2,2.1-4.1,3-6.1C143.5,296.6,144.4,291.3,140.7,296.5"/>
		<path fill="#FFFFFF" d="M153.5,327.9c-2,0.1-4.8-1.4-3-7.7c-1,1.5-2.6,3.9-4.3,5.6c-6.8,6.5-11.3-3.9-2.4-14.6
			c3.6-4.2,10.4-6.4,13.8-2.7c0.8,0.9,0.4,1.9-0.7,1.7c-0.7-2.2-2.9-2.7-5.1-1.5c-2.7,1.5-5.8,5-7.9,8.5c-0.5,0.8-2.1,3.7-2.4,6
			c-0.6,4.2,2.7,3.7,5.5,0.4c2.1-2.5,3.7-5.4,5.3-8.3c1.3-2.5,2.1-3.9,4-3.8c0.8,0.1,1.7,0.4,2.5,0.2c-1.2,1.2-4.8,7.5-5.5,11.1
			c-0.5,2.4-0.2,3.6,0.6,3.6c2.5,0.1,6.4-7.4,7.7-10c0.5-1.1,1.4-0.7,0.8,0.5C160.7,320.5,157.1,327.6,153.5,327.9"/>
		<path fill="#FFFFFF" d="M169.3,327.7c-2,0.5-5.6-1.3-3.3-7.5c0.9-2.4,3-5.5,3.7-7c0.8-2-1.2-2.7-4.6-2.8l-0.7,1.9
			c-1.4,3.7-4.3,10.3-7.2,13.1c-0.5,0.4-0.8-0.2-0.5-0.8c4.7-6.2,8-15.2,9.2-21.8c0.6-3.3,4.5-1.8,3.6,2.1c-0.4,1.7-2.3,3.3-3.3,4
			c2.2,0.1,5.3,0.1,8.2-0.2c0.4,0.8-0.5,3.1-1.2,4.6c-0.9,1.8-7,12.7-3.4,12.9c2.4,0.1,6.1-7.4,7.4-9.9c0.5-1,1.3-0.6,0.7,0.6
			C176.2,320.5,173.1,326.8,169.3,327.7"/>
		<path fill="#FFFFFF" d="M232,335.5c-2.7-0.7-8.6-1.1-13.4-1.1c-7.6,11-23.8,17.5-30.4,15c-11.1-4,0.9-13.5,15.7-15.6
			c3.1-0.5,8.9-0.9,12.6-1c2.9-4.9,4.8-9.1,6-14.6l0.2-1c-3.6,3.4-14.8,11.6-24.6,8.4c-7.4-2.6-12.1-14-5.7-27.5
			c-4.6-4.8-5.7-11.6-0.2-17.2c0.8-0.9,1.7-0.8,0.8,0.5c-3.9,4.9-3.2,10.6,0.4,15c0.4-0.8,0.8-1.5,1.3-2.3
			c6.3-10.3,18.3-16.1,27.9-14.6c18.4,2.9,14.3,24.7-10.8,25c-5.8,0.1-11.8-1.5-15.6-4.1c-5.2,11.3-2.9,21.1,4,23.4
			c7.8,2.6,18.7-3.7,20.3-7.7c3.5-8.1,7.5-5.7,7.1-2.7c-0.8,6.6-3.7,12.5-8.1,19.6c5.3,0.1,9.4,0.7,13,1.5
			C234.2,334.8,234.3,336,232,335.5 M204.6,335.4c-10.5,1.6-23.6,10.6-14.9,12.5c5.3,1.2,18.8-3.4,25.8-13.4
			C211.8,334.6,208,334.9,204.6,335.4 M198.7,295.5c-0.7,1.1-1.3,2.2-1.8,3.3c3.7,2.8,9.7,4.4,15.8,3.8c20-2,24.7-19.2,10.2-21.4
			C214.8,280,204.3,286.3,198.7,295.5"/>
		<path fill="#FFFFFF" d="M235.8,328c-3,0-5.6-2-5.7-5.7c-0.1-3.6,2-8,4.6-11.1c3-3.6,7.5-5.8,10.2-3.9c2.3,1.7,0.5,5.8-3.3,8.7
			c-1.8,1.4-5.7,2.6-7.3,2.6c-0.9,2.1-1.9,8.1,2,8.1c5.2,0,8.4-7,9.8-10.2c0.5-1.1,1.7-1.2,1.1,0.1C245,321.4,242.4,328,235.8,328
			 M238.3,312c-1.5,1.9-3,4.5-3.6,5.6c1.1,0,4.2-0.8,6.3-2.6C245.9,310.9,245.6,303.2,238.3,312"/>
		<path fill="#FFFFFF" d="M267.4,328c-2.1,0-5-1.4-3.2-7c0.5-1.5,1.6-3.6,3.3-6.2c1.4-2.3,0.4-3.9-4.2,0.4c-2.6,2.4-7.6,9-8.4,12.6
			c-1.4,0-2.2-1.5-1.9-3.3c0.4-2.6,1.5-4.6,2.5-6.8c2-4,3.9-8.4-2.4-2.6c-2,1.8-4.8,5.1-8.2,11.6c-0.4,0.9-1,1-2.3,1
			c-0.8,0.1-1.4,0-2,0.4c2.9-5.6,5.2-11.2,8.1-16.5c1.5-2.9,2.3-3.9,4.2-3.7c0.8,0.1,1.7,0.4,2.5,0.2c-1.8,0.9-5,6.9-7.2,11.2
			c1.2-1.5,3.1-3.7,4.9-5.3c2.9-2.6,6.7-6.3,8.7-5.6c1.1,0.4,1.4,1.4,0.9,2.6c-1.1,2.5-2.9,5.4-4.3,8.3c1.2-1.5,3.1-3.7,4.9-5.3
			c2.9-2.6,9-6.3,11-5.6c0,0-6.3,11.2-7.1,15.3c-0.4,2.4,0.2,3,1,3c3.1,0,6.9-7.5,8.1-10.3c0.5-1.1,1.4-0.7,0.8,0.5
			C275.5,320.5,272,328,267.4,328"/>
		<path fill="#FFFFFF" d="M280.1,327.4c-0.8,0.4-1.7,0.6-2.4,0.6c-7.2,0-5.8-8.3-3-8.4c1.6-3,3.6-6.9,5.1-10.3
			c1.1-2.3,2.9-4.8,4.9-5.1c0.9-0.1,1.6,0,2.2,0.3c1.1,0.5,0.8,1.5-0.2,1c-0.6-0.2-1.3-0.4-1.9-0.1c-2.7,1.3-2.1,5.4-1.2,7.5
			c1,2.3,2.3,4.4,2.1,7c-0.1,2.3-1.9,5.1-4.2,6.6l0.4,0.1c2,0.3,3.9-1,5.3-2.7c1.4-1.7,3.2-5.3,4.5-7.8c0.3-0.6,1.2-0.2,0.9,0.4
			C290.4,321.5,286.8,329.4,280.1,327.4 M276.1,322.3c-1.9,1.9-1.1,4.7,1.2,4.7c0.4,0,0.8-0.1,1.2-0.2
			C277.2,326,276.2,324.6,276.1,322.3 M281.3,308.8c-1.6,3.2-4.2,8.4-5.6,11c0,0,1.3-0.1,1.2,1.9c-0.1,2.3,1.1,3.9,2.5,4.6
			c1.3-1,2.4-3,2.6-6.2C282.2,316.3,280.8,311.4,281.3,308.8"/>
		<path fill="#FFFFFF" d="M332,312.9c6.5,5.3-2.1,17.6-15.3,17.6c-21.3,0-18.9-23.9,2.4-26.1c-1.1-1.5-1.7-3.5-1.7-5.4
			c0.2-8.4,10.7-13.1,18.1-13c3.3,0.1,7.1,1.2,7.1,5.2c0,2.3-1.6,4.4-3.6,4.4c-1.6,0-2.9-1.3-2.8-2.9c0.1-1.6,1.2-2.7,2.9-2.7
			c0.7,0,1.8,0.5,2,1.1c0.5-2.7-1.8-3.5-4-3.6c-3.1-0.1-7.6,1.4-11.6,4.9c-2.7,2.4-6.2,7.8-4.3,11.6c1.2,0,3.1-0.2,4.9-0.1
			c3.5,0.3,4,3.7-0.2,3.7c-2.6,0-4.8-1.4-6-2.6c-14.1,2.1-17,24.5-3.1,24.5c8.4,0,14.1-6.9,14.4-11.6c0.3-6.6-15.9-6.5-17.1,0.3
			c-0.3,1.8,0.9,3.9,3.9,5.5c0.7,0.4,0.7,1.6,0,1.2c-10.4-5.6-7.3-14.1,4.8-14.1h10.5c2.8,0,13.9-3,10.8-7.7
			c-0.4-0.7,0.2-1.1,0.7-0.5C348.3,308.2,339.9,313,332,312.9 M321.6,304.9c0.9,1.1,2.3,1.8,4.3,1.8c2.9,0,2.3-1.5,0.1-1.7
			C324.5,304.9,323.1,304.9,321.6,304.9"/>
		<path fill="#FFFFFF" d="M413.8,285.8c-0.7,0-2,0.5-2.6,0.5c-7.7,13.2-9.2,28.5-19.8,45c-7,10.8-19.7,17-27.4,18.1
			c-16.9,2.3-29.4-5.5-23.1-20.4c1.6-3.9,6.5-7.5,8.4-7.5c1.2-0.1,0.6,0.5-0.1,0.8c-2.1,0.8-6.1,4.5-7.5,9.3
			c-3.7,13,11.9,17.9,21.5,15.9c20.9-4.6,31-30.5,36.6-42.9c4.2-9.2,8.2-16,9.5-18.1c-9.6,1.5-26.1,8-28.1,19.5
			c-0.8,5.5,1.8,9.2,6.8,7.4c6.4-2.3,6.4-9.3,5.5-10.3c-1-0.6,0.3-1.7,1.2-0.5c2,4.6-1.8,10.4-6.8,12.2c-6.4,2.2-11.9-2.1-10.8-9.2
			c2.2-13.7,22.2-19.3,33-20.7c0.5-0.9,2.9-4.2,4.8-4.8c1.8-0.5,3.3-0.1,3.3,1.5C418.6,284.2,416.1,285.1,413.8,285.8 M412.3,284.8
			c5.3-0.9,4.1-2.9,3.4-2.9C415.1,281.7,413.3,283.7,412.3,284.8"/>
		<path fill="#FFFFFF" d="M408.1,328c-3,0-5.6-2-5.7-5.7c-0.1-3.6,2-8,4.6-11.1c3-3.6,7.5-5.8,10.2-3.9c2.3,1.7,0.5,5.8-3.3,8.7
			c-1.8,1.4-5.7,2.6-7.3,2.6c-0.9,2.1-1.9,8.1,2,8.1c5.2,0,8.4-7,9.8-10.2c0.5-1.1,1.7-1.2,1.1,0.1C417.3,321.4,414.7,328,408.1,328
			 M410.5,312c-1.5,1.9-3,4.5-3.6,5.6c1.1,0,4.2-0.8,6.3-2.6C418.1,310.9,417.9,303.2,410.5,312"/>
		<path fill="#FFFFFF" d="M444.8,308c-1.2,4.2-5.8,21.6-14.4,19.7c-3.2-0.7-2.9-5.5-2.1-8c-1.4,2.5-4.6,8-7.9,8
			c-1.7,0-3.3-1-3.7-2.7c-0.5-2.6,1-4.8,2-6.9c-0.4,0-0.9-0.2-0.5-1l1.1-2.1c1.2-2.3,2.4-4.7,3.3-6.5c0.5-0.9,1.2-1.2,2.3-1.2h3.6
			c-1.4,1-2.2,1.7-3.8,5c0,0-2.7,5.4-3.7,7.7c-2.6,5.5-0.7,8.1,2.3,5.3c3.6-3.5,8.3-13.9,9.6-16.7c0.4-0.9,1.2-1.2,2.3-1.2h3.6
			c-0.5,0.5-1.7,0.9-2.4,2.2c-1.2,2.1-1.7,3-3.3,6.2c-0.7,1.5-5,10.7-1.2,10.9c3.4,0.2,6.5-4.6,8.7-10.3c-0.8-1.8-1-4.3-0.5-5.9
			c1.5-5.3,5.8-5.2,4.8-2.7C444.8,307.8,444.8,307.9,444.8,308"/>
		<path fill="#FFFFFF" d="M451,328c-3,0-5.6-2-5.7-5.7c-0.1-3.6,2-8,4.6-11.1c3-3.6,7.5-5.8,10.2-3.9c2.3,1.7,0.5,5.8-3.3,8.7
			c-1.8,1.4-5.7,2.6-7.3,2.6c-0.9,2.1-1.9,8.1,2,8.1c5.2,0,8.4-7,9.8-10.2c0.5-1.1,1.7-1.2,1.1,0.1C460.2,321.4,457.6,328,451,328
			 M453.4,312c-1.5,1.9-3,4.5-3.6,5.6c1.1,0,4.2-0.8,6.3-2.6C461.1,310.9,460.8,303.2,453.4,312"/>
		<path fill="#FFFFFF" d="M464.7,316.3c-0.3,1-0.9,2.4-1.2,3.9c-1.8,7.1,3,8.1,6.1,3.7c2-2.8,3.6-6,4.4-7.5c0.5-1,1.4-0.9,0.9,0.3
			c-1.5,3.1-4.6,11.2-10.6,11.2c-6.7,0-3.8-8.1-2.8-11.7c1.8-6.7,5.6-15.2,9-21c4.2-7.1,10.6-6.2,6.4,3.3
			C474.2,304.6,470.6,311,464.7,316.3 M474.6,294.9c-2.9,4.1-7.5,14.7-9.4,19.5c4.2-4.3,8.5-11.3,10.8-16.8
			C477.2,294.8,477.8,290.3,474.6,294.9"/>
		<path fill="#FFFFFF" d="M477.3,316.3c-0.3,1-0.9,2.4-1.2,3.9c-1.8,7.1,3,8.1,6.1,3.7c2-2.8,3.6-6,4.4-7.5c0.5-1,1.4-0.9,0.9,0.3
			c-1.5,3.1-4.6,11.2-10.6,11.2c-6.7,0-3.8-8.1-2.8-11.7c1.8-6.7,5.6-15.2,9-21c4.2-7.1,10.6-6.2,6.4,3.3
			C486.8,304.6,483.2,311,477.3,316.3 M487.2,294.9c-2.9,4.1-7.5,14.7-9.4,19.5c4.2-4.3,8.5-11.3,10.8-16.8
			C489.8,294.8,490.4,290.3,487.2,294.9"/>
		<path fill="#FFFFFF" d="M490.8,328c-3,0-5.6-2-5.7-5.7c-0.1-3.6,2-8,4.6-11.1c3-3.6,7.5-5.8,10.2-3.9c2.3,1.7,0.5,5.8-3.3,8.7
			c-1.8,1.4-5.7,2.6-7.3,2.6c-0.9,2.1-1.9,8.1,2,8.1c5.2,0,8.4-7,9.8-10.2c0.5-1.1,1.7-1.2,1.1,0.1C500,321.4,497.4,328,490.8,328
			 M493.3,312c-1.5,1.9-3,4.5-3.6,5.6c1.1,0,4.2-0.8,6.3-2.6C500.9,310.9,500.6,303.2,493.3,312"/>
		<path fill="#FFFFFF" d="M508.9,327.7c-2,0.5-5.6-1.3-3.3-7.5c0.9-2.4,3-5.5,3.7-7c0.8-2-1.2-2.7-4.6-2.8l-0.7,1.9
			c-1.4,3.7-4.3,10.3-7.2,13.1c-0.5,0.4-0.8-0.2-0.5-0.8c4.7-6.2,8-15.2,9.2-21.8c0.6-3.3,4.5-1.8,3.6,2.1c-0.4,1.7-2.3,3.3-3.3,4
			c2.2,0.1,5.3,0.1,8.2-0.2c0.4,0.8-0.5,3.1-1.2,4.6c-0.9,1.8-7,12.7-3.4,12.9c2.4,0.1,6.1-7.4,7.4-9.9c0.5-1,1.3-0.6,0.7,0.6
			C515.8,320.5,512.8,326.8,508.9,327.7"/>
		<path fill="#FFFFFF" d="M527.1,330.7c-3.7,6.7-9.6,15.8-18.4,15.8c-5.9,0-6.5-3.9-4.8-7.2c1.1-2.2,3.3-3.8,5.6-4.9
			c4-1.9,9.6-2.9,14.4-4.3c2.3-3.9,4.2-10.3,5.1-13.4c-2,3.6-5.9,10.9-10.5,10.9c-1.2,0-3.3-0.4-3.7-2.7c-0.5-2.6,1-4.8,2-6.9
			c-0.4,0-0.9-0.2-0.5-1l1.1-2.1c1.2-2.3,2.4-4.7,3.3-6.5c0.5-1,1.2-1.2,2.3-1.2h3.6c-0.5,0.5-1.5,0.9-2.2,2.1
			c-2,3.4-3.7,6.9-5.3,10.5c-2.9,6.2-0.4,8.6,3.5,4.1c3.3-3.9,7.1-10.8,9.3-15.5c0.5-1,1.2-1.2,2.3-1.2h3.2
			c-2.3,1.5-3.1,3.9-4.6,7.9c-1.5,4-3,8.9-4.8,13.6c2.6-0.8,6.2-2.6,8.6-5.9c1.8-2.7,3.1-5.4,3.7-6.5c0.5-1.1,1.4-0.7,0.8,0.5
			C537.2,325.2,535.6,327.7,527.1,330.7 M510.5,335.7c-6.1,2.6-8.3,9.6-3.2,9.6c5.2,0,11.5-7.4,14.3-11.1l1.3-2.2
			C519,333.1,513.9,334.2,510.5,335.7"/>
		<g>
			<defs>
				<rect id="SVGID_5_" x="197.1" y="61.6" width="219.1" height="213.6"/>
			</defs>
			<clipPath id="SVGID_6_">
				<use xlink:href="#SVGID_5_"  overflow="visible"/>
			</clipPath>
			<path clip-path="url(#SVGID_6_)" fill="#FFFFFF" d="M270.2,141.6l7.4,0.6l3.4,0.3l-1-3.2l-2.4-7.4l-0.1-0.4
				c-0.6,0.6-1.2,1.2-1.8,1.8l2.2,6.8l-7.1-0.6c-0.5,0.7-0.9,1.4-1.3,2.1l0,0L270.2,141.6z"/>
			<path clip-path="url(#SVGID_6_)" fill="#FFFFFF" d="M266.4,135.1l-17-17.9l21.3,12.6c0.5-0.6,1.1-1.1,1.6-1.7l-21.8-12.9
				l-13.8-8.2l11,11.6l17.4,18.3C265.5,136.4,265.9,135.7,266.4,135.1"/>
			<path clip-path="url(#SVGID_6_)" fill="#FFFFFF" d="M267.3,178.1l5-5.3l2.3-2.4l-3.1-1.2l-7.3-2.8l-0.5-0.2
				c0.1,0.8,0.1,1.7,0.3,2.5l6.7,2.6l-5,5.2c0.3,0.8,0.5,1.5,0.8,2.3l0.1,0L267.3,178.1z"/>
			<path clip-path="url(#SVGID_6_)" fill="#FFFFFF" d="M259.7,177.1l-24.4,2.1l22.9-8.7c-0.1-0.8-0.2-1.5-0.3-2.3l-23.4,8.9l-15,5.7
				l16-1.4l24.9-2.1C260.1,178.5,259.9,177.8,259.7,177.1"/>
			<path clip-path="url(#SVGID_6_)" fill="#FFFFFF" d="M293.9,203.3l-1-7.4l-0.5-3.3l-2.9,1.7l-6.6,3.9l-0.6,0.3
				c0.7,0.5,1.4,0.9,2.1,1.4l6.2-3.7l1,7.2c0.8,0.3,1.5,0.6,2.3,0.8l0-0.1L293.9,203.3z"/>
			<path clip-path="url(#SVGID_6_)" fill="#FFFFFF" d="M288.4,208.6l-13.5,20.3l7.4-23.2c-0.7-0.4-1.3-0.8-2-1.2l-7.6,23.8
				l-4.9,15.3l8.9-13.3l13.8-20.7C289.8,209.1,289.1,208.9,288.4,208.6"/>
			<path clip-path="url(#SVGID_6_)" fill="#FFFFFF" d="M330.4,198.2l-6.6-3.9l-2.9-1.7l-0.5,3.3l-1,7.4l-0.1,0.8l0,0.1
				c0.8-0.2,1.6-0.5,2.3-0.8l1-7.2l6.2,3.7c0.7-0.4,1.4-0.9,2.1-1.4L330.4,198.2z"/>
			<path clip-path="url(#SVGID_6_)" fill="#FFFFFF" d="M333,204.4c-0.6,0.4-1.3,0.8-2,1.2l7.4,23.2l-13.5-20.3
				c-0.7,0.3-1.4,0.6-2.2,0.8l13.8,20.7l8.9,13.3l-4.9-15.3L333,204.4z"/>
			<path clip-path="url(#SVGID_6_)" fill="#FFFFFF" d="M342.7,171.2l6.7-2.6c0.1-0.8,0.2-1.7,0.3-2.5l-0.5,0.2l-7.3,2.8l-3.1,1.2
				l2.3,2.4l5,5.3l0.6,0.6l0.1,0c0.3-0.7,0.6-1.5,0.8-2.3L342.7,171.2z"/>
			<path clip-path="url(#SVGID_6_)" fill="#FFFFFF" d="M378.9,177.1l-23.4-8.9c-0.1,0.8-0.2,1.5-0.3,2.3l22.9,8.7l-24.4-2.1
				c-0.2,0.7-0.5,1.5-0.7,2.2l24.9,2.1l16,1.4L378.9,177.1z"/>
			<path clip-path="url(#SVGID_6_)" fill="#FFFFFF" d="M303.2,114.1l3.4-24.6l3.4,24.6c0.8,0.1,1.5,0.1,2.3,0.2l-3.5-25.1l-2.2-15.9
				l-2.2,15.9l-3.5,25.1C301.7,114.3,302.5,114.2,303.2,114.1"/>
			<path clip-path="url(#SVGID_6_)" fill="#FFFFFF" d="M300.6,121l4.2,6.3l1.9,2.8l1.9-2.8l4.2-6.3l0.4-0.5
				c-0.8-0.1-1.7-0.2-2.5-0.3l-4,5.9l-4-5.9c-0.8,0.1-1.7,0.2-2.5,0.3L300.6,121z"/>
			<path clip-path="url(#SVGID_6_)" fill="#FFFFFF" d="M348.4,76.2l-21.9,68.5l-1,3.2l3.4-0.3l71.6-6.1L333.3,167l-3.1,1.2l2.3,2.4
				l49.5,52.2L320,186.3l-2.9-1.7l-0.5,3.3l-10,71.2l-10-71.2l-0.5-3.3l-2.9,1.7l-61.9,36.6l49.5-52.2l2.3-2.4l-3.1-1.2l-67.2-25.6
				l71.6,6.1l3.4,0.3l-1-3.2l-21.9-68.5l39.9,59.8l1.9,2.8l1.9-2.8L348.4,76.2z M355.4,61.6l-48.8,73.2l-48.8-73.2l26.8,83.7
				l-87.6-7.5l82.2,31.3l-60.5,63.8l75.7-44.8l12.2,87.1l12.2-87.1l75.7,44.8l-60.5-63.8l82.2-31.3l-87.6,7.5L355.4,61.6z"/>
			<path clip-path="url(#SVGID_6_)" fill="#FFFFFF" d="M283.3,147.5c0.9-1.4,2-2.7,3.2-4l-5.9-18.4c-7.4,5.1-13.2,12.3-16.6,20.7
				L283.3,147.5z"/>
			<path clip-path="url(#SVGID_6_)" fill="#FFFFFF" d="M296.9,189.4c-1.7-0.6-3.3-1.4-4.9-2.4l-16.6,9.8
				c6.6,6.1,14.9,10.3,24.2,11.7L296.9,189.4z"/>
			<path clip-path="url(#SVGID_6_)" fill="#FFFFFF" d="M278.8,166.5l-18-6.9c-0.1,1.1-0.1,2.2-0.1,3.4c0,8.3,2.2,16,6,22.7
				l13.3-14.1C279.4,170.1,279,168.3,278.8,166.5"/>
			<path clip-path="url(#SVGID_6_)" fill="#FFFFFF" d="M333.4,171.7l13.3,14.1c3.8-6.7,6-14.5,6-22.7c0-1.1-0.1-2.3-0.1-3.4l-18,6.9
				C334.3,168.3,334,170.1,333.4,171.7"/>
			<path clip-path="url(#SVGID_6_)" fill="#FFFFFF" d="M304.2,135.1c0.8-0.1,1.7-0.1,2.5-0.1c0.8,0,1.7,0.1,2.5,0.1l10.7-16.1
				c-4.2-1.3-8.6-1.9-13.3-1.9c-4.6,0-9.1,0.7-13.3,1.9L304.2,135.1z"/>
			<path clip-path="url(#SVGID_6_)" fill="#FFFFFF" d="M321.3,187c-1.5,0.9-3.2,1.7-4.9,2.4l-2.7,19.2c9.3-1.4,17.6-5.6,24.2-11.7
				L321.3,187z"/>
			<path clip-path="url(#SVGID_6_)" fill="#FFFFFF" d="M364,117.2l-21,22.2l-7.4,0.6l2.4-7.4L364,117.2z M376.6,107.1l-13.8,8.2
				l-26.1,15.4l-0.7,0.4l-0.3,0.8l-2.4,7.4l-1,3.2l3.4-0.3l7.4-0.6l0.8-0.1l0.6-0.6l21-22.2L376.6,107.1z"/>
			<path clip-path="url(#SVGID_6_)" fill="#FFFFFF" d="M352,162.4l0.7-1.3h-45.4v13.3v1.6v3.5h16.3c-2.8,2.7-3.4,3-6.5,4.7
				l-3.4,24.4c22.1-3.4,39-22.5,39-45.5c0-0.3,0-0.7,0-1L352,162.4z"/>
		</g>
	</g>
</g>
</svg>
