<?xml version="1.0" encoding="utf-8"?>
<!DOCTYPE svg PUBLIC "-//W3C//DTD SVG 1.1//EN" "https://www.w3.org/Graphics/SVG/1.1/DTD/svg11.dtd">
<svg version="1.1" id="Layer_1" xmlns="https://www.w3.org/2000/svg" xmlns:xlink="https://www.w3.org/1999/xlink" x="0px" y="0px"
	 width="1198.567px" height="242.213px" viewBox="0 0 1198.567 242.213" enable-background="new 0 0 1198.567 242.213"
	 xml:space="preserve">
<g>
	<path fill="#FFFFFF" d="M333.503,127.745c0,1.336,0.028,2.73,0.09,4.186c0.06,1.455,0.151,2.73,0.273,3.82
		c0.119,1.337,0.302,2.61,0.546,3.822h-0.728c-0.486-1.211-0.972-2.485-1.456-3.822c-0.486-1.091-1-2.365-1.546-3.82
		c-0.546-1.457-1.123-2.85-1.729-4.186l-31.846-70.971h-27.296v127.383h25.477v-70.971c0-1.333-0.063-2.698-0.182-4.094
		c-0.122-1.394-0.245-2.699-0.364-3.913c-0.123-1.333-0.245-2.608-0.364-3.822h0.728c0.484,1.214,0.97,2.488,1.456,3.822
		c0.483,1.214,1.001,2.519,1.547,3.913c0.545,1.396,1.12,2.76,1.729,4.094l31.846,70.971h27.296V56.774h-25.477V127.745z"/>
	<path fill="#FFFFFF" d="M482.593,54.045c-3.64,0-6.824,1.365-9.554,4.095c-2.73,2.73-4.094,5.914-4.094,9.553
		s1.365,6.825,4.094,9.554c2.73,2.73,5.914,4.094,9.554,4.094c3.639,0,6.824-1.364,9.554-4.094s4.094-5.915,4.094-9.554
		s-1.365-6.823-4.094-9.553C489.417,55.41,486.233,54.045,482.593,54.045z"/>
	<rect x="469.855" y="93.169" fill="#FFFFFF" width="25.477" height="90.988"/>
	<path fill="#FFFFFF" d="M846.887,91.35c-13.225,0-23.506,3.885-30.845,11.646c-7.342,7.765-11.01,19.654-11.01,35.667
		s3.668,27.905,11.01,35.668c7.339,7.765,17.62,11.646,30.845,11.646c13.221,0,23.503-3.881,30.845-11.646
		c7.339-7.763,11.01-19.654,11.01-35.668s-3.671-27.902-11.01-35.667C870.39,95.234,860.109,91.35,846.887,91.35z M861.991,153.495
		c-0.85,3.944-2.001,7.097-3.457,9.462c-1.456,2.366-3.185,4.067-5.186,5.096c-2.002,1.032-4.157,1.546-6.46,1.546
		c-2.306,0-4.458-0.515-6.46-1.546c-2.002-1.029-3.731-2.73-5.187-5.096c-1.455-2.365-2.61-5.518-3.457-9.462
		c-0.85-3.941-1.274-8.886-1.274-14.831c0-5.943,0.424-10.886,1.274-14.831c0.848-3.94,2.002-7.097,3.457-9.462
		c1.456-2.366,3.185-4.063,5.187-5.096c2.002-1.029,4.154-1.546,6.46-1.546c2.303,0,4.458,0.517,6.46,1.546
		c2.001,1.033,3.73,2.73,5.186,5.096c1.456,2.365,2.608,5.522,3.457,9.462c0.848,3.945,1.274,8.888,1.274,14.831
		C863.265,144.609,862.839,149.554,861.991,153.495z"/>
	<path fill="#FFFFFF" d="M1173.091,93.169l-15.468,59.142c-0.244,0.973-0.455,2.033-0.637,3.185
		c-0.182,1.154-0.336,2.215-0.455,3.184c-0.122,1.214-0.245,2.428-0.364,3.64h-0.728c-0.123-1.211-0.245-2.425-0.364-3.64
		c-0.122-0.969-0.273-2.03-0.455-3.184c-0.182-1.152-0.395-2.212-0.637-3.185l-18.198-59.142h-25.477l34.757,100.087
		c-2.306,8.49-6.309,12.738-12.01,12.738c-1.337,0-2.61-0.213-3.822-0.637c-1.214-0.427-2.306-0.942-3.275-1.548
		c-1.092-0.608-2.065-1.396-2.912-2.365h-1.82l-6.369,15.468c1.697,1.092,3.64,2.002,5.823,2.73c1.82,0.728,3.941,1.364,6.369,1.911
		c2.426,0.545,5.033,0.819,7.825,0.819c8.735,0,15.832-2.579,21.291-7.735c5.459-5.158,9.582-12.283,12.375-21.382l30.026-100.087
		H1173.091z"/>
	<path fill="#FFFFFF" d="M213.888,84.046l-42.953-24.992c-4.513-2.627-10.286-1.338-13.255,2.956l-56.706,82.015
		c-1.149,1.662-1.768,3.634-1.774,5.654l-0.215,65.092L20,168.352V95.326l49.017-72.021l63.542,36.687
		c4.78,2.761,10.898,1.123,13.66-3.66s1.123-10.899-3.66-13.66L70.975,1.342c-4.535-2.62-10.321-1.295-13.267,3.034L1.733,86.618
		C0.604,88.278,0,90.239,0,92.245v81.829c0,3.545,1.877,6.825,4.933,8.621l98.928,58.139c1.563,0.919,3.315,1.379,5.067,1.379
		c1.708,0,3.417-0.438,4.952-1.312c3.111-1.773,5.036-5.074,5.048-8.654l0.262-79.398l49.681-71.856l29.987,17.449v58.43
		l-42.146-24.199c-4.79-2.751-10.901-1.098-13.651,3.692c-2.75,4.79-1.097,10.901,3.692,13.651l57.126,32.801
		c3.094,1.777,6.901,1.771,9.99-0.018c3.088-1.788,4.99-5.086,4.99-8.654V92.69C218.858,89.129,216.965,85.837,213.888,84.046z"/>
	<polygon fill="#FFFFFF" points="1080.72,56.774 1073.441,56.774 1073.441,64.053 1073.441,76.603 1073.441,184.157 
		1098.918,184.157 1098.918,56.774 1089.577,56.774 	"/>
	<path fill="#FFFFFF" d="M783.088,103.087c-3.398-3.941-7.432-6.884-12.102-8.825c-4.671-1.939-9.858-2.912-15.558-2.912
		c-2.793,0-5.308,0.304-7.552,0.91c-2.246,0.608-4.157,1.214-5.732,1.82c-1.942,0.851-3.58,1.761-4.913,2.73V56.774h0h-9.341h-8.857
		h-7.279v7.279v12.55v107.554h18.198h7.279v-6.019l1.638,1.47c2.062,1.7,4.609,3.185,7.643,4.458
		c3.031,1.274,6.611,1.911,10.737,1.911c5.215,0,10.037-0.973,14.467-2.912c4.427-1.939,8.28-4.882,11.555-8.825
		c3.276-3.941,5.824-8.855,7.643-14.74c1.82-5.883,2.73-12.829,2.73-20.836c0-8.007-0.91-14.951-2.73-20.836
		C789.093,111.944,786.483,107.031,783.088,103.087z M766.891,152.948c-0.85,3.822-1.973,6.916-3.366,9.281
		c-1.396,2.367-3.034,4.035-4.913,5.005c-1.883,0.971-3.853,1.455-5.914,1.455c-2.548,0-4.763-0.575-6.642-1.729
		c-1.882-1.151-3.489-2.395-4.822-3.731c-1.456-1.575-2.792-3.394-4.003-5.459v-44.584c1.211-0.969,2.485-1.879,3.821-2.73
		c1.211-0.606,2.639-1.211,4.277-1.82c1.638-0.606,3.486-0.91,5.55-0.91c2.547,0,4.85,0.517,6.915,1.546
		c2.061,1.033,3.881,2.73,5.459,5.096c1.575,2.365,2.79,5.522,3.639,9.462c0.848,3.945,1.274,8.888,1.274,14.831
		C768.166,144.368,767.739,149.128,766.891,152.948z"/>
	<path fill="#FFFFFF" d="M657.835,91.35c-3.156,0-5.977,0.456-8.462,1.365c-2.488,0.91-4.58,1.851-6.278,2.821
		c-2.064,1.214-3.821,2.547-5.277,4.003V56.774h0h-9.341h-8.857h0h-7.279v7.279v12.55v107.554h25.477h0v-64.601
		c1.211-2.061,2.547-3.881,4.003-5.459c1.333-1.333,2.94-2.576,4.822-3.731c1.879-1.151,4.094-1.729,6.643-1.729
		c4.123,0,7.43,1.396,9.918,4.186c2.485,2.791,3.731,7.158,3.731,13.102v58.232h25.477v-58.232c0-11.038-3.003-19.562-9.008-25.568
		C677.397,94.353,668.873,91.35,657.835,91.35z"/>
	<path fill="#FFFFFF" d="M1054.154,91.623c-1.638-0.182-3.247-0.273-4.822-0.273c-4.126,0-7.706,0.669-10.737,2.002
		c-3.034,1.336-5.581,2.793-7.643,4.367c-0.567,0.454-1.11,0.919-1.638,1.393v-5.942h-7.279h-10.209h-7.989v90.988h25.477V133.63
		v-13.164c1.211-2.061,2.547-3.881,4.003-5.459c1.333-1.333,2.94-2.576,4.822-3.731c1.879-1.151,4.094-1.729,6.643-1.729
		c1.575,0,3.122,0.091,4.641,0.273c1.515,0.182,2.88,0.395,4.094,0.637c1.333,0.364,2.667,0.669,4.003,0.91h1.82l3.64-18.198
		c-1.456-0.241-2.912-0.545-4.368-0.91C1057.276,92.018,1055.792,91.805,1054.154,91.623z"/>
	<path fill="#FFFFFF" d="M958.438,157.771c-1.214,2.065-2.548,3.885-4.003,5.459c-1.337,1.336-2.975,2.579-4.914,3.731
		c-1.942,1.154-4.125,1.729-6.551,1.729c-4.126,0-7.432-1.394-9.918-4.185c-2.488-2.79-3.731-7.157-3.731-13.103V93.169h-25.477
		v58.232c0,11.04,3.002,19.563,9.008,25.568c6.005,6.005,14.527,9.008,25.568,9.008c4.123,0,7.703-0.637,10.736-1.911
		c3.031-1.273,5.579-2.758,7.643-4.458c0.561-0.443,1.106-0.905,1.638-1.384v5.933h25.477V93.169h-25.477V157.771z"/>
	<path fill="#FFFFFF" d="M567.048,93.169v6c-0.532-0.494-1.078-0.979-1.638-1.451c-2.064-1.575-4.612-3.031-7.643-4.367
		c-3.034-1.333-6.614-2.002-10.736-2.002c-5.218,0-10.04,0.973-14.467,2.912c-4.43,1.942-8.28,4.884-11.556,8.825
		c-3.276,3.944-5.823,8.858-7.643,14.74c-1.82,5.885-2.73,12.829-2.73,20.836c0,8.007,0.91,14.953,2.73,20.836
		c1.82,5.885,4.427,10.799,7.825,14.74c3.395,3.944,7.43,6.886,12.101,8.825c4.669,1.939,9.855,2.912,15.559,2.912
		c2.789,0,5.246-0.273,7.37-0.819c2.121-0.547,4.032-1.183,5.732-1.911c1.82-0.728,3.517-1.638,5.095-2.73v5.459
		c0,6.43-1.7,11.373-5.095,14.831c-3.398,3.457-8.07,5.186-14.012,5.186c-3.156,0-5.977-0.365-8.462-1.092
		c-2.488-0.728-4.58-1.578-6.278-2.547c-2.064-1.092-3.821-2.306-5.277-3.64h-1.82l-8.189,14.558
		c2.547,1.698,5.459,3.213,8.735,4.549c2.789,1.211,6.125,2.274,10.009,3.184c3.881,0.91,8.249,1.365,13.102,1.365
		c6.793,0,12.858-0.91,18.198-2.73c5.337-1.82,9.826-4.367,13.466-7.644c3.64-3.275,6.397-7.128,8.28-11.555
		c1.879-4.43,2.821-9.253,2.821-14.467v-48.874V93.169h-18.198H567.048z M567.048,137.103v27.037
		c-1.214,1.092-2.488,2.002-3.822,2.73c-1.214,0.728-2.639,1.365-4.276,1.911c-1.638,0.545-3.489,0.819-5.55,0.819
		c-2.548,0-4.854-0.515-6.915-1.546c-2.064-1.029-3.884-2.73-5.459-5.096c-1.578-2.365-2.792-5.518-3.64-9.462
		c-0.85-3.941-1.274-8.886-1.274-14.831c0-5.701,0.423-10.463,1.274-14.285c0.848-3.822,1.971-6.916,3.367-9.281
		c1.393-2.365,3.031-4.032,4.913-5.004c1.879-0.97,3.85-1.457,5.914-1.457c2.426,0,4.609,0.578,6.551,1.729
		c1.939,1.155,3.577,2.397,4.914,3.731c1.455,1.578,2.789,3.398,4.003,5.459V137.103z"/>
	<path fill="#FFFFFF" d="M415.118,91.35c-12.255,0-21.99,3.913-29.207,11.737c-7.219,7.826-10.827,19.685-10.827,35.576
		c0,31.544,15.164,47.314,45.494,47.314c4.609,0,8.763-0.456,12.465-1.365c3.699-0.909,6.943-1.97,9.736-3.184
		c3.153-1.333,6.065-2.849,8.735-4.549l-8.189-14.558h-1.82c-1.456,1.336-3.156,2.547-5.095,3.64c-1.7,0.973-3.731,1.82-6.096,2.547
		c-2.365,0.728-5.004,1.092-7.916,1.092c-14.558,0-21.837-7.581-21.837-22.747h26.017h3.1h20.017h5.081
		c0.166-1.735,0.258-3.547,0.314-5.396l0.064-0.064v-4.549c0-15.042-3.611-26.386-10.828-34.029
		C437.106,95.171,427.37,91.35,415.118,91.35z M426.577,130.474H400.56c0-7.763,1.516-13.494,4.549-17.197
		c3.031-3.699,6.369-5.55,10.009-5.55c3.64,0,6.975,1.852,10.009,5.55c0.541,0.661,1.017,1.411,1.462,2.202
		c0.956,1.698,1.683,3.701,2.197,5.99c0.048,0.218,0.101,0.431,0.145,0.654c0.08,0.398,0.148,0.811,0.215,1.227
		c0.056,0.348,0.108,0.7,0.155,1.06c0.048,0.364,0.092,0.733,0.13,1.109c0.048,0.476,0.086,0.967,0.119,1.463
		c0.021,0.305,0.046,0.605,0.061,0.918c0.04,0.834,0.065,1.687,0.065,2.574H426.577z"/>
</g>
</svg>
