<?xml version="1.0" encoding="utf-8"?>
<!-- Generator: Adobe Illustrator 18.1.1, SVG Export Plug-In . SVG Version: 6.00 Build 0)  -->
<svg version="1.1" id="Layer_1" xmlns="http://www.w3.org/2000/svg" xmlns:xlink="http://www.w3.org/1999/xlink" x="0px" y="0px"
	 viewBox="0 149 800 307" enable-background="new 0 149 800 307" xml:space="preserve">
<g>
	<path fill="#6C5B7B" d="M308.1,239.6c-15.3,4.3-27.7,15.6-33.1,30.9c-3.2,8.9-3.6,17.4-2.5,25.2c4.3,43.4,49.8,107,49.8,107
		s45.9-64,49.8-107c0.4-2.5,0.7-5,0.7-7.5C372.8,255.6,341.9,230.3,308.1,239.6z M323.7,310c-13.2,0.7-24.2-10-23.1-23.1
		c0.7-11,9.6-19.6,20.3-20.3c13.2-0.7,24.2,10,23.1,23.1C343.3,300.4,334.4,309.2,323.7,310z"/>
	<path fill="#6C5B7B" d="M105.8,238.8c3.9,1.1,7.8,2.5,11.7,4.6c0,1.4-0.4,2.8-1.1,5c-0.7,2.1-1.1,3.9-1.8,6.4
		c-0.7,2.1-1.4,4.3-1.8,6.4c-0.7,2.1-1.1,3.6-1.1,5c-3.6-1.1-7.1-2.5-10.7-3.6c-3.6-1.4-7.5-2.1-10.7-2.1s-6,0.7-8.5,1.8
		s-4.6,2.8-6,5c-1.8,2.1-2.8,4.3-3.9,7.1c-0.7,2.8-1.4,5.7-1.4,8.5c0,2.8,0.4,5.7,1.1,8.2c0.7,2.8,2.1,5.3,3.6,7.5
		c1.8,2.1,3.6,3.9,6,5.3c2.5,1.4,5,2.1,8.2,2.1c1.8,0,3.2-0.4,5-0.7c1.8-0.4,3.6-0.7,5-1.4c1.8-0.4,3.2-1.1,4.6-1.4
		c1.4-0.4,2.8-0.7,3.9-0.7c2.8,0,5.7,1.1,7.8,3.2s3.2,4.6,3.2,7.5c0,3.2-1.1,6-3.2,8.2c-2.1,2.1-4.6,3.6-7.5,5
		c-2.8,1.1-6,1.8-9.2,2.1c-3.2,0.4-6.4,0.7-8.9,0.7c0,0-0.4,0-0.7,0c-0.4,0-0.4,0-0.4,0c-6.4,0-12.4-1.1-17.8-3.6
		c-5.3-2.5-10-5.7-14.2-9.6c-3.9-4.3-7.1-8.9-9.2-14.6c-2.1-6-3.2-12.1-3.2-18.5c0-5,0.7-9.6,2.5-14.6c1.8-4.6,3.9-8.9,6.4-12.8
		c4.6-6.4,10.3-10.7,17.1-13.5c6.8-2.8,14.2-4.3,22.4-4.3C97.6,237.1,101.9,237.8,105.8,238.8z"/>
	<path fill="#6C5B7B" d="M187.2,326.7c0-0.7,0-1.4,0-2.8c0-1.1,0-2.5,0-3.6s0-2.8,0-4.6c-2.5,4.3-5.7,7.1-9.6,9.2
		c-3.9,2.1-8.2,2.8-13.2,2.8c-6.4,0-12.1-1.1-17.1-3.6s-9.6-5.7-13.2-10c-3.6-4.3-6.4-8.9-8.2-14.6c-1.8-5.3-2.8-11.4-2.8-17.4
		c0-4.6,0.7-9.2,1.8-13.9c1.4-4.6,3.2-8.5,5.3-12.4c2.5-3.6,5.3-6.8,8.5-9.6c3.6-2.8,7.5-4.6,11.7-6c3.9-1.1,7.8-1.1,12.1-0.7
		c3.9,0.4,7.5,1.1,10.7,2.1c3.2,1.1,6.8,2.5,10.7,4.6c1.1-3.2,2.8-5.3,5-6.8c2.1-1.4,4.3-2.1,6.4-2.5c2.1-0.4,3.9-0.4,5.7,0
		c2.8,0.4,5.3,1.4,6.8,3.6c1.4,2.1,2.1,4.6,2.1,7.5v77.9h-22.8L187.2,326.7L187.2,326.7z M184.7,273.3c-0.7-2.8-1.8-5.3-3.2-7.5
		c-1.4-2.1-3.2-3.9-5.7-5.3s-5-2.1-8.5-2.1c-3.2,0-6,0.7-8.5,2.1s-4.3,3.2-6,5.7c-1.4,2.5-2.8,5-3.6,7.8c-0.7,2.8-1.1,5.7-1.1,8.5
		s0.4,5.7,1.1,8.5s1.8,5.3,3.2,7.8s3.6,4.3,5.7,5.7c2.5,1.4,5,2.1,8.5,2.1s6.4-0.7,8.5-2.1c2.5-1.4,4.3-3.6,5.7-5.7
		c1.4-2.5,2.5-5,3.2-7.8s1.1-6,1.1-8.9C185.8,278.7,185.4,276.2,184.7,273.3z"/>
	<path fill="#6C5B7B" d="M272.5,254.5c-1.1,1.4-2.1,2.8-3.9,3.9c-1.4,1.1-3.2,1.8-5.3,2.8c-1.8,0.7-3.9,1.8-6,2.8
		c-2.1,1.1-3.9,2.1-5.7,3.9c-1.8,1.4-3.2,3.2-4.6,5.7c-1.1,1.8-1.4,3.9-1.8,6c-0.4,2.1-0.4,4.6-0.4,7.1v39.8h-25.6v-77.3
		c0-1.4,0.4-2.8,1.1-3.6c0.7-1.1,1.8-1.8,2.8-2.8c1.4-1.1,3.2-1.4,4.6-1.1c1.4,0.4,2.8,1.4,3.9,2.8c1.1,1.4,2.1,3.2,3.2,5
		s1.8,3.9,2.5,5.7c0-0.4,0.7-1.1,1.8-2.1c1.1-1.4,2.8-2.8,4.6-5c2.1-2.1,4.3-3.9,6.8-5.3c1.8-1.1,3.9-2.5,6.4-3.6s4.6-1.4,7.1-1.4
		c2.5,0.4,4.6,1.4,6.4,3.6c1.8,2.1,2.8,4.3,2.8,7.1C273.9,250.9,273.6,253.1,272.5,254.5z"/>
	<path fill="#6C5B7B" d="M465.6,299.6c-2.1,5.7-5.3,10.3-9.2,14.6s-8.5,7.5-13.9,10s-11.4,3.6-17.8,3.6s-12.4-1.1-17.8-3.6
		c-5.3-2.5-10-5.7-13.9-10s-7.1-8.9-9.2-14.6s-3.2-11.4-3.2-17.8c0-6.4,1.1-12.1,3.2-17.8s5.3-10.3,9.2-14.6
		c3.9-4.3,8.5-7.5,13.9-10c5.3-2.5,11.4-3.6,17.8-3.6s12.1,1.1,17.8,3.6c5.3,2.5,10,5.7,13.9,10c3.9,4.3,7.1,8.9,9.2,14.6
		s3.2,11.4,3.2,17.8C468.8,288.3,467.7,294.3,465.6,299.6z M442.5,273.7c-0.7-2.8-1.8-5.3-3.6-7.8c-1.4-2.1-3.6-4.3-6-5.7
		c-2.5-1.4-5-2.1-8.2-2.1s-6,0.7-8.2,2.1c-2.5,1.4-4.3,3.2-5.7,5.7c-1.4,2.5-2.5,5-3.6,7.8c-0.7,2.8-1.1,5.7-1.1,8.2
		c0,2.8,0.4,5.7,1.1,8.5s1.8,5.7,3.2,7.8c1.4,2.5,3.6,4.3,5.7,5.7c2.5,1.4,5,2.1,8.2,2.1s6-0.7,8.5-2.1s4.3-3.6,5.7-5.7
		c1.4-2.5,2.5-5,3.2-7.8s1.1-5.7,1.1-8.5C443.5,279.4,443.2,276.5,442.5,273.7z"/>
	<path fill="#6C5B7B" d="M560.9,299.6c-2.1,5.7-5.3,10.3-9.2,14.6s-8.5,7.5-13.9,10s-11.4,3.6-17.8,3.6s-12.4-1.1-17.8-3.6
		c-5.3-2.5-10-5.7-13.9-10s-7.1-8.9-9.2-14.6c-2.1-5.7-3.2-11.4-3.2-17.8c0-6.4,1.1-12.1,3.2-17.8s5.3-10.3,9.2-14.6
		c3.9-4.3,8.5-7.5,13.9-10c5.3-2.5,11.4-3.6,17.8-3.6s12.1,1.1,17.8,3.6c5.3,2.5,10,5.7,13.9,10c3.9,4.3,7.1,8.9,9.2,14.6
		c2.1,5.7,3.2,11.4,3.2,17.8C564.4,288.3,563.4,294.3,560.9,299.6z M538.1,273.7c-0.7-2.8-1.8-5.3-3.6-7.8c-1.4-2.1-3.6-4.3-6-5.7
		c-2.5-1.4-5-2.1-8.2-2.1s-6,0.7-8.2,2.1c-2.5,1.4-4.3,3.2-5.7,5.7c-1.4,2.5-2.5,5-3.6,7.8c-0.7,2.8-1.1,5.7-1.1,8.2
		c0,2.8,0.4,5.7,1.1,8.5s1.8,5.7,3.2,7.8c1.4,2.5,3.6,4.3,5.7,5.7c2.5,1.4,5,2.1,8.2,2.1s6-0.7,8.5-2.1s4.3-3.6,5.7-5.7
		c1.4-2.5,2.5-5,3.2-7.8s1.1-5.7,1.1-8.5C539.2,279.4,538.8,276.5,538.1,273.7z"/>
	<path fill="#6C5B7B" d="M571.9,326.7V210c0-3.6,1.4-6.8,3.9-9.2c2.5-2.5,5.7-3.6,9.2-3.6s6.4,1.4,8.9,3.9s3.6,5.3,3.6,8.9v116.3
		L571.9,326.7z"/>
	<path fill="#6C5B7B" d="M690.7,287.2c-2.1,1.4-5,2.1-8.9,2.1h-48.4c1.1,5.3,3.9,9.6,7.8,12.8c3.9,3.2,8.9,5,14.6,5
		c2.8,0,6-0.4,8.9-1.1c3.2-0.7,6-1.1,8.9-1.8l3.6,19.2c-3.9,1.4-7.8,2.5-11.4,3.2c-3.9,0.7-7.8,1.1-12.1,1.1
		c-6.8,0-12.8-1.1-18.8-3.2c-5.7-2.1-10.7-5.3-15.3-9.2c-4.3-3.9-7.8-8.9-10-14.6c-2.5-5.7-3.6-11.7-3.6-18.8
		c0-6.4,1.1-12.4,3.6-17.8c2.1-5.3,5.3-10.3,9.2-14.2s8.9-7.5,14.2-9.6c5.3-2.5,11.4-3.6,17.8-3.6c5.7,0,11,1.1,16.4,3.6
		c5.3,2.1,9.6,5.3,13.5,9.2s7.1,8.2,9.2,13.5c2.5,5,3.6,10.7,3.6,16.4C693.9,282.9,692.8,285.8,690.7,287.2z M667.5,274.8
		c0-2.5-0.7-4.6-1.4-6.8c-0.7-2.1-1.8-4.3-3.2-6c-1.4-1.8-3.2-3.2-5-4.3c-2.1-1.1-4.3-1.8-6.8-1.8c-2.8,0-5,0.4-7.1,1.4
		c-2.1,1.1-3.9,2.5-5,4.3c-1.4,1.8-2.5,3.9-3.2,6s-1.4,4.6-1.8,7.1L667.5,274.8L667.5,274.8z"/>
	<path fill="#6C5B7B" d="M754.3,254.5c-1.1,1.4-2.1,2.8-3.9,3.9c-1.4,1.1-3.2,1.8-5.3,2.8c-1.8,0.7-3.9,1.8-6,2.8
		c-2.1,1.1-3.9,2.1-5.7,3.9c-1.8,1.4-3.2,3.2-4.6,5.7c-1.1,1.8-1.4,3.9-1.8,6c-0.4,2.1-0.4,4.6-0.4,7.1v39.8H701v-77.3
		c0-1.4,0.4-2.8,1.1-3.6c0.7-1.1,1.8-1.8,2.8-2.8c1.4-1.1,3.2-1.4,4.6-1.1c1.4,0.4,2.8,1.4,3.9,2.8c1.1,1.4,2.1,3.2,3.2,5
		s1.8,3.9,2.5,5.7c0-0.4,0.7-1.1,1.8-2.1c1.1-1.4,2.8-2.8,4.6-5c2.1-2.1,4.3-3.9,6.8-5.3c1.8-1.1,3.9-2.5,6.4-3.6s4.6-1.4,7.1-1.4
		c2.5,0.4,4.6,1.4,6.4,3.6c1.8,2.1,2.8,4.3,2.8,7.1C755.7,250.9,755.4,253.1,754.3,254.5z"/>
</g>
<g>
	<path fill="#F67280" d="M342.2,334.5L342.2,334.5c-1.1,0.4-2.1,0.7-3.2,1.4c-0.7,0.4-1.4,0.4-2.1,0.7c0,0,0,0-0.4,0
		c-0.7,0.4-1.1,0.4-1.8,0.4l0,0c-1.4,0.4-2.8,0.7-4.3,0.7l0,0c-2.8,0.4-5.3,0.7-8.2,0.7c-1.4,0-2.8,0-4.3-0.4
		c6,17.8,9.2,28.1,11,35.2c3.6,14.6-6.4,29.5-6.4,29.5s15.6-22,29.5-48.7l0,0l0,0c0.7-1.1,1.1-2.1,1.8-3.6c0,0,0-0.4,0.4-0.4
		c0.4-0.7,0.7-1.1,1.1-1.8l0,0c8.5-17.4,16-36.6,17.4-52.6l0,0C369.6,313.2,357.9,327.7,342.2,334.5z"/>
	<path fill="#D60B51" d="M372.4,291.8L372.4,291.8L372.4,291.8z"/>
</g>
</svg>
