<?xml version="1.0" encoding="UTF-8" standalone="no"?>
<svg width="151px" height="26px" viewBox="0 0 151 26" version="1.1" xmlns="http://www.w3.org/2000/svg" xmlns:xlink="http://www.w3.org/1999/xlink" xmlns:sketch="http://www.bohemiancoding.com/sketch/ns">
    <!-- Generator: Sketch 3.3.3 (12072) - http://www.bohemiancoding.com/sketch -->
    <title>generate-logo</title>
    <desc>Created with Sketch.</desc>
    <defs></defs>
    <g id="Page-1" stroke="none" stroke-width="1" fill="none" fill-rule="evenodd" sketch:type="MSPage">
        <g id="generate-logo" sketch:type="MSArtboardGroup" fill="#00ADEF">
            <g id="Imported-Layers" sketch:type="MSLayerGroup">
                <path d="M18.59,25.02 C19.07,25.42 19.69,25.62 20.45,25.62 C20.93,25.62 21.32,25.57 21.63,25.45 C21.92,25.33 22.1,25.25 22.11,25.16 L24.35,14.59 C24.76,12.74 24.11,11.82 22.37,11.82 L14.95,11.82 C14.4,11.82 14.01,11.87 13.74,11.96 C13.46,12.04 13.24,12.18 13.07,12.37 C12.77,12.64 12.57,13.03 12.45,13.51 C12.33,13.99 12.26,14.39 12.26,14.66 C12.26,15.09 12.43,15.45 12.81,15.72 C13.17,16 13.68,16.13 14.35,16.13 L18.87,16.13 C18.71,16.75 18.56,17.26 18.42,17.66 C18.28,18.05 18.13,18.4 17.96,18.69 C17.79,18.98 17.62,19.22 17.41,19.42 C17.22,19.63 17,19.85 16.74,20.07 C16.17,20.55 15.54,20.93 14.83,21.19 C14.13,21.44 13.29,21.56 12.31,21.56 C10.32,21.56 8.74,20.96 7.55,19.75 C6.37,18.55 5.79,16.85 5.82,14.7 C5.82,13.34 6.04,12.06 6.49,10.86 C6.94,9.66 7.55,8.63 8.34,7.74 C9.13,6.85 10.06,6.15 11.13,5.64 C12.19,5.12 13.36,4.86 14.63,4.86 C16.12,4.86 17.41,5.22 18.47,5.93 C19.54,6.63 20.33,7.5 20.84,8.53 C20.89,8.58 21.1,8.6 21.48,8.6 C21.86,8.6 22.25,8.51 22.7,8.34 C23.13,8.17 23.54,7.9 23.9,7.52 C24.26,7.14 24.45,6.58 24.45,5.86 C24.45,4.83 23.97,3.84 23.02,2.89 C22.22,2.09 21.12,1.42 19.68,0.86 C18.25,0.29 16.53,0 14.52,0 C12.38,0 10.42,0.41 8.65,1.23 C6.87,2.06 5.34,3.17 4.05,4.57 C2.76,5.98 1.77,7.59 1.06,9.4 C0.36,11.24 0,13.14 0,15.14 C0,16.82 0.26,18.31 0.77,19.65 C1.29,20.98 2.01,22.11 2.95,23.04 C3.9,23.96 5.03,24.66 6.37,25.16 C7.71,25.66 9.2,25.9 10.85,25.9 C12.4,25.9 13.75,25.64 14.95,25.13 C16.14,24.61 17.1,23.91 17.86,23 C17.84,23.96 18.1,24.63 18.59,25.02" id="Fill-1" sketch:type="MSShapeGroup"></path>
                <path d="M39.64,11.87 C39.64,12.23 39.54,12.57 39.33,12.9 C39.13,13.22 38.77,13.5 38.25,13.75 C37.74,13.99 37.05,14.2 36.16,14.34 C35.28,14.47 34.18,14.54 32.88,14.54 C32.11,14.54 31.23,14.51 30.25,14.42 C30.82,13.1 31.64,12.02 32.74,11.17 C33.84,10.31 35.11,9.88 36.55,9.88 C37.58,9.88 38.36,10.09 38.87,10.5 C39.39,10.89 39.64,11.36 39.64,11.87 L39.64,11.87 Z M44.23,11.72 C44.23,10.07 43.59,8.74 42.32,7.72 C41.05,6.71 39.2,6.2 36.78,6.2 C35.13,6.2 33.58,6.49 32.14,7.07 C30.7,7.66 29.44,8.46 28.38,9.51 C27.32,10.55 26.47,11.78 25.86,13.22 C25.24,14.66 24.93,16.24 24.93,17.97 C24.93,19.11 25.12,20.18 25.5,21.15 C25.87,22.11 26.42,22.95 27.18,23.67 C27.93,24.39 28.88,24.96 30.01,25.35 C31.16,25.74 32.5,25.95 34.05,25.95 C35.68,25.95 37.05,25.74 38.18,25.35 C39.32,24.96 40.24,24.41 40.96,23.7 C41.33,23.33 41.58,22.97 41.75,22.64 C41.93,22.32 42.01,21.91 42.01,21.39 C42.01,20.96 41.89,20.6 41.67,20.31 C41.43,20.04 41.17,19.82 40.9,19.66 C40.6,19.51 40.35,19.41 40.11,19.37 C39.87,19.34 39.73,19.32 39.69,19.35 C39.08,20.18 38.3,20.84 37.39,21.34 C36.48,21.84 35.38,22.09 34.13,22.09 C32.64,22.09 31.5,21.72 30.72,20.96 C29.93,20.21 29.53,19.17 29.53,17.86 L29.53,17.74 C30.25,17.8 30.92,17.83 31.56,17.86 C32.19,17.88 32.79,17.9 33.39,17.9 C35.49,17.9 37.22,17.76 38.63,17.47 C40.04,17.2 41.15,16.79 41.98,16.25 C42.8,15.72 43.39,15.07 43.73,14.3 C44.06,13.53 44.23,12.66 44.23,11.72 L44.23,11.72 Z" id="Fill-2" sketch:type="MSShapeGroup"></path>
                <path d="M50.79,8.26 C50.61,7.83 50.39,7.48 50.12,7.23 C49.82,6.97 49.51,6.78 49.15,6.66 C48.79,6.54 48.42,6.49 48.04,6.49 C47.59,6.49 47.25,6.54 46.97,6.63 C46.7,6.71 46.56,6.78 46.53,6.83 L43.09,23.02 C42.89,24.01 43.04,24.7 43.56,25.06 C44.07,25.42 44.71,25.61 45.45,25.61 L46.03,25.61 C46.73,25.61 47.27,25.42 47.66,25.04 C48.04,24.66 48.35,24 48.55,23.02 L50.56,13.46 C51.16,12.54 51.78,11.85 52.45,11.41 C53.12,10.96 53.93,10.74 54.89,10.74 C55.87,10.74 56.62,11.01 57.16,11.54 C57.69,12.08 57.94,12.85 57.94,13.82 C57.94,14.23 57.88,14.78 57.72,15.48 C57.57,16.19 57.36,16.97 57.1,17.88 C56.83,18.96 56.59,19.87 56.43,20.6 C56.26,21.34 56.18,21.99 56.18,22.56 C56.18,23.57 56.49,24.36 57.09,24.97 C57.69,25.57 58.63,25.88 59.92,25.88 C60.67,25.88 61.26,25.76 61.7,25.54 C62.13,25.31 62.48,25.06 62.72,24.77 C62.94,24.49 63.1,24.24 63.16,24 C63.23,23.77 63.25,23.65 63.22,23.65 C62.7,23.59 62.31,23.41 62.07,23.17 C61.81,22.93 61.69,22.54 61.69,21.99 C61.69,21.6 61.77,21.05 61.95,20.33 C62.12,19.61 62.32,18.77 62.58,17.83 C62.91,16.68 63.18,15.64 63.39,14.71 C63.59,13.79 63.7,12.98 63.7,12.31 C63.7,10.52 63.16,9.04 62.1,7.91 C61.04,6.78 59.52,6.22 57.6,6.22 C56.21,6.22 54.97,6.54 53.88,7.18 C52.78,7.83 51.87,8.72 51.11,9.88 C51.04,9.21 50.96,8.68 50.79,8.26" id="Fill-3" sketch:type="MSShapeGroup"></path>
                <path d="M78.65,11.87 C78.65,12.23 78.55,12.57 78.34,12.9 C78.14,13.22 77.77,13.5 77.26,13.75 C76.74,13.99 76.04,14.2 75.17,14.34 C74.29,14.47 73.19,14.54 71.89,14.54 C71.11,14.54 70.24,14.51 69.26,14.42 C69.83,13.1 70.65,12.02 71.75,11.17 C72.85,10.31 74.12,9.88 75.56,9.88 C76.59,9.88 77.36,10.09 77.88,10.5 C78.39,10.89 78.65,11.36 78.65,11.87 L78.65,11.87 Z M83.25,11.72 C83.25,10.07 82.62,8.74 81.35,7.72 C80.08,6.71 78.22,6.2 75.8,6.2 C74.15,6.2 72.61,6.49 71.16,7.07 C69.72,7.66 68.47,8.46 67.4,9.51 C66.34,10.55 65.5,11.78 64.88,13.22 C64.26,14.66 63.95,16.24 63.95,17.97 C63.95,19.11 64.14,20.18 64.52,21.15 C64.9,22.11 65.45,22.95 66.2,23.67 C66.96,24.39 67.9,24.96 69.04,25.35 C70.19,25.74 71.53,25.95 73.07,25.95 C74.68,25.95 76.08,25.74 77.21,25.35 C78.34,24.96 79.27,24.41 79.99,23.7 C80.35,23.33 80.61,22.97 80.78,22.64 C80.95,22.32 81.04,21.91 81.04,21.39 C81.04,20.96 80.92,20.6 80.69,20.31 C80.47,20.04 80.2,19.82 79.92,19.66 C79.63,19.51 79.37,19.41 79.13,19.37 C78.89,19.34 78.75,19.32 78.72,19.35 C78.1,20.18 77.33,20.84 76.42,21.34 C75.51,21.84 74.41,22.09 73.16,22.09 C71.66,22.09 70.53,21.72 69.74,20.96 C68.95,20.21 68.56,19.17 68.56,17.86 L68.56,17.74 C69.28,17.8 69.95,17.83 70.58,17.86 C71.22,17.88 71.82,17.9 72.42,17.9 C74.51,17.9 76.25,17.76 77.65,17.47 C79.06,17.2 80.18,16.79 81,16.25 C81.83,15.72 82.41,15.07 82.75,14.3 C83.08,13.53 83.25,12.66 83.25,11.72 L83.25,11.72 Z" id="Fill-4" sketch:type="MSShapeGroup"></path>
                <path d="M89.79,8.26 C89.62,7.83 89.4,7.48 89.12,7.23 C88.83,6.97 88.52,6.78 88.16,6.66 C87.8,6.54 87.42,6.49 87.05,6.49 C86.6,6.49 86.26,6.54 85.98,6.63 C85.71,6.71 85.57,6.78 85.54,6.83 L82.1,23.02 C81.9,24.01 82.05,24.7 82.56,25.06 C83.08,25.42 83.72,25.61 84.45,25.61 L85.04,25.61 C85.74,25.61 86.27,25.42 86.67,25.04 C87.05,24.66 87.36,24 87.56,23.02 L88.64,17.81 C88.85,16.8 89.11,15.91 89.42,15.09 C89.72,14.28 90.08,13.58 90.48,12.98 C90.87,12.38 91.32,11.94 91.82,11.61 C92.32,11.29 92.87,11.13 93.48,11.13 C94.15,11.13 94.69,11.25 95.08,11.48 C95.48,11.7 95.82,11.96 96.11,12.25 C96.13,12.26 96.28,12.23 96.54,12.13 C96.8,12.02 97.07,11.84 97.36,11.56 C97.66,11.29 97.93,10.93 98.17,10.48 C98.41,10.04 98.53,9.47 98.53,8.8 C98.53,8.02 98.21,7.36 97.57,6.87 C96.92,6.39 96.13,6.13 95.18,6.13 C94.07,6.13 93.09,6.44 92.25,7.07 C91.39,7.71 90.67,8.6 90.08,9.75 C90.05,9.2 89.96,8.68 89.79,8.26" id="Fill-5" sketch:type="MSShapeGroup"></path>
                <path d="M112.06,13.75 L111.51,16.41 C111.36,17.16 111.1,17.85 110.74,18.46 C110.38,19.1 109.93,19.65 109.43,20.11 C108.92,20.57 108.35,20.93 107.72,21.2 C107.08,21.48 106.43,21.62 105.73,21.62 C104.64,21.62 103.73,21.26 103,20.52 C102.26,19.78 101.9,18.77 101.9,17.45 C101.9,16.6 102.03,15.76 102.31,14.9 C102.58,14.06 102.96,13.31 103.46,12.64 C103.96,11.99 104.56,11.46 105.28,11.05 C105.98,10.64 106.79,10.43 107.7,10.43 C108.88,10.43 109.83,10.74 110.52,11.34 C111.22,11.96 111.73,12.74 112.06,13.75 L112.06,13.75 Z M118.89,7.16 C118.91,7.06 118.74,6.92 118.38,6.75 C118,6.58 117.56,6.49 117.01,6.49 C115.99,6.49 115.17,6.73 114.53,7.21 C113.88,7.69 113.38,8.48 113.02,9.57 C112.46,8.5 111.63,7.66 110.55,7.07 C109.47,6.47 108.27,6.18 106.96,6.18 C105.43,6.18 104.04,6.53 102.79,7.23 C101.54,7.93 100.44,8.82 99.53,9.95 C98.62,11.06 97.9,12.35 97.38,13.79 C96.87,15.23 96.61,16.7 96.61,18.22 C96.61,19.44 96.78,20.52 97.16,21.48 C97.52,22.44 98.02,23.26 98.67,23.91 C99.3,24.56 100.08,25.08 100.95,25.42 C101.83,25.76 102.77,25.93 103.77,25.93 C105.23,25.93 106.55,25.57 107.72,24.87 C108.87,24.17 109.83,23.21 110.57,21.99 C110.52,23.17 110.79,24.12 111.39,24.8 C111.99,25.49 112.99,25.85 114.38,25.85 C115.07,25.85 115.61,25.74 116.03,25.55 C116.42,25.37 116.73,25.14 116.94,24.9 C117.14,24.66 117.3,24.34 117.4,23.93 C116.65,23.81 116.18,23.52 115.98,23.05 C115.77,22.61 115.79,21.86 116.01,20.79 L118.89,7.16 L118.89,7.16 Z" id="Fill-6" sketch:type="MSShapeGroup"></path>
                <path d="M129.81,24.66 C130.43,24.05 130.74,23.35 130.74,22.54 C130.74,21.96 130.62,21.51 130.36,21.24 C130.11,20.96 129.93,20.84 129.87,20.9 C129.61,21.14 129.28,21.34 128.89,21.55 C128.49,21.75 128.05,21.86 127.55,21.86 C126.79,21.86 126.26,21.6 125.9,21.1 C125.56,20.6 125.5,19.77 125.76,18.62 L127.43,10.91 L130.95,10.91 C131.46,10.91 131.86,10.86 132.13,10.77 C132.41,10.69 132.63,10.55 132.8,10.36 C133.08,10.09 133.28,9.69 133.42,9.23 C133.54,8.75 133.61,8.38 133.61,8.1 C133.61,7.67 133.44,7.31 133.09,7.06 C132.75,6.8 132.23,6.68 131.56,6.68 L128.39,6.68 L129.32,2.33 C129.33,2.26 129.16,2.12 128.77,1.95 C128.39,1.78 127.89,1.68 127.31,1.68 C126.09,1.68 125.2,1.99 124.58,2.6 C123.98,3.22 123.53,4.23 123.24,5.62 L123.01,6.7 L121.9,6.7 C121.37,6.7 120.95,6.75 120.7,6.83 C120.44,6.92 120.22,7.07 120.01,7.28 C119.72,7.55 119.53,7.93 119.41,8.39 C119.29,8.86 119.24,9.23 119.24,9.51 C119.24,9.93 119.41,10.29 119.75,10.55 C120.1,10.81 120.58,10.93 121.19,10.93 L122.12,10.93 L120.46,18.87 C119.98,21.15 120.18,22.92 121.11,24.15 C122.04,25.38 123.6,26 125.78,26 C127.6,25.97 128.94,25.54 129.81,24.66" id="Fill-7" sketch:type="MSShapeGroup"></path>
                <path d="M146.11,11.87 C146.11,12.23 146,12.57 145.8,12.9 C145.59,13.22 145.23,13.5 144.72,13.75 C144.2,13.99 143.51,14.2 142.62,14.34 C141.75,14.47 140.65,14.54 139.34,14.54 C138.57,14.54 137.69,14.51 136.72,14.42 C137.28,13.1 138.11,12.02 139.21,11.17 C140.3,10.31 141.57,9.88 143.02,9.88 C144.05,9.88 144.82,10.09 145.33,10.5 C145.85,10.89 146.11,11.36 146.11,11.87 L146.11,11.87 Z M150.71,11.72 C150.71,10.07 150.07,8.74 148.8,7.72 C147.53,6.71 145.68,6.2 143.26,6.2 C141.61,6.2 140.06,6.49 138.62,7.07 C137.18,7.66 135.93,8.46 134.86,9.51 C133.8,10.55 132.96,11.78 132.34,13.22 C131.72,14.66 131.41,16.24 131.41,17.97 C131.41,19.11 131.6,20.18 131.98,21.15 C132.35,22.11 132.9,22.95 133.66,23.67 C134.41,24.39 135.36,24.96 136.49,25.35 C137.64,25.74 138.98,25.95 140.53,25.95 C142.16,25.95 143.53,25.74 144.66,25.35 C145.8,24.96 146.72,24.41 147.45,23.7 C147.81,23.33 148.06,22.97 148.24,22.64 C148.41,22.32 148.49,21.91 148.49,21.39 C148.49,20.96 148.37,20.6 148.15,20.31 C147.91,20.04 147.65,19.82 147.38,19.66 C147.09,19.51 146.83,19.41 146.59,19.37 C146.35,19.34 146.21,19.32 146.18,19.35 C145.56,20.18 144.78,20.84 143.87,21.34 C142.96,21.84 141.87,22.09 140.61,22.09 C139.12,22.09 137.99,21.72 137.2,20.96 C136.41,20.21 136.01,19.17 136.01,17.86 L136.01,17.74 C136.73,17.8 137.4,17.83 138.04,17.86 C138.67,17.88 139.27,17.9 139.87,17.9 C141.97,17.9 143.7,17.76 145.11,17.47 C146.52,17.2 147.63,16.79 148.46,16.25 C149.28,15.72 149.87,15.07 150.21,14.3 C150.54,13.53 150.71,12.66 150.71,11.72 L150.71,11.72 Z" id="Fill-8" sketch:type="MSShapeGroup"></path>
                <path d="M147.76,18.05 C147.63,18.05 147.57,18 147.57,17.88 L147.57,17.86 C147.57,17.76 147.63,17.71 147.76,17.71 L148.92,17.71 C149.04,17.71 149.11,17.76 149.11,17.86 L149.11,17.88 C149.11,18 149.04,18.05 148.92,18.05 L148.54,18.05 L148.54,19.27 C148.54,19.39 148.49,19.44 148.37,19.44 L148.32,19.44 C148.22,19.44 148.15,19.39 148.15,19.27 L148.15,18.05 L147.76,18.05" id="Fill-9" sketch:type="MSShapeGroup"></path>
                <path d="M149.33,19.39 C149.32,19.35 149.3,19.32 149.3,19.25 L149.3,17.88 C149.3,17.81 149.32,17.76 149.35,17.73 C149.39,17.69 149.44,17.68 149.49,17.68 L149.59,17.68 C149.64,17.68 149.7,17.69 149.73,17.71 C149.75,17.73 149.78,17.76 149.8,17.81 L150.14,18.64 L150.5,17.81 C150.52,17.76 150.55,17.73 150.57,17.71 C150.61,17.69 150.64,17.68 150.69,17.68 L150.79,17.68 C150.86,17.68 150.91,17.69 150.95,17.73 C150.98,17.76 151,17.81 151,17.88 L151,19.25 C151,19.3 150.98,19.35 150.97,19.39 C150.95,19.42 150.9,19.44 150.85,19.44 L150.79,19.44 C150.69,19.44 150.64,19.37 150.64,19.27 L150.64,18.24 L150.35,18.94 C150.35,18.96 150.33,18.98 150.33,18.99 C150.33,19.01 150.31,19.03 150.3,19.03 L150.24,19.06 C150.23,19.06 150.19,19.08 150.16,19.08 C150.12,19.08 150.09,19.08 150.07,19.06 C150.06,19.06 150.04,19.05 150.02,19.05 L149.99,19.01 C149.99,18.99 149.97,18.98 149.97,18.96 L149.68,18.28 L149.68,19.29 C149.68,19.34 149.66,19.39 149.64,19.42 C149.63,19.46 149.58,19.47 149.52,19.47 L149.45,19.47 C149.4,19.44 149.35,19.42 149.33,19.39" id="Fill-10" sketch:type="MSShapeGroup"></path>
            </g>
        </g>
    </g>
</svg>